<ttFont>
<head>
    <!-- Most of this table will be recalculated by the compiler -->
    <tableVersion value="1.0"/>
    <fontRevision value="2.004"/>
    <checkSumAdjustment value="0x92159941"/>
    <magicNumber value="0x5f0f3cf5"/>
    <flags value="00000000 00000011"/>
    <unitsPerEm value="1000"/>
    <created value="Thu Oct  8 09:58:23 2009"/>
    <modified value="Thu Oct  8 09:58:23 2009"/>
    <xMin value="-486"/>
    <yMin value="-295"/>
    <xMax value="1607"/>
    <yMax value="1133"/>
    <macStyle value="00000000 00000001"/>
    <lowestRecPPEM value="3"/>
    <fontDirectionHint value="2"/>
    <indexToLocFormat value="0"/>
    <glyphDataFormat value="0"/>
  </head>
          <CharString index="0">
            rmoveto
            22 -14 18 -20 10 vhcurveto
            11 -25 -26 2 -35 hhcurveto
            -54 -49 -17 -46 -25 19 -16 21 22 19 16 25 14 -6 11 -9 7 hvcurveto
            2 11 12 2 14 hhcurveto
            17 11 -3 -6 6 hvcurveto
            2 -2 1 -8 -17 vvcurveto
            -9 -2 -7 -5 -4 vhcurveto
            -26 -21 -17 -28 -31 vvcurveto
            -16 vlineto
            -8 6 -6 8 7 6 6 8 vhcurveto
            17 vlineto
            1 23 21 13 48 19 rrcurveto
            20 7 16 16 21 vvcurveto
            endchar
          </CharString>
          <CharString index="1">
            799 339 rmoveto
            216 -145 142 -222 -229 -139 -148 -210 -207 140 -143 227 230 138 145 205 vhcurveto
            -153 15 rmoveto
            -70 -4 -89 -42 -69 vhcurveto
            -73 -45 -70 -22 -54 hhcurveto
            -59 -73 28 76 -41 hvcurveto
            -33 62 -8 71 86 vvcurveto
            64 3 85 44 68 vhcurveto
            61 41 67 25 59 hhcurveto
            64 69 -28 -66 40 hvcurveto
            38 -64 4 -77 -68 vvcurveto
            return
          </CharString>
          <CharString index="2">
            rmoveto
            37 8 -28 35 -38 hhcurveto
            -17 -12 -9 -9 -12 hvcurveto
            -31 -24 -73 -63 -30 -24 24 -42 rcurveline
            162 54 18 6 23 7 6 32 rlinecurve
            endchar
          </CharString>
          <CharString index="3">
            -9 callsubr
            hintmask 01010011
            -103 callgsubr
            hintmask 10100011
            -78 callsubr
            return
          </CharString>
          <CharString index="4">
            -104 callsubr
            hintmask 00001100
            return
          </CharString>
          <CharString index="5">
            rmoveto
            -102 callgsubr
            return
          </CharString>
          <CharString index="6">
            hstemhm
            hintmask 11100000
            -106 callgsubr
            return
          </CharString>
          <CharString index="7">
            -20 -101 callsubr
            hintmask 00011000
            return
          </CharString>
          <CharString index="8">
            615 58 callsubr
            364 -76 callgsubr
            -191 vlineto
            -82 -51 -53 -73 -77 -3 25 54 vhcurveto
            341 -76 callgsubr
            -233 vlineto
            -107 81 -22 99 26 72 0 78 46 vhcurveto
            -78 vlineto
            return
          </CharString>
          <CharString index="9">
            -54 callsubr
            -30 20 -29 39 24 15 13 2 2 vhcurveto
            -6 -82 -49 -39 -16 -14 rrcurveto
            -4 -4 -2 -2 -4 vvcurveto
            -8 8 -7 6 11 79 64 104 vhcurveto
            endchar
          </CharString>
          <CharString index="10">
            -20 -12 callsubr
            hintmask 00100000
            845 -39 callsubr
            hintmask 01000000
            -28 callsubr
            hintmask 00100010
            -56 callgsubr
            hintmask 11000111
            -87 callsubr
            hintmask 00100100
            9 callgsubr
            hintmask 01000000
            -3 -38 -98 0 -43 hhcurveto
            hintmask 10100101
            -83 callgsubr
            hintmask 00011000
            return
          </CharString>
          <CharString index="11">
            -20 hstemhm
            64 153 429 153 hintmask 11001100
            -106 callsubr
            hintmask 00110000
            return
          </CharString>
          <CharString index="12">
            -20 hstemhm
            32 128 24 95 120 95 hintmask 11100111
            -105 callgsubr
            hintmask 00011000
            return
          </CharString>
          <CharString index="13">
            -42 callsubr
            102 150 137 50 cntrmask 11100000
            hintmask 11101000
            858 95 rmoveto
            22 -14 0 -10 -21 -1 -10 -13 -1 vhcurveto
            -47 -5 -29 -22 -30 hhcurveto
            -60 -9 71 42 -5 hvcurveto
            -2 11 -8 69 -1 5 -14 70 -55 31 -43 16 rrcurveto
            116 30 51 65 66 vvcurveto
            101 -110 84 -188 vhcurveto
            -380 -47 hlineto
            hintmask 11110110
            108 18 callsubr
            3 36 98 0 42 hhcurveto
            42 98 11 callsubr
            -108 278 117 vlineto
            14 44 0 -34 31 hvcurveto
            32 -35 0 -19 -73 vvcurveto
            -66 0 -49 70 -34 vhcurveto
            -22 44 62 -4 41 hhcurveto
            107 13 90 16 hvcurveto
            -294 405 rmoveto
            -56 0 -83 -165 vhcurveto
            -116 278 118 hlineto
            161 2 -78 -61 hvcurveto
            return
          </CharString>
          <CharString index="14">
            rmoveto
            -175 141 -175 -141 14 -24 160 58 160 -58 rlineto
            return
          </CharString>
          <CharString index="15">
            403 hmoveto
            47 -114 592 114 47 vlineto
            -3 -41 -98 0 -46 hhcurveto
            -46 -98 0 3 -41 hvcurveto
            -47 114 -592 -114 -47 vlineto
            3 41 98 0 46 hhcurveto
            46 98 38 callgsubr
            return
          </CharString>
          <CharString index="16">
            rmoveto
            31 -28 31 -32 -23 -12 -13 -13 -12 vhcurveto
            -112 -132 30 -37 151 81 rlineto
            16 9 22 11 32 vvcurveto
            endchar
          </CharString>
          <CharString index="17">
            -8 rlineto
            -47 vlineto
            62 7 0 -39 hvcurveto
            return
          </CharString>
          <CharString index="18">
            494 117 rmoveto
            18 -19 0 -5 -17 -2 -5 -16 -6 vhcurveto
            -48 -21 -57 -32 -65 hhcurveto
            -141 -1 133 51 hvcurveto
            302 hlineto
            return
          </CharString>
          <CharString index="19">
            -43 -98 -48 callsubr
            -408 vlineto
            -133 108 -109 207 190 85 117 123 vhcurveto
            381 vlineto
            return
          </CharString>
          <CharString index="20">
            18 17 -1 -2 18 hvcurveto
            29 -3 1 -1 -22 vvcurveto
            -377 vlineto
            -148 -109 -49 -109 -175 -2 131 56 vhcurveto
            return
          </CharString>
          <CharString index="21">
            hintmask 00100000
            849 -39 callsubr
            hintmask 01000000
            -114 -3 rlineto
            hintmask 00100000
            -39 -56 0 3 -37 hvcurveto
            -47 vlineto
            23 27 0 -10 26 hvcurveto
            -2 -4 0 -2 -5 -6 -187 -275 rcurveline
            -203 297 rlineto
            85 47 hlineto
            hintmask 01000000
            -3 -41 -97 0 -45 hhcurveto
            hintmask 10100100
            -40 -90 0 3 -35 hvcurveto
            -47 98 vlineto
            249 -365 rlineto
            -227 74 callsubr
            36 98 0 42 hhcurveto
            43 96 0 -3 38 hvcurveto
            47 -109 227 vlineto
            235 345 rlineto
            hintmask 01000000
            9 14 8 0 22 3 rrcurveto
            hintmask 00100000
            2 17 18 1 17 hhcurveto
            return
          </CharString>
          <CharString index="22">
            -66 callsubr
            86 49 63 34 21 -21 -76 vhcurveto
            -270 -22 callsubr
            return
          </CharString>
          <CharString index="23">
            852 hmoveto
            47 -29 vlineto
            -53 -3 4 16 -12 hvcurveto
            -270 354 240 200 rlineto
            18 22 42 0 30 hhcurveto
            17 47 hlineto
            -3 -40 -57 0 -5 hhcurveto
            -38 -72 0 3 -36 hvcurveto
            -47 vlineto
            13 20 0 -5 25 hvcurveto
            16 -4 -12 1 9 -3 -370 -309 rcurveline
            320 -76 callsubr
            -592 -59 callgsubr
            210 vlineto
            100 83 206 -271 5 -6 0 -2 3 -6 rlinecurve
            -8 -18 -20 0 -35 hhcurveto
            -47 vlineto
            3 41 90 0 45 hhcurveto
            40 69 0 -3 37 hvcurveto
            return
          </CharString>
          <CharString index="24">
            798 339 rmoveto
            97 -31 96 -69 67 vhcurveto
            -5 5 -5 5 -5 4 rrcurveto
            45 18 29 52 55 vvcurveto
            42 -27 39 -39 -45 -22 -33 -33 -34 22 -33 45 vhcurveto
            5 hlineto
            -13 -20 -19 -16 -23 -7 rrcurveto
            38 -62 -74 16 -74 hhcurveto
            -99 -98 -29 -69 -70 hvcurveto
            -69 -67 -31 -96 -97 vvcurveto
            -95 31 -94 69 -66 vhcurveto
            -67 71 98 -28 98 hhcurveto
            98 98 28 67 71 hvcurveto
            return
          </CharString>
          <CharString index="25">
            rmoveto
            -40 -26 -3 -39 -39 -26 3 40 40 29 3 36 36 29 -3 -40 vhcurveto
            54 -1 rmoveto
            41 -32 44 -87 -90 -29 -47 -36 -41 32 -44 87 90 29 47 36 vhcurveto
            return
          </CharString>
          <CharString index="26">
            -20 -40 callsubr
            -41 30 callgsubr
            -90 -8 callgsubr
            hintmask 0010000001000000
            -56 callgsubr
            hintmask 1100001001100000
            -87 callsubr
            hintmask 0010001000000000
            9 callgsubr
            hintmask 0100000000000000
            -3 -38 -98 0 -43 hhcurveto
            hintmask 1010001000100000
            -88 callsubr
            hintmask 0100000000000000
            22 1 1 28 3 vhcurveto
            hintmask 0010000000000000
            -27 callgsubr
            hintmask 0001110110000000
            -432 -7 callsubr
            return
          </CharString>
          <CharString index="27">
            rmoveto
            -100 callgsubr
            303 hmoveto
            -100 callgsubr
            endchar
          </CharString>
          <CharString index="28">
            645 284 rmoveto
            -47 hlineto
            -111 -8 -14 -122 -205 hhcurveto
            -140 hlineto
            399 586 rlineto
            8 12 0 1 11 vvcurveto
            25 -11 0 -21 vhcurveto
            -514 hlineto
            -12 -241 rlineto
            47 hlineto
            133 8 67 61 140 hhcurveto
            130 hlineto
            -400 -587 rlineto
            -8 -12 0 -3 -11 vvcurveto
            -26 10 0 22 vhcurveto
            531 hlineto
            return
          </CharString>
          <CharString index="29">
            -96 -92 -13 -25 -51 -40 35 44 108 158 14 50 3 vhcurveto
            return
          </CharString>
          <CharString index="30">
            -20 hstemhm
            25 232 -173 173 -56 214 -106 214 0 214 -105 173 hintmask 0100000101000000
            805 397 rmoveto
            47 vlineto
            -2 -23 -30 -1 -24 hhcurveto
            -96 3 rlineto
            -47 vlineto
            9 49 -1 -11 -3 -3 -6 -1 -3 hvcurveto
            -105 -256 -114 280 rlineto
            56 47 hlineto
            -114 -3 rlineto
            -42 -42 2 1 -16 hvcurveto
            -47 59 vlineto
            21 -50 0 -3 0 vvcurveto
            -4 -3 -6 -1 -3 vhcurveto
            -79 -192 rlineto
            hintmask 0100001000000000
            -105 258 rlineto
            hintmask 0100100000000000
            56 47 hlineto
            -123 -3 -109 3 rlineto
            -47 vlineto
            hintmask 1100010100000000
            59 hlineto
            153 -374 -20 callgsubr
            hintmask 1000001010000000
            106 259 106 -259 -20 callgsubr
            144 353 rlineto
            hintmask 0100000001000000
            13 5 4 8 59 hhcurveto
            return
          </CharString>
          <CharString index="31">
            108 47 vlineto
            -3 -38 -98 0 -43 hhcurveto
            -43 -98 -48 callsubr
            return
          </CharString>
          <CharString index="32">
            -96 callsubr
            -39 return
          </CharString>
          <CharString index="33">
            -100 callsubr
            221 return
          </CharString>
          <CharString index="34">
            40 -27 38 -51 -22 -20 -8 -15 -16 vhcurveto
            6 112 70 55 22 17 rrcurveto
            4 3 4 3 7 vvcurveto
            10 -11 10 -8 -14 -109 -85 -140 -69 37 -56 58 46 31 35 43 vhcurveto
            return
          </CharString>
          <CharString index="35">
            69 66 31 94 95 vvcurveto
            -153 18 rmoveto
            -84 -5 -86 -46 -69 vhcurveto
            -55 -36 -62 -32 -65 hhcurveto
            -66 -61 32 55 -36 hvcurveto
            -46 69 -6 86 84 vvcurveto
            77 7 80 45 62 vhcurveto
            53 37 62 28 64 hhcurveto
            64 61 -28 -53 38 hvcurveto
            45 -62 6 -80 -77 vvcurveto
            return
          </CharString>
          <CharString index="36">
            6 9 -4 13 -8 6 -11 10 -10 5 -6 -8 rrcurveto
            -18 -13 -19 -5 -14 hhcurveto
            return
          </CharString>
          <CharString index="37">
            -112 132 rlineto
            13 -12 -12 13 -23 hhcurveto
            -32 -28 -31 -31 -32 22 -11 16 -9 hvcurveto
            151 -81 rlineto
            endchar
          </CharString>
          <CharString index="38">
            643 274 rmoveto
            -47 hlineto
            -69 -8 -17 -158 -179 hhcurveto
            -103 592 135 47 hlineto
            -3 -44 -109 0 -49 hhcurveto
            -44 -101 -48 callsubr
            -20 callsubr
            573 vlineto
            return
          </CharString>
          <CharString index="39">
            rmoveto
            -14 24 -160 -58 -160 58 -16 -24 175 -141 rlineto
            endchar
          </CharString>
          <CharString index="40">
            831 -6 36 188 33 110 36 -31 33 18 36 hstemhm
            37 117 -20 114 -95 95 110 114 -95 95 231 95 hintmask 0110100001100000
            798 117 rmoveto
            18 -19 0 -5 -17 -2 -5 -14 -6 vhcurveto
            -59 -23 -57 -23 -48 hhcurveto
            -143 -4 134 50 -2 hvcurveto
            294 hlineto
            24 8 1 27 34 -6 67 -44 50 hvcurveto
            26 -23 -46 30 -80 hhcurveto
            -56 -54 -13 -36 -49 hvcurveto
            hintmask 0001100000000000
            -5 -5 -3 0 0 vvcurveto
            0 -2 1 -4 3 vhcurveto
            35 -45 -51 15 -78 hhcurveto
            hintmask 0010101010000000
            -59 -121 -4 -88 -44 35 -19 27 31 32 21 42 30 -19 17 -3 2 hvcurveto
            6 29 32 1 12 hhcurveto
            76 34 -44 -74 hvcurveto
            -51 vlineto
            hintmask 0000000100000000
            -110 -6 -30 -2 -65 -20 rrcurveto
            hintmask 1101110001100000
            -68 -21 -48 -41 -55 vvcurveto
            -89 107 -20 84 29 114 1 64 55 vhcurveto
            -45 50 69 -20 68 hhcurveto
            140 45 103 20 122 callsubr
            -231 hlineto
            2 76 19 28 8 11 rrcurveto
            49 33 53 2 11 hhcurveto
            97 5 -112 -54 3 hvcurveto
            -326 -127 rmoveto
            -50 -62 -44 -73 -54 -34 35 38 vhcurveto
            hintmask 0000000010000000
            73 97 36 107 2 vhcurveto
            1 -27 6 -25 9 -24 rrcurveto
            hintmask 0000000001000000
            3 -8 0 -1 -5 vvcurveto
            endchar
          </CharString>
          <CharString index="41">
            -6 callgsubr
            109 return
          </CharString>
          <CharString index="42">
            15 callgsubr
            76 -32 82 -80 43 vhcurveto
            70 113 -30 20 -72 -117 rlineto
            18 -52 -50 0 -9 hhcurveto
            -164 -91 -102 -133 -61 23 -83 89 -48 hvcurveto
            -70 -113 30 -20 73 118 rlineto
            -17 50 48 0 12 hhcurveto
            168 87 101 123 hvcurveto
            -170 176 rmoveto
            -197 -317 rlineto
            -29 36 0 57 49 vvcurveto
            75 0 123 141 30 30 -6 -17 25 vhcurveto
            56 -175 rmoveto
            -75 0 -114 -141 -12 -39 0 22 -33 vhcurveto
            195 316 rlineto
            29 -39 1 -54 -56 vvcurveto
            return
          </CharString>
          <CharString index="43">
            -96 124 -18 69 80 47 41 42 22 vhcurveto
            return
          </CharString>
          <CharString index="44">
            -82 callsubr
            endchar
          </CharString>
          <CharString index="45">
            382 124 rmoveto
            53 -47 -51 vlineto
            -68 -32 -24 -28 -58 0 64 23 vhcurveto
            276 146 47 -146 191 -47 vlineto
            -1 -100 -49 -99 -99 -3 rrcurveto
            -36 vlineto
            return
          </CharString>
          <CharString index="46">
            rmoveto
            -18 22 -158 -99 -158 99 -20 -22 177 -185 rlineto
            endchar
          </CharString>
          <CharString index="47">
            -93 callsubr
            endchar
          </CharString>
          <CharString index="48">
            -69 -47 vlineto
            126 3 return
          </CharString>
          <CharString index="49">
            -20 35 callsubr
            hintmask 11001010
            -6 callsubr
            -63 -26 -48 -19 -51 hhcurveto
            -139 0 147 46 56 0 130 129 35 17 -3 -3 13 hvcurveto
            hintmask 01000101
            -14 callsubr
            hintmask 10001000
            -179 -74 -115 -116 -133 94 -95 154 162 30 116 7 hvcurveto
            hintmask 00110000
            return
          </CharString>
          <CharString index="50">
            869 91 callsubr
            hstemhm
            34 801 hintmask 10101000
            835 hmoveto
            47 -98 vlineto
            -253 350 168 221 11 14 1 1 35 3 rlinecurve
            hintmask 00010000
            3 24 6 0 28 hhcurveto
            29 47 hlineto
            hintmask 00100000
            -3 -42 -49 0 -43 hhcurveto
            hintmask 00010000
            -39 -77 0 3 -36 hvcurveto
            -47 vlineto
            18 39 0 -11 35 hvcurveto
            -1 -2 -5 -6 -2 -3 -132 -175 rcurveline
            -143 197 rlineto
            83 47 hlineto
            hintmask 00100000
            -3 -41 -95 0 -45 hhcurveto
            hintmask 01010000
            -40 -87 0 3 -35 hvcurveto
            -47 98 vlineto
            222 -307 -202 -265 -9 -12 -2 -2 -32 -3 rlinecurve
            hintmask 10001000
            -2 -20 -21 -1 -20 hhcurveto
            -29 -47 hlineto
            hintmask 01000000
            3 42 49 0 43 hhcurveto
            hintmask 10000000
            39 77 11 callsubr
            vlineto
            -18 -39 0 11 -35 hvcurveto
            1 2 5 6 2 3 165 219 rcurveline
            174 -241 rlineto
            -83 -47 hlineto
            hintmask 01000000
            3 41 95 0 45 hhcurveto
            hintmask 10001000
            118 callgsubr
            endchar
          </CharString>
          <CharString index="51">
            894 -6 36 -36 40 184 33 110 36 -16 36 0 36 hstemhm
            32 117 272 114 231 95 hintmask 0111010110000000
            861 117 rmoveto
            18 -19 0 -5 -17 -2 -5 -14 -6 vhcurveto
            -59 -23 -57 -23 -48 hhcurveto
            -143 -4 134 50 -2 hvcurveto
            294 hlineto
            24 8 1 27 34 -6 67 -44 50 hvcurveto
            26 -23 -46 30 -80 hhcurveto
            hintmask 0000100000000000
            -67 -67 -20 -52 -51 hvcurveto
            hintmask 1011011110000000
            32 -33 -56 40 -104 hhcurveto
            -159 -93 -97 -132 -130 91 -100 161 104 61 43 32 30 hvcurveto
            -37 34 67 -38 96 hhcurveto
            140 45 103 20 122 callsubr
            -231 hlineto
            2 76 19 28 8 11 rrcurveto
            49 33 53 2 11 hhcurveto
            97 5 -112 -54 3 hvcurveto
            -345 -22 rmoveto
            -56 0 -143 -137 -50 -43 26 37 -19 vhcurveto
            -18 34 -5 35 67 vvcurveto
            39 0 54 24 39 vhcurveto
            43 28 48 13 35 hhcurveto
            137 0 -132 -56 hvcurveto
            endchar
          </CharString>
          <CharString index="52">
            900 -274 -21 145 117 33 69 callgsubr
            hintmask 0000010000000000
            860 -39 callsubr
            hintmask 0000100000000000
            -28 callsubr
            hintmask 0000010010000000
            -56 callgsubr
            hintmask 0000100011000000
            -43 callsubr
            hintmask 0001011000000000
            -43 callgsubr
            hintmask 0010000000000000
            -4 callgsubr
            hintmask 0001000000000000
            25 callgsubr
            hintmask 0010000100000000
            -5 callsubr
            hintmask 0001001100000000
            -42 callgsubr
            hintmask 0010100001000000
            -44 callsubr
            return
          </CharString>
          <CharString index="53">
            rmoveto
            51 -26 43 -43 -35 -23 -26 -32 return
          </CharString>
          <CharString index="54">
            -67 callgsubr
            hintmask 00000010
            23 -34 0 -56 -48 vvcurveto
            return
          </CharString>
          <CharString index="55">
            1042 0 47 -44 47 256 103 callgsubr
            hstemhm
            482 132 170 47 0 132 -33 47 -15 47 hintmask 1011110010000000
            1009 274 rmoveto
            -47 hlineto
            -133 -22 -22 -94 -176 hhcurveto
            -128 259 63 hlineto
            97 10 -43 -74 hvcurveto
            47 281 -47 hlineto
            -73 -9 -44 -98 vhcurveto
            -63 286 124 hlineto
            hintmask 0101000100000000
            158 19 -77 -117 15 hvcurveto
            47 hlineto
            -31 241 rlineto
            -636 -47 78 hlineto
            -240 -568 -8 -17 -1 -1 -26 -3 rlinecurve
            hintmask 1000000000000000
            -3 -25 -4 0 -22 hhcurveto
            -21 -47 hlineto
            hintmask 0100000000000000
            118 3 rlineto
            hintmask 1010101000000000
            38 56 0 -3 37 hvcurveto
            47 vlineto
            -26 -36 0 11 -27 hvcurveto
            104 248 rlineto
            177 -259 -81 -47 562 hlineto
            hintmask 0011100010000000
            -481 353 rmoveto
            -157 hlineto
            120 286 rlineto
            37 hlineto
            endchar
          </CharString>
          <CharString index="56">
            597 -6 36 -30 47 350 47 -36 36 220 36 hstemhm
            106 108 0 108 -75 100 -51 118 0 118 -86 118 hintmask 0001110001000000
            564 180 rmoveto
            125 -70 86 -85 32 vhcurveto
            106 36 17 68 35 vvcurveto
            66 -58 72 -157 -122 -89 -47 -97 vhcurveto
            -112 -69 vlineto
            hintmask 0110110001000000
            -47 69 -350 -69 -47 vlineto
            112 3 rlineto
            28 10 -1 -2 27 hvcurveto
            558 vlineto
            28 0 78 102 98 0 -75 -26 -55 -18 -58 -96 -6 vhcurveto
            -13 -1 -9 0 -17 vvcurveto
            hintmask 1001000010100000
            -17 9 0 9 -1 vhcurveto
            149 -11 1 -165 -53 vvcurveto
            -34 0 -115 -95 vhcurveto
            hintmask 0000001000000000
            -15 -12 6 1 -2 hvcurveto
            hintmask 1000000100100000
            16 9 9 19 16 vvcurveto
            30 -24 20 -26 -17 -33 -11 -40 -42 37 -44 70 113 97 64 122 vhcurveto
            endchar
          </CharString>
          <CharString index="57">
            rmoveto
            -87 callgsubr
            return
          </CharString>
          <CharString index="58">
            831 0 103 558 36 132 callgsubr
            396 153 vstem
            779 200 rmoveto
            -47 hlineto
            -2 -14 -8 -42 -7 -18 rrcurveto
            -13 -5 -4 -10 -60 hhcurveto
            -72 hlineto
            21 45 28 35 31 39 rrcurveto
            56 72 56 72 91 vvcurveto
            108 -90 132 -261 -261 -90 -132 -108 -92 57 -72 55 -69 vhcurveto
            35 -45 25 -34 20 -42 rrcurveto
            -72 hlineto
            -59 -4 10 10 -5 hvcurveto
            -7 18 -9 49 -2 10 rrcurveto
            -47 hlineto
            37 -200 rlineto
            191 hlineto
            22 10 0 27 70 -30 92 -15 44 hvcurveto
            -26 79 -23 72 73 vvcurveto
            39 5 71 49 45 vhcurveto
            44 49 65 5 30 hhcurveto
            52 57 -15 -36 36 hvcurveto
            30 -29 23 -44 -80 vvcurveto
            -70 -21 -68 -25 -74 vhcurveto
            -19 -60 -29 -88 -70 vvcurveto
            -27 10 0 22 vhcurveto
            191 hlineto
            endchar
          </CharString>
          <CharString index="59">
            0 3 -38 hvcurveto
            -47 108 return
          </CharString>
          <CharString index="60">
            -103 callsubr
            105 467 -99 callgsubr
            return
          </CharString>
          <CharString index="61">
            615 hmoveto
            47 -69 259 vlineto
            105 -54 39 -100 -96 return
          </CharString>
          <CharString index="62">
            114 114 204 114 return
          </CharString>
          <CharString index="63">
            -12 10 1 -1 16 hhcurveto
            27 0 9 23 hvcurveto
            578 vlineto
            22 1 1 28 3 vhcurveto
            return
          </CharString>
          <CharString index="64">
            18 17 -1 -2 18 hvcurveto
            29 -3 1 -1 -22 vvcurveto
            -405 vlineto
            -398 468 rlineto
            return
          </CharString>
          <CharString index="65">
            863 0 47 278 36 278 42 callsubr
            0 136 return
          </CharString>
          <CharString index="66">
            799 339 rmoveto
            216 -145 142 -222 -229 -139 -148 -210 -195 124 -138 203 -15 vhcurveto
            -26 -25 -20 -37 -29 -63 callgsubr
            -34 -23 37 40 14 hvcurveto
            6 16 10 15 13 11 rrcurveto
            203 17 121 139 192 vvcurveto
            -153 15 rmoveto
            -70 -4 -89 -42 -69 vhcurveto
            -73 -45 -70 -22 -54 hhcurveto
            -59 -73 28 76 -41 hvcurveto
            -33 62 -8 71 86 vvcurveto
            64 3 85 44 68 vhcurveto
            61 41 67 25 59 hhcurveto
            64 69 -28 -66 40 hvcurveto
            38 -64 4 -77 -68 vvcurveto
            return
          </CharString>
          <CharString index="67">
            hstemhm
            -24 callsubr
            return
          </CharString>
          <CharString index="68">
            639 rmoveto
            47 vlineto
            return
          </CharString>
          <CharString index="69">
            180 -47 callgsubr
            36 callgsubr
            hintmask 0001000010000000
            -18 10 0 18 vhcurveto
            hintmask 1011000100000000
            18 callgsubr
            33 9 25 25 41 vvcurveto
            hintmask 1100000100000000
            45 -32 31 -44 -42 -35 -27 -51 -90 97 -60 129 vhcurveto
            hintmask 0010000000000000
            179 73 100 91 hvcurveto
            endchar
          </CharString>
          <CharString index="70">
            442 368 rmoveto
            53 -54 29 -52 -70 -40 -50 -63 -23 vhcurveto
            113 vlineto
            return
          </CharString>
          <CharString index="71">
            -15 76 -26 74 -35 69 35 69 26 74 15 77 rrcurveto
            10 -6 6 -8 vhcurveto
            -8 hlineto
            -6 -5 -3 -6 -2 hvcurveto
            -33 -83 -52 -74 -67 -59 rrcurveto
            -3 -3 -2 -4 -4 vvcurveto
            -4 2 -4 3 -2 vhcurveto
            67 -59 52 -75 33 -83 rrcurveto
            -5 2 5 -4 6 hhcurveto
            8 hlineto
            8 6 6 11 hvcurveto
            return
          </CharString>
          <CharString index="72">
            74 -57 74 -57 74 return
          </CharString>
          <CharString index="73">
            -24 40 41 -4 64 hhcurveto
            56 49 32 47 26 hvcurveto
            -79 vlineto
            178 6 rlineto
            47 vlineto
            -20 -26 0 5 -12 hvcurveto
            return
          </CharString>
          <CharString index="74">
            -84 -88 -61 -140 -145 91 -57 81 74 73 59 142 return
          </CharString>
          <CharString index="75">
            187 rmoveto
            108 -84 47 -49 28 vhcurveto
            70 36 31 44 58 vvcurveto
            102 -91 45 -114 -139 -70 -79 -96 -44 18 -63 78 -44 vhcurveto
            hintmask 11010101
            -84 -37 -44 -57 -74 vvcurveto
            -121 108 -51 129 160 81 88 110 vhcurveto
            -107 320 rmoveto
            -49 -26 -34 -44 -29 vhcurveto
            -150 84 rlineto
            hintmask 10101110
            -16 9 -28 17 34 vvcurveto
            70 90 7 40 84 50 -41 -68 vhcurveto
            21 -375 rmoveto
            -84 -94 -16 -57 vhcurveto
            hintmask 01010001
            -98 -57 51 78 78 53 43 35 20 hvcurveto
            137 -76 rlineto
            44 -25 37 -21 -48 vvcurveto
            endchar
          </CharString>
          <CharString index="76">
            205 rmoveto
            140 -101 73 -121 vhcurveto
            hintmask 01001000
            -22 -56 0 -76 -42 hvcurveto
            19 vlineto
            114 21 43 7 15 vhcurveto
            47 24 54 36 61 hhcurveto
            hintmask 10111110
            18 34 -3 -23 23 hvcurveto
            -36 -5 -18 -27 -30 vvcurveto
            -34 23 -28 39 39 24 26 38 62 -42 63 -106 -136 -165 -86 -252 -79 9 -80 41 -69 vhcurveto
            -76 47 76 -24 70 hhcurveto
            139 96 82 134 hvcurveto
            -136 2 rmoveto
            -101 0 -74 -101 -52 -27 39 16 -8 vhcurveto
            -16 32 0 73 18 vvcurveto
            125 54 47 55 95 0 -75 -100 vhcurveto
            endchar
          </CharString>
          <CharString index="77">
            15 -21 -24 11 -33 hhcurveto
            -33 callsubr
            18 0 36 -15 47 hvcurveto
            -30 66 58 -11 49 hhcurveto
            21 46 2 20 50 hvcurveto
            -487 -630 rlineto
            0 -11 -14 -11 vvcurveto
            -17 14 -14 17 14 5 6 10 7 vhcurveto
            return
          </CharString>
          <CharString index="78">
            -18 -13 -41 -55 -76 hhcurveto
            -122 0 121 70 48 0 54 26 39 hvcurveto
            42 29 47 10 31 hhcurveto
            57 40 -32 -29 22 hvcurveto
            return
          </CharString>
          <CharString index="79">
            -3 -38 -57 0 -39 hhcurveto
            return
          </CharString>
          <CharString index="80">
            527 -6 36 166 33 184 40 hstem
            32 95 120 95 24 128 vstem
            494 222 rmoveto
            134 -100 97 -161 -158 -43 -106 -17 -18 19 0 5 17 2 5 16 6 vhcurveto
            48 21 57 32 65 hhcurveto
            141 1 -133 -51 hvcurveto
            -302 hlineto
            -22 -10 0 -27 -31 6 -73 50 -50 hvcurveto
            -36 37 53 -18 69 hhcurveto
            160 87 103 125 hvcurveto
            -128 -26 rmoveto
            -2 -39 -1 -42 -21 -33 rrcurveto
            -40 -26 -40 -12 -29 hhcurveto
            -117 -2 131 35 -1 hvcurveto
            endchar
          </CharString>
          <CharString index="81">
            351 67 callsubr
            220 36 hstem
            117 108 89 123 vstem
            437 613 rmoveto
            42 -36 45 -78 -98 -108 -42 -113 vhcurveto
            -101 -75 -47 75 39 callgsubr
            return
          </CharString>
          <CharString index="82">
            -20 hstemhm
            66 30 callgsubr
            hintmask 10011000
            -9 callgsubr
            hintmask 01100000
            return
          </CharString>
          <CharString index="83">
            147 142 return
          </CharString>
          <CharString index="84">
            329 rmoveto
            67 0 259 -237 -142 -99 -81 -134 -138 99 -75 123 35 47 7 70 38 vhcurveto
            -22 vlineto
            -73 -9 -59 -15 -34 vhcurveto
            -39 -17 -43 -45 -69 hhcurveto
            -18 -36 2 20 -30 hvcurveto
            12 3 37 14 45 vvcurveto
            34 -23 28 -39 -39 -24 -26 -38 -68 51 -57 111 130 157 84 256 vhcurveto
            -137 99 rmoveto
            -63 -26 -102 -84 -95 0 75 100 98 0 80 107 59 23 -53 -10 4 vhcurveto
            12 -33 0 -58 -34 vvcurveto
            endchar
          </CharString>
          <CharString index="85">
            -59 callsubr
            rlineto
            return
          </CharString>
          <CharString index="86">
            527 -39 callsubr
            -3 -35 -85 0 -39 hhcurveto
            -53 -98 0 3 -48 hvcurveto
            -47 141 -490 vlineto
            -19 0 -105 -99 -17 -33 3 14 -31 vhcurveto
            return
          </CharString>
          <CharString index="87">
            -592 -108 -47 return
          </CharString>
          <CharString index="88">
            885 -11 47 600 47 -44 47 return
          </CharString>
          <CharString index="89">
            -18 callgsubr
            -20 return
          </CharString>
          <CharString index="90">
            45 callsubr
            -47 55 return
          </CharString>
          <CharString index="91">
            607 -4 callsubr
            339 55 -44 47 195 47 -47 55 hstemhm
            106 108 189 108 hintmask 0010100010000000
            587 hmoveto
            47 -17 vlineto
            -43 -3 4 16 -13 hvcurveto
            -169 211 130 101 rlineto
            11 14 9 7 67 hhcurveto
            47 vlineto
            hintmask 0001000000000000
            -3 -27 -25 0 -26 hhcurveto
            hintmask 0000100000000000
            -115 3 rlineto
            -47 vlineto
            hintmask 0001001110000000
            23 3 -3 -8 8 hvcurveto
            -189 -149 rlineto
            457 vlineto
            return
          </CharString>
          <CharString index="92">
            786 0 47 255 41 296 80 callgsubr
            285 153 vstem
            721 491 rmoveto
            110 -99 85 -166 vhcurveto
            -417 -47 108 18 callsubr
            -62 callgsubr
            47 -108 255 177 vlineto
            139 116 72 117 hvcurveto
            -153 hmoveto
            -71 0 -77 -151 vhcurveto
            -134 296 135 hlineto
            150 0 -76 -72 hvcurveto
            endchar
          </CharString>
          <CharString index="93">
            -18 -16 -2 -21 -9 vvcurveto
            -44 35 -19 27 31 32 21 42 86 -116 6 -58 vhcurveto
            return
          </CharString>
          <CharString index="94">
            286 hmoveto
            47 -62 403 vlineto
            return
          </CharString>
          <CharString index="95">
            -40 callsubr
            312 53 30 53 return
          </CharString>
          <CharString index="96">
            35 38 -3 callsubr
            return
          </CharString>
          <CharString index="97">
            -177 613 rmoveto
            -100 callgsubr
            257 hmoveto
            -100 callgsubr
            return
          </CharString>
          <CharString index="98">
            -20 -17 callgsubr
            return
          </CharString>
          <CharString index="99">
            -102 callgsubr
            endchar
          </CharString>
          <CharString index="100">
            159 rmoveto
            -100 callgsubr
            303 hmoveto
            -100 callgsubr
            return
          </CharString>
          <CharString index="101">
            478 117 rmoveto
            14 -14 0 -10 -18 -1 -2 -13 -5 vhcurveto
            return
          </CharString>
          <CharString index="102">
            42 52 43 callsubr
            -25 vlineto
            return
          </CharString>
          <CharString index="103">
            -24 callgsubr
            33 47 return
          </CharString>
          <CharString index="104">
            -5 -30 -36 -87 0 -68 hvcurveto
            -24 -48 48 hlineto
            118 141 0 84 return
          </CharString>
          <CharString index="105">
            22 callsubr
            -486 403 rmoveto
            hintmask 0010011110000000
            -40 callgsubr
            endchar
          </CharString>
          <CharString index="106">
            26 17 rlineto
            -32 46 52 0 20 hhcurveto
            31 154 0 146 hvcurveto
            return
          </CharString>
          <CharString index="107">
            575 -6 81 callsubr
            return
          </CharString>
          <CharString index="108">
            319 365 117 callgsubr
            81 172 vstem
            253 15 callsubr
            endchar
          </CharString>
          <CharString index="109">
            -37 -40 -25 -52 -77 79 -48 114 134 96 57 104 hvcurveto
            489 vlineto
            return
          </CharString>
          <CharString index="110">
            82 -274 hlineto
            -107 87 -22 71 76 45 57 73 vhcurveto
            return
          </CharString>
          <CharString index="111">
            864 -11 42 626 40 return
          </CharString>
          <CharString index="112">
            -34 -23 37 40 15 hvcurveto
            6 19 12 16 15 11 rrcurveto
            146 13 75 96 114 vvcurveto
            -128 11 rmoveto
            -87 0 -108 -127 -127 0 108 87 45 0 51 17 34 vhcurveto
            37 19 42 21 49 hhcurveto
            42 42 -16 -35 22 hvcurveto
            21 -34 0 -55 -48 vvcurveto
            return
          </CharString>
          <CharString index="113">
            639 -6 82 callgsubr
            return
          </CharString>
          <CharString index="114">
            511 -200 48 71 48 hstemhm
            208 96 -23 128 hintmask 01100000
            409 -116 rmoveto
            50 -51 33 -54 vhcurveto
            38 -96 -86 vlineto
            hintmask 10010000
            -11 callsubr
            hvcurveto
            endchar
          </CharString>
          <CharString index="115">
            16 callgsubr
            -72 574 rmoveto
            20 -16 11 -14 vhcurveto
            return
          </CharString>
          <CharString index="116">
            -89 callsubr
            22 10 0 27 31 -6 73 -50 50 hvcurveto
            36 -37 -53 18 -69 hhcurveto
            -160 -87 -103 -125 return
          </CharString>
          <CharString index="117">
            -8 8 49 -54 89 hhcurveto
            149 103 90 139 hvcurveto
            -128 hmoveto
            -47 0 -55 -26 -39 vhcurveto
            -41 -29 -46 -11 -32 hhcurveto
            -70 -39 54 15 -10 hvcurveto
            251 vlineto
            35 27 48 29 55 hhcurveto
            122 0 -121 -70 hvcurveto
            endchar
          </CharString>
          <CharString index="118">
            0 -3 36 hvcurveto
            47 return
          </CharString>
          <CharString index="119">
            5 -3 6 -2 5 vhcurveto
            -11 34 -20 60 rlineto
            31 -10 -9 27 -45 hhcurveto
            -26 -5 -32 -21 -29 vvcurveto
            -5 vlineto
            -38 57 -41 17 -15 vhcurveto
            33 -30 rlineto
            -4 4 4 -5 5 hhcurveto
            1 hlineto
            8 28 21 4 1 hvcurveto
            return
          </CharString>
          <CharString index="120">
            hmoveto
            47 -140 390 vlineto
            14 -3 10 -21 -18 -7 -7 -5 -14 vhcurveto
            -30 -66 -70 -2 -70 hhcurveto
            -47 vlineto
            50 51 0 13 49 hvcurveto
            -336 -139 -47 vlineto
            hintmask 01000000
            203 4 rlineto
            hintmask 10000000
            endchar
          </CharString>
          <CharString index="121">
            hstemhm
            113 114 79 114 12 114 8 133 return
          </CharString>
          <CharString index="122">
            569 -50 callsubr
            return
          </CharString>
          <CharString index="123">
            51 -26 43 -43 -35 -23 -26 -32 vhcurveto
            hintmask 01100000
            -30 20 -29 39 24 15 13 2 2 vhcurveto
            -6 -82 -49 -39 -16 -14 rrcurveto
            -4 -4 -2 -2 -4 vvcurveto
            -8 8 -7 6 11 79 64 104 vhcurveto
            endchar
          </CharString>
          <CharString index="124">
            912 vlineto
            14 0 30 -30 -31 0 -29 -15 vhcurveto
            -912 26 callsubr
            return
          </CharString>
          <CharString index="125">
            -20 callsubr
            hlineto
            return
          </CharString>
          <CharString index="126">
            -200 156 return
          </CharString>
          <CharString index="127">
            -7 callsubr
            endchar
          </CharString>
          <CharString index="128">
            63 -21 165 -20 hstemhm
            return
          </CharString>
          <CharString index="129">
            -40 callgsubr
            -369 hmoveto
            -40 callgsubr
            return
          </CharString>
          <CharString index="130">
            -20 -10 -20 -11 -17 -14 -54 -44 rcurveline
            hintmask 10010000
            14 -17 rlineto
            41 49 53 30 51 hhcurveto
            40 29 -17 -20 35 hvcurveto
            -17 29 31 -17 40 hhcurveto
            hintmask 01000000
            25 26 8 10 22 hvcurveto
            return
          </CharString>
          <CharString index="131">
            hstemhm
            64 152 408 133 -112 153 return
          </CharString>
          <CharString index="132">
            140 117 140 return
          </CharString>
          <CharString index="133">
            vlineto
            -14 0 -30 30 31 0 29 15 vhcurveto
            return
          </CharString>
          <CharString index="134">
            hstemhm
            38 128 0 125 14 125 return
          </CharString>
          <CharString index="135">
            356 304 rmoveto
            28 -101 346 vlineto
            13 0 6 -19 -8 -1 0 -4 -7 vhcurveto
            return
          </CharString>
          <CharString index="136">
            98 45 96 86 58 55 -21 -37 30 vhcurveto
            -32 -4 -24 -26 -33 vvcurveto
            -35 28 -28 35 34 29 28 35 102 -103 67 -110 -134 -111 -107 -135 return
          </CharString>
          <CharString index="137">
            223 407 -99 callgsubr
            return
          </CharString>
          <CharString index="138">
            -15 -7 -9 -10 -8 hvcurveto
            -52 -44 -65 -35 -88 hhcurveto
            -116 -80 58 22 -30 hvcurveto
            return
          </CharString>
          <CharString index="139">
            47 193 47 374 47 return
          </CharString>
          <CharString index="140">
            54 callgsubr
            hstem
            return
          </CharString>
          <CharString index="141">
            -66 callsubr
            87 49 62 34 22 -20 -77 vhcurveto
            -270 -59 callsubr
            return
          </CharString>
          <CharString index="142">
            27 callsubr
            -90 125 return
          </CharString>
          <CharString index="143">
            116 callsubr
            239 47 return
          </CharString>
          <CharString index="144">
            19 callsubr
            44 47 return
          </CharString>
          <CharString index="145">
            -2 vhcurveto
            -2 -15 -1 0 -17 hhcurveto
            -15 -28 hlineto
            2 23 34 0 24 hhcurveto
            25 31 0 -2 25 hvcurveto
            28 -15 vlineto
            -11 -10 1 1 -11 hvcurveto
            return
          </CharString>
          <CharString index="146">
            hlineto
            -13 -11 -11 -13 -13 11 -11 13 hvcurveto
            return
          </CharString>
          <CharString index="147">
            rmoveto
            -14 17 rlineto
            -41 -49 -53 -30 -51 hhcurveto
            -40 -29 17 20 -35 hvcurveto
            17 -29 -31 17 -40 hhcurveto
            hintmask 00100000
            -25 -26 -8 -10 -22 hvcurveto
            return
          </CharString>
          <CharString index="148">
            -19 -19 vvcurveto
            -43 35 -19 26 30 32 21 41 vhcurveto
            return
          </CharString>
          <CharString index="149">
            47 hstemhm
            147 136 return
          </CharString>
          <CharString index="150">
            38 callgsubr
            47 return
          </CharString>
          <CharString index="151">
            607 -200 36 561 47 return
          </CharString>
          <CharString index="152">
            47 348 47 return
          </CharString>
          <CharString index="153">
            -56 36 331 36 0 36 225 36 51 36 -17 36 hstemhm
            return
          </CharString>
          <CharString index="154">
            47 -47 55 hstemhm
            38 128 252 114 return
          </CharString>
          <CharString index="155">
            511 -6 40 379 40 return
          </CharString>
          <CharString index="156">
            -39 callgsubr
            hlineto
            3 38 101 0 44 hhcurveto
            49 109 72 callgsubr
            return
          </CharString>
          <CharString index="157">
            hlineto
            -78 -252 rlineto
            -2 -6 -2 -6 -8 vvcurveto
            -15 12 -15 19 21 5 16 12 4 vhcurveto
            85 274 rlineto
            return
          </CharString>
          <CharString index="158">
            -18 -13 -19 -5 -14 hhcurveto
            -48 -41 78 53 74 hvcurveto
            90 28 30 73 13 vvcurveto
            -95 134 rmoveto
            -239 hlineto
            return
          </CharString>
          <CharString index="159">
            869 -200 156 44 73 callgsubr
            return
          </CharString>
          <CharString index="160">
            19 callsubr
            38 return
          </CharString>
          <CharString index="161">
            hstem
            316 54 130 54 vstem
            500 return
          </CharString>
          <CharString index="162">
            55 -33 callgsubr
            return
          </CharString>
          <CharString index="163">
            686 0 60 566 60 hstem
            0 60 return
          </CharString>
          <CharString index="164">
            vstem
            599 229 rmoveto
            84 -68 68 -84 -84 -68 -68 -84 -84 68 -68 84 84 68 68 84 vhcurveto
            return
          </CharString>
          <CharString index="165">
            hmoveto
            47 vlineto
            -62 -7 0 39 hvcurveto
            return
          </CharString>
          <CharString index="166">
            344 156 194 -20 hstem
            return
          </CharString>
          <CharString index="167">
            383 174 97 hstem
            39 305 vstem
            344 174 45 callgsubr
          </CharString>
          <CharString index="168">
            122 callgsubr
            vhcurveto
            hintmask 10000100
            -43 -35 -35 -43 -43 35 -35 43 43 35 35 43 hvcurveto
            return
          </CharString>
          <CharString index="169">
            hlineto
            92 -237 rlineto
            -16 6 4 -10 25 hhcurveto
            25 4 10 16 6 hvcurveto
            92 237 rlineto
            return
          </CharString>
          <CharString index="170">
            639 0 93 callgsubr
            return
          </CharString>
          <CharString index="171">
            55 callgsubr
            142 return
          </CharString>
          <CharString index="172">
            156 hstem
            82 156 vstem
            238 return
          </CharString>
          <CharString index="173">
            4 callsubr
            62 -21 return
          </CharString>
          <CharString index="174">
            0 47 350 47 return
          </CharString>
          <CharString index="175">
            575 -250 36 446 36 446 36 hstem
            232 111 cntrmask 11100000
            496 return
          </CharString>
          <CharString index="176">
            hstemhm
            32 128 24 95 -93 156 57 95 return
          </CharString>
          <CharString index="177">
            569 735 rlineto
            7 9 4 5 10 vvcurveto
            return
          </CharString>
          <CharString index="178">
            703 0 51 588 47 return
          </CharString>
          <CharString index="179">
            831 17 -21 401 47 return
          </CharString>
          <CharString index="180">
            524 131 callgsubr
            hstem
            return
          </CharString>
          <CharString index="181">
            -108 -47 vlineto
            3 return
          </CharString>
          <CharString index="182">
            hstemhm
            27 117 return
          </CharString>
          <CharString index="183">
            hmoveto
            47 -69 647 vlineto
            -1 -9 -55 -4 -4 hhcurveto
            -7 -1 0 2 -6 hvcurveto
            return
          </CharString>
          <CharString index="184">
            hstemhm
            82 156 -122 108 return
          </CharString>
          <CharString index="185">
            47 -44 47 586 47 -44 47 return
          </CharString>
          <CharString index="186">
            80 54 callgsubr
            hstemhm
            return
          </CharString>
          <CharString index="187">
            47 hstem
            -24 callsubr
            return
          </CharString>
          <CharString index="188">
            40 383 36 return
          </CharString>
          <CharString index="189">
            600 223 rmoveto
            133 -94 94 -145 -73 -50 -29 -20 -24 vhcurveto
            return
          </CharString>
          <CharString index="190">
            rlineto
            6 4 3 7 7 vvcurveto
            13 -11 11 -13 -6 -5 -2 -3 -4 vhcurveto
            return
          </CharString>
          <CharString index="191">
            -31 -80 rlineto
            -94 hlineto
            -31 80 rlineto
            107 -128 rmoveto
            -29 -74 -29 74 rlineto
            return
          </CharString>
          <CharString index="192">
            80 callsubr
            321 142 vstem
            860 hmoveto
            47 -108 return
          </CharString>
          <CharString index="193">
            hstemhm
            36 callsubr
            return
          </CharString>
          <CharString index="194">
            14 21 27 7 26 hhcurveto
            62 33 -41 -45 -41 -27 -41 -51 -43 hvcurveto
            return
          </CharString>
          <CharString index="195">
            hlineto
            -6 -5 -4 -6 -2 hvcurveto
            -7 -20 rlineto
            -9 -2 6 -9 10 hhcurveto
            return
          </CharString>
          <CharString index="196">
            558 397 rmoveto
            23 -17 35 -46 -15 -47 -3 -35 -44 vhcurveto
            return
          </CharString>
          <CharString index="197">
            hstemhm
            106 114 0 128 -113 114 123 128 return
          </CharString>
          <CharString index="198">
            0 78 callsubr
            return
          </CharString>
          <CharString index="199">
            -14 -29 0 -31 -30 30 0 13 hvcurveto
            return
          </CharString>
          <CharString index="200">
            hmoveto
            47 -108 592 108 47 return
          </CharString>
          <CharString index="201">
            125 -20 hstemhm
            32 128 return
          </CharString>
          <CharString index="202">
            800 0 47 581 47 return
          </CharString>
          <CharString index="203">
            103 callgsubr
            259 47 return
          </CharString>
          <CharString index="204">
            153 134 136 return
          </CharString>
          <CharString index="205">
            139 -94 139 -44 137 0 137 hintmask 0001111001000000
            return
          </CharString>
          <CharString index="206">
            hvcurveto
            -144 -318 -144 318 rlineto
            15 -7 -6 0 return
          </CharString>
          <CharString index="207">
            -11 43 310 124 -84 36 48 124 26 39 hstemhm
            return
          </CharString>
          <CharString index="208">
            24 6 0 -35 hvcurveto
            -315 120 callsubr
            return
          </CharString>
          <CharString index="209">
            2 22 56 0 24 hhcurveto
            25 56 0 -2 22 hvcurveto
            endchar
          </CharString>
          <CharString index="210">
            138 6 138 3 144 -107 138 hintmask 10011100
            return
          </CharString>
          <CharString index="211">
            4 6 2 hvcurveto
            7 24 rlineto
            7 2 -7 7 -9 hhcurveto
            return
          </CharString>
          <CharString index="212">
            639 -194 47 141 36 return
          </CharString>
          <CharString index="213">
            140 10 142 11 140 return
          </CharString>
          <CharString index="214">
            575 507 -21 return
          </CharString>
          <CharString index="215">
            -26 40 -40 -45 -22 return
          </CharString>
          <CharString index="216">
            86 -54 75 44 86 134 75 -54 86 hintmask 00101010
            return
          </CharString>
          <CharString index="217">
            vlineto
            -177 -90 callsubr
            return
          </CharString>
          <CharString index="218">
            -205 43 109 39 150 39 247 39 return
          </CharString>
          <CharString index="219">
            hstemhm
            64 153 137 156 136 153 return
          </CharString>
          <CharString index="220">
            -194 47 -44 44 147 47 441 -20 hstemhm
            return
          </CharString>
          <CharString index="221">
            6 callgsubr
            69 -21 return
          </CharString>
          <CharString index="222">
            -12 -6 -38 -10 -4 rrcurveto
            -4 -8 -54 0 -12 hhcurveto
            return
          </CharString>
          <CharString index="223">
            42 47 240 142 return
          </CharString>
          <CharString index="224">
            52 -40 callsubr
            return
          </CharString>
          <CharString index="225">
            136 188 125 -107 136 hintmask 01011100
            return
          </CharString>
          <CharString index="226">
            -11 43 350 36 48 189 -39 39 hstemhm
            return
          </CharString>
          <CharString index="227">
            -69 -47 vlineto
            123 3 rlineto
            return
          </CharString>
          <CharString index="228">
            52 -21 165 -20 hstemhm
            64 return
          </CharString>
          <CharString index="229">
            hvcurveto
            -95 134 rmoveto
            return
          </CharString>
          <CharString index="230">
            900 0 96 callsubr
            return
          </CharString>
          <CharString index="231">
            0 125 304 141 38 47 hstemhm
            return
          </CharString>
          <CharString index="232">
            -20 hstemhm
            56 111 88 88 111 88 return
          </CharString>
          <CharString index="233">
            hstemhm
            32 128 24 95 0 95 25 95 return
          </CharString>
          <CharString index="234">
            hlineto
            -12 -29 0 -30 -31 31 0 15 hvcurveto
            return
          </CharString>
          <CharString index="235">
            73 -21 171 -20 -40 callsubr
            return
          </CharString>
          <CharString index="236">
            894 -65 -21 673 -20 hstem
            797 return
          </CharString>
          <CharString index="237">
            29 -20 27 -37 -21 -24 -9 -10 -20 vhcurveto
            return
          </CharString>
          <CharString index="238">
            -21 125 62 return
          </CharString>
        <CharString name=".notdef">
          280 endchar
        </CharString>
        <CharString name="A">
          -18 callsubr
          hstem
          -106 callgsubr
          endchar
        </CharString>
        <CharString name="AE">
          -52 callsubr
        </CharString>
        <CharString name="AE.dup">
          -52 callsubr
        </CharString>
        <CharString name="AEacute">
          1042 0 47 -44 47 256 103 callgsubr
          73 -21 171 -20 hstemhm
          482 132 170 47 0 132 -33 47 -15 47 hintmask 1011001100100000
          1009 274 rmoveto
          -47 hlineto
          -133 -22 -22 -94 -176 hhcurveto
          -128 259 63 hlineto
          97 10 -43 -74 hvcurveto
          47 281 -47 hlineto
          -73 -9 -44 -98 vhcurveto
          -63 286 124 hlineto
          hintmask 0101000001000000
          158 19 -77 -117 15 hvcurveto
          47 hlineto
          -31 241 rlineto
          -636 -47 78 hlineto
          -240 -568 -8 -17 -1 -1 -26 -3 rlinecurve
          hintmask 1000000000000000
          -3 -25 -4 0 -22 hhcurveto
          -21 -47 hlineto
          hintmask 0100000000000000
          118 3 rlineto
          hintmask 1010001010000000
          38 56 0 -3 37 hvcurveto
          47 vlineto
          -26 -36 0 11 -27 hvcurveto
          104 248 rlineto
          177 -259 -81 -47 562 hlineto
          hintmask 0011001000100000
          -481 353 rmoveto
          -157 hlineto
          120 286 rlineto
          37 hlineto
          hintmask 0000110000000000
          194 198 -105 callsubr
        </CharString>
        <CharString name="Aacute">
          -18 callsubr
          81 -21 171 -100 callsubr
          201 319 -105 callsubr
        </CharString>
        <CharString name="Abreve">
          -18 callsubr
          60 62 125 -100 callsubr
          30 callsubr
          endchar
        </CharString>
        <CharString name="Abreveacute">
          -18 callsubr
          60 62 331 -100 callsubr
          30 callsubr
          -61 134 -105 callsubr
        </CharString>
        <CharString name="Abrevedotbelow">
          52 callsubr
          60 123 callgsubr
          hstemhm
          357 156 hintmask 01111100
          -106 callgsubr
          30 callsubr
          hintmask 10000010
          -99 -1047 rmoveto
          -8 callsubr
        </CharString>
        <CharString name="Abrevegrave">
          -18 callsubr
          60 62 125 -100 callsubr
          223 407 -37 callgsubr
        </CharString>
        <CharString name="Abrevehookabove">
          -18 callsubr
          60 62 333 -100 callsubr
          30 callsubr
          -65 145 -107 callsubr
        </CharString>
        <CharString name="Abrevetilde">
          869 980 97 callgsubr
          cntrmask 11100000
          -106 callgsubr
          hintmask 11100000
          30 callsubr
          14 138 -107 callgsubr
        </CharString>
        <CharString name="Acaron">
          -18 callsubr
          71 -21 165 -74 callsubr
          351 -68 callsubr
        </CharString>
        <CharString name="Acircumflex">
          -18 callsubr
          71 -21 165 -74 callsubr
          234 -60 callsubr
        </CharString>
        <CharString name="Acircumflexacute">
          -18 callsubr
          71 -21 371 -74 callsubr
          234 -93 callsubr
          -43 299 -105 callsubr
        </CharString>
        <CharString name="Acircumflexdotbelow">
          52 callsubr
          71 -21 165 -20 hstemhm
          357 156 hintmask 01111100
          -106 callgsubr
          221 234 -93 callsubr
          hintmask 10000010
          -81 -850 rmoveto
          -8 callsubr
        </CharString>
        <CharString name="Acircumflexgrave">
          -18 callsubr
          71 -21 165 -74 callsubr
          234 -79 callgsubr
        </CharString>
        <CharString name="Acircumflexhookabove">
          -18 callsubr
          71 -21 373 -74 callsubr
          234 -93 callsubr
          64 310 -107 callsubr
        </CharString>
        <CharString name="Acircumflextilde">
          869 948 97 callgsubr
          cntrmask 11100000
          -106 callgsubr
          hintmask 11100000
          221 234 -93 callsubr
          32 303 -107 callgsubr
        </CharString>
        <CharString name="Adblgrave">
          -18 callsubr
          81 -21 195 -100 callsubr
          161 244 -95 callgsubr
        </CharString>
        <CharString name="Adieresis">
          -18 callsubr
          50 140 hstemhm
          213 30 callgsubr
          hintmask 11100000
          -106 callgsubr
          hintmask 00011100
          -36 280 -80 callsubr
        </CharString>
        <CharString name="Adotbelow">
          52 callsubr
          hstemhm
          357 156 hintmask 01110000
          -106 callgsubr
          hintmask 10001000
          124 -640 rmoveto
          -8 callsubr
        </CharString>
        <CharString name="Agrave">
          -18 callsubr
          81 -21 171 -100 callsubr
          123 262 -80 callgsubr
        </CharString>
        <CharString name="Ahookabove">
          -18 callsubr
          82 -21 193 -100 callsubr
          157 351 -107 callsubr
        </CharString>
        <CharString name="Alpha">
          -18 callsubr
          hstem
          -106 callgsubr
          endchar
        </CharString>
        <CharString name="Amacron">
          -18 callsubr
          70 52 -101 callsubr
          hintmask 00010000
          253 230 -38 callgsubr
        </CharString>
        <CharString name="Aogonek">
          869 -206 78 128 73 callgsubr
          hstem
          827 hmoveto
          47 -97 vlineto
          -256 625 rlineto
          26 -11 -12 0 -17 hhcurveto
          -28 -4 -8 -18 -7 hvcurveto
          -248 -602 rlineto
          -15 -6 -3 -8 -76 hhcurveto
          -21 -47 hlineto
          117 3 rlineto
          39 56 0 -3 37 hvcurveto
          47 vlineto
          0 -89 0 13 vvcurveto
          4 12 50 121 rlineto
          268 hlineto
          60 -146 rlineto
          -95 -47 hlineto
          2 27 67 1 46 hhcurveto
          -35 -29 -18 -35 -39 -63 callgsubr
          -48 -42 78 53 74 hvcurveto
          44 52 -1 -2 28 hvcurveto
          -324 240 rmoveto
          -228 hlineto
          114 278 rlineto
          endchar
        </CharString>
        <CharString name="Aogonekacute">
          869 -206 78 128 73 callgsubr
          81 -21 171 -20 hstemhm
          hintmask 11110000
          827 hmoveto
          47 -97 vlineto
          -256 625 rlineto
          26 -11 -12 0 -17 hhcurveto
          -28 -4 -8 -18 -7 hvcurveto
          -248 -602 rlineto
          -15 -6 -3 -8 -76 hhcurveto
          -21 -47 hlineto
          117 3 rlineto
          39 56 0 -3 37 hvcurveto
          47 vlineto
          0 -89 0 13 vvcurveto
          4 12 50 121 rlineto
          268 hlineto
          60 -146 rlineto
          -95 -47 hlineto
          2 27 67 1 46 hhcurveto
          -35 -29 -18 -35 -39 -63 callgsubr
          -48 -42 78 53 74 hvcurveto
          44 52 -1 -2 28 hvcurveto
          -324 240 rmoveto
          -228 hlineto
          114 278 rlineto
          hintmask 00001100
          201 319 -105 callsubr
        </CharString>
        <CharString name="Aring">
          -18 callgsubr
          41 86 41 hstemhm
          316 54 130 54 hintmask 11100000
          -106 callgsubr
          hintmask 00111100
          111 264 -63 callsubr
        </CharString>
        <CharString name="Aringacute">
          -18 callgsubr
          41 86 41 206 -20 hstemhm
          316 54 130 54 hintmask 11100000
          -106 callgsubr
          hintmask 00111110
          111 264 -82 callsubr
          -3 219 -105 callsubr
        </CharString>
        <CharString name="Atilde">
          869 58 callgsubr
          cntrmask 11100000
          -106 callgsubr
          hintmask 11100000
          237 293 -107 callgsubr
        </CharString>
        <CharString name="B">
          -31 callgsubr
        </CharString>
        <CharString name="Beta">
          -31 callgsubr
        </CharString>
        <CharString name="C">
          48 callgsubr
          132 callgsubr
          500 49 vstem
          -86 callgsubr
          -205 153 -149 249 187 113 123 115 hvcurveto
          endchar
        </CharString>
        <CharString name="Cacute">
          48 callgsubr
          62 -21 171 -20 hstemhm
          64 153 500 49 hintmask 11001100
          -86 callgsubr
          -205 153 -149 249 187 113 123 115 hvcurveto
          hintmask 00110000
          -153 610 -105 callsubr
        </CharString>
        <CharString name="Ccaron">
          48 callgsubr
          92 callgsubr
          500 49 hintmask 11001100
          -86 callgsubr
          -205 153 -149 249 187 113 123 115 hvcurveto
          hintmask 00110000
          -133 642 -68 callsubr
        </CharString>
        <CharString name="Ccedilla">
          48 callgsubr
          132 callgsubr
          500 49 vstem
          -86 callgsubr
          -189 130 -141 215 -21 hvcurveto
          -73 vlineto
          -11 callsubr
          50 -51 33 -54 hvcurveto
          24 vlineto
          164 15 97 114 107 vvcurveto
          endchar
        </CharString>
        <CharString name="Ccircumflex">
          48 callgsubr
          92 callgsubr
          500 49 hintmask 11001100
          -86 callgsubr
          -205 153 -149 249 187 113 123 115 hvcurveto
          hintmask 00110000
          -133 525 -60 callsubr
        </CharString>
        <CharString name="Cdotaccent">
          48 callgsubr
          42 156 hstemhm
          64 153 162 156 182 49 hintmask 11010100
          -86 callgsubr
          -205 153 -149 249 187 113 123 115 hvcurveto
          hintmask 00101000
          -231 590 rmoveto
          -8 callsubr
        </CharString>
        <CharString name="Chi">
          -57 callsubr
        </CharString>
        <CharString name="D">
          882 0 47 592 80 callgsubr
          387 147 vstem
          -60 callgsubr
          endchar
        </CharString>
        <CharString name="Dcaron">
          882 0 47 592 47 21 callsubr
          147 136 387 147 hintmask 11001100
          -60 callgsubr
          hintmask 00110000
          -138 531 -68 callsubr
        </CharString>
        <CharString name="Dcroat">
          -25 callgsubr
        </CharString>
        <CharString name="Ddotbelow">
          882 37 callsubr
          592 42 callsubr
          -5 156 236 147 hintmask 01110100
          -60 callgsubr
          hintmask 10001000
          -236 -460 rmoveto
          -8 callsubr
        </CharString>
        <CharString name="Delta">
          958 0 121 577 -20 hstem
          57 843 vstem
          900 12 rmoveto
          0 0 4 -7 11 vhcurveto
          -369 646 rlineto
          25 -14 -14 0 -17 hhcurveto
          -19 -13 0 -25 -14 hvcurveto
          -369 -646 rlineto
          -7 -11 0 -4 0 vvcurveto
          -12 10 0 16 vhcurveto
          791 hlineto
          16 10 0 12 hvcurveto
          -224 109 rmoveto
          -498 hlineto
          249 434 rlineto
          endchar
        </CharString>
        <CharString name="Dlinebelow">
          882 -148 52 96 47 592 42 callsubr
          387 147 hintmask 01111000
          -60 callgsubr
          hintmask 10000000
          -106 -486 -38 callgsubr
        </CharString>
        <CharString name="E">
          6 callgsubr
          hstemhm
          147 142 161 47 147 47 -15 47 hintmask 11111010
          -93 callgsubr
          hintmask 10110100
          161 26 -73 -121 16 hvcurveto
          47 hlineto
          -31 241 rlineto
          -621 -39 callgsubr
          638 hlineto
          hintmask 00000010
          endchar
        </CharString>
        <CharString name="Eacute">
          6 callgsubr
          79 -21 171 -94 callgsubr
          -144 837 -105 callsubr
        </CharString>
        <CharString name="Ebreve">
          6 callgsubr
          58 62 125 -94 callgsubr
          -122 925 -99 callgsubr
          endchar
        </CharString>
        <CharString name="Ecaron">
          114 callsubr
          165 -94 callgsubr
          -124 869 -68 callsubr
        </CharString>
        <CharString name="Ecircumflex">
          114 callsubr
          165 -94 callgsubr
          -124 61 callgsubr
        </CharString>
        <CharString name="Ecircumflexacute">
          114 callsubr
          371 -94 callgsubr
          -124 752 -93 callsubr
          -43 299 -105 callsubr
        </CharString>
        <CharString name="Ecircumflexdotbelow">
          756 -200 156 44 7 callgsubr
          69 -21 165 -20 -40 callsubr
          11 156 -6 47 147 47 -15 47 hintmask 0111001010100000
          -93 callgsubr
          hintmask 0101001001000000
          161 26 -73 -121 16 hvcurveto
          47 hlineto
          -31 241 rlineto
          -621 -39 callgsubr
          638 hlineto
          hintmask 0000110000100000
          -124 752 -93 callsubr
          hintmask 1000000100000000
          -81 -850 rmoveto
          -8 callsubr
        </CharString>
        <CharString name="Ecircumflexgrave">
          114 callsubr
          165 -94 callgsubr
          -124 752 -79 callgsubr
        </CharString>
        <CharString name="Ecircumflexhookabove">
          114 callsubr
          373 -94 callgsubr
          -124 752 -93 callsubr
          64 310 -107 callsubr
        </CharString>
        <CharString name="Ecircumflextilde">
          756 948 97 callgsubr
          147 142 161 47 147 47 -15 47 cntrmask 11100000
          hintmask 11111010
          -93 callgsubr
          hintmask 11110100
          161 26 -73 -121 16 hvcurveto
          47 hlineto
          -31 241 rlineto
          -621 -39 callgsubr
          638 hlineto
          hintmask 11100010
          hintmask 11110000
          -124 752 -93 callsubr
          32 303 -107 callgsubr
        </CharString>
        <CharString name="Edblgrave">
          6 callgsubr
          79 -21 195 -94 callgsubr
          -152 762 -95 callgsubr
        </CharString>
        <CharString name="Edieresis">
          6 callgsubr
          48 140 -40 callsubr
          -133 140 154 47 -38 140 45 47 -15 47 hintmask 1110101001000000
          -93 callgsubr
          hintmask 1010100010000000
          161 26 -73 -121 16 hvcurveto
          47 hlineto
          -31 241 rlineto
          -621 -39 callgsubr
          638 hlineto
          hintmask 0000000001000000
          hintmask 0001010100000000
          -381 798 -80 callsubr
        </CharString>
        <CharString name="Edotaccent">
          6 callgsubr
          59 156 -40 callsubr
          11 156 -6 47 147 47 -15 47 hintmask 1110101010000000
          -93 callgsubr
          hintmask 1010100100000000
          161 26 -73 -121 16 hvcurveto
          47 hlineto
          -31 241 rlineto
          -621 -39 callgsubr
          638 hlineto
          hintmask 0000000010000000
          hintmask 0001010000000000
          -221 817 rmoveto
          -8 callsubr
        </CharString>
        <CharString name="Edotbelow">
          756 -200 156 44 7 callgsubr
          hstemhm
          147 142 11 156 -6 47 147 47 -15 47 hintmask 0111101010000000
          -93 callgsubr
          hintmask 0101100100000000
          161 26 -73 -121 16 hvcurveto
          47 hlineto
          -31 241 rlineto
          -621 -39 callgsubr
          638 hlineto
          hintmask 0000000010000000
          hintmask 1000010000000000
          -221 -122 rmoveto
          -8 callsubr
        </CharString>
        <CharString name="Egrave">
          6 callgsubr
          79 -21 171 -94 callgsubr
          -222 780 -80 callgsubr
        </CharString>
        <CharString name="Ehookabove">
          6 callgsubr
          80 -21 193 -94 callgsubr
          -188 869 -107 callsubr
        </CharString>
        <CharString name="Emacron">
          6 callgsubr
          68 117 callsubr
          161 47 147 47 -15 47 hintmask 11101101
          -93 callgsubr
          hintmask 10101010
          161 26 -73 -121 16 hvcurveto
          47 hlineto
          -31 241 rlineto
          -621 -39 callgsubr
          638 hlineto
          hintmask 00000001
          hintmask 00010000
          -92 748 -38 callgsubr
        </CharString>
        <CharString name="Eng">
          900 -11 126 534 48 hstem
          -24 callsubr
          393 152 vstem
          834 343 rmoveto
          193 -149 161 -190 -77 -74 -23 -41 -55 vhcurveto
          53 vlineto
          -2 -24 -23 -1 -24 hhcurveto
          -46 -98 0 3 -41 hvcurveto
          -47 114 -592 -114 -47 vlineto
          3 41 98 0 46 hhcurveto
          46 98 43 callsubr
          -114 526 vlineto
          49 48 78 27 80 hhcurveto
          132 55 -155 -151 -93 0 -109 -26 -60 hvcurveto
          20 -11 -21 14 -24 hhcurveto
          -35 -28 -28 -35 -35 28 -28 35 157 77 177 177 hvcurveto
          endchar
        </CharString>
        <CharString name="Eogonek">
          756 -206 78 128 7 callgsubr
          hstemhm
          147 142 161 47 147 47 -15 47 hintmask 01111101
          -93 callgsubr
          hintmask 11011010
          161 26 -73 -121 16 hvcurveto
          47 hlineto
          -31 241 rlineto
          -621 -39 callgsubr
          484 hlineto
          -35 -29 -23 -32 -39 -63 callgsubr
          -48 -32 75 53 74 hvcurveto
          74 hlineto
          hintmask 00000001
          endchar
        </CharString>
        <CharString name="Eogonekacute">
          756 -206 78 128 7 callgsubr
          79 -21 171 -20 -40 callsubr
          161 47 147 47 -15 47 hintmask 0111001101000000
          -93 callgsubr
          hintmask 1101001010000000
          161 26 -73 -121 16 hvcurveto
          47 hlineto
          -31 241 rlineto
          -621 -39 callgsubr
          484 hlineto
          -35 -29 -23 -32 -39 -63 callgsubr
          -48 -32 75 53 74 hvcurveto
          74 hlineto
          hintmask 0000000001000000
          hintmask 0000110000000000
          -144 837 -105 callsubr
        </CharString>
        <CharString name="Epsilon">
          6 callgsubr
          hstemhm
          147 142 161 47 147 47 -15 47 hintmask 11111010
          -93 callgsubr
          hintmask 10110100
          161 26 -73 -121 16 hvcurveto
          47 hlineto
          -31 241 rlineto
          -621 -39 callgsubr
          638 hlineto
          hintmask 00000010
          endchar
        </CharString>
        <CharString name="Ereversed">
          6 callgsubr
          hstemhm
          39 47 -15 47 147 47 161 142 hintmask 11101110
          723 hmoveto
          47 -108 586 108 47 -621 vlineto
          -31 -241 rlineto
          47 hlineto
          121 16 26 73 161 hhcurveto
          152 -257 -55 hlineto
          -97 -9 43 74 hvcurveto
          -47 -281 47 hlineto
          74 10 43 96 vhcurveto
          55 -282 -152 hlineto
          hintmask 10010000
          -185 -28 89 138 -22 hvcurveto
          -47 hlineto
          46 -274 rlineto
          endchar
        </CharString>
        <CharString name="Eta">
          900 0 47 286 47 259 47 hstem
          147 142 321 142 vstem
          -89 callgsubr
          endchar
        </CharString>
        <CharString name="Eth">
          -25 callgsubr
        </CharString>
        <CharString name="Etilde">
          756 64 callsubr
          161 47 147 47 -15 47 cntrmask 11100000
          hintmask 11111010
          -93 callgsubr
          hintmask 11110100
          161 26 -73 -121 16 hvcurveto
          47 hlineto
          -31 241 rlineto
          -621 -39 callgsubr
          638 hlineto
          hintmask 11100010
          hintmask 11110000
          -108 811 -107 callgsubr
        </CharString>
        <CharString name="Euro">
          720 -11 48 216 48 84 48 216 48 hstem
          128 152 vstem
          656 3 rmoveto
          137 vlineto
          8 -6 6 -8 vhcurveto
          -24 hlineto
          -7 -6 -5 -7 -1 hvcurveto
          -60 -8 -52 -45 -60 hhcurveto
          -63 -61 27 52 -35 hvcurveto
          -28 41 -10 47 -4 49 rrcurveto
          244 hlineto
          7 5 104 callsubr
          -254 42 hlineto
          42 289 vlineto
          6 6 104 callsubr
          -293 hlineto
          4 49 10 47 28 41 rrcurveto
          52 35 61 27 63 hhcurveto
          60 52 -45 -60 8 hvcurveto
          -7 1 6 -5 7 hhcurveto
          24 hlineto
          8 6 6 8 hvcurveto
          137 vlineto
          8 -6 6 -8 vhcurveto
          -7 hlineto
          -3 -3 -1 -1 -2 hvcurveto
          -48 -31 rlineto
          21 -34 -41 12 -43 hhcurveto
          -91 -89 -31 -66 -62 hvcurveto
          -44 -47 -26 -58 -12 -62 rrcurveto
          -56 88 callsubr
          55 hlineto
          -1 -14 -1 -14 -14 vvcurveto
          -14 1 -14 1 -14 vhcurveto
          -49 88 callsubr
          62 hlineto
          12 -62 26 -58 44 -47 rrcurveto
          -66 62 89 -31 91 hhcurveto
          43 41 12 21 34 hvcurveto
          48 -31 rlineto
          -1 2 3 -1 3 hhcurveto
          7 hlineto
          8 6 6 8 hvcurveto
          endchar
        </CharString>
        <CharString name="F">
          724 0 47 270 47 269 80 callsubr
          155 47 137 47 vstem
          675 439 rmoveto
          -31 241 rlineto
          -605 49 callsubr
          270 50 vlineto
          96 9 -43 -74 hvcurveto
          47 281 -47 hlineto
          -74 -8 -43 -97 vhcurveto
          -50 269 140 hlineto
          161 23 -77 -117 15 hvcurveto
          endchar
        </CharString>
        <CharString name="G">
          26 callgsubr
          132 callgsubr
          406 142 vstem
          -96 callgsubr
          endchar
        </CharString>
        <CharString name="Gacute">
          26 callgsubr
          62 -21 171 -20 hstemhm
          64 153 406 142 hintmask 11100110
          -96 callgsubr
          hintmask 00011000
          -157 608 -105 callsubr
        </CharString>
        <CharString name="Gamma">
          692 0 47 586 80 callsubr
          307 47 vstem
          643 439 rmoveto
          -31 241 rlineto
          -573 49 callsubr
          586 116 vlineto
          157 19 -77 -117 15 hvcurveto
          endchar
        </CharString>
        <CharString name="Gbreve">
          26 callgsubr
          41 123 callgsubr
          hstemhm
          64 153 406 142 hintmask 11100110
          -96 callgsubr
          hintmask 00011000
          -135 696 -99 callgsubr
          endchar
        </CharString>
        <CharString name="Gcaron">
          26 callgsubr
          92 callgsubr
          406 142 hintmask 11100110
          -96 callgsubr
          hintmask 00011000
          -137 640 -68 callsubr
        </CharString>
        <CharString name="Gcedilla">
          904 -24 callgsubr
          22 32 callsubr
          132 callgsubr
          406 142 vstem
          -96 callgsubr
          -249 -356 -98 callsubr
        </CharString>
        <CharString name="Gcircumflex">
          26 callgsubr
          92 callgsubr
          406 142 hintmask 11100110
          -96 callgsubr
          hintmask 00011000
          -137 523 -60 callsubr
        </CharString>
        <CharString name="Gcommaaccent">
          904 -24 callgsubr
          22 32 callsubr
          hstemhm
          64 153 406 142 hintmask 00111110
          -96 callgsubr
          hintmask 11000000
          -249 -356 -98 callsubr
        </CharString>
        <CharString name="Gdotaccent">
          26 callgsubr
          42 156 hstemhm
          64 153 157 156 93 142 hintmask 11101010
          -96 callgsubr
          hintmask 00010100
          -235 588 rmoveto
          -8 callsubr
        </CharString>
        <CharString name="H">
          900 0 47 286 47 259 47 hstem
          147 142 321 142 vstem
          -89 callgsubr
          endchar
        </CharString>
        <CharString name="H_uni0303">
          900 64 callsubr
          321 142 cntrmask 11100000
          -89 callgsubr
          hintmask 11100000
          -218 811 -107 callgsubr
        </CharString>
        <CharString name="Hbar">
          900 0 103 callgsubr
          111 48 100 85 callsubr
          444 108 48 -108 100 -76 callsubr
          -100 -321 100 -76 callsubr
          -100 -108 -48 108 -444 -59 callgsubr
          286 321 -286 -71 callgsubr
          -250 380 rmoveto
          -321 111 321 hlineto
          endchar
        </CharString>
        <CharString name="Hbrevebelow">
          900 -215 123 callgsubr
          48 96 callsubr
          hstemhm
          147 142 321 142 hintmask 00111110
          -89 callgsubr
          hintmask 11000000
          -232 -28 -99 callgsubr
          endchar
        </CharString>
        <CharString name="Hcircumflex">
          123 callsubr
          21 callsubr
          147 142 321 142 hintmask 11100110
          -89 callgsubr
          hintmask 00011010
          -234 61 callgsubr
        </CharString>
        <CharString name="Hdieresis">
          123 callsubr
          42 140 -40 callsubr
          -60 30 callgsubr
          -62 142 hintmask 11101001
          -89 callgsubr
          hintmask 00010110
          -491 798 -80 callsubr
        </CharString>
        <CharString name="Hdotbelow">
          900 -200 156 44 96 callsubr
          hstemhm
          147 142 83 156 82 142 hintmask 01111010
          -89 callgsubr
          hintmask 10000100
          -332 -122 rmoveto
          -8 callsubr
        </CharString>
        <CharString name="I">
          436 0 56 callgsubr
          -92 callsubr
          endchar
        </CharString>
        <CharString name="I_J">
          987 -11 36 -25 47 -47 149 -107 149 -77 36 489 67 callgsubr
          126 97 callsubr
          hintmask 0100011010000000
          -92 callsubr
          516 -39 callsubr
          -3 -35 -85 0 -39 hhcurveto
          -53 -98 0 3 -48 hvcurveto
          -47 141 vlineto
          hintmask 0010000010000000
          -490 vlineto
          hintmask 1001000000000000
          -19 0 -105 -99 -17 -33 3 14 -31 vhcurveto
          hintmask 0000100100000000
          0 46 19 53 vvcurveto
          hintmask 0001000000000000
          54 -43 23 -33 vhcurveto
          hintmask 1000110110000000
          2 callsubr
          endchar
        </CharString>
        <CharString name="Iacute">
          33 callgsubr
          128 callsubr
          hintmask 11001000
          -92 callsubr
          hintmask 00110000
          -29 837 -105 callsubr
        </CharString>
        <CharString name="Ibreve">
          33 callgsubr
          52 123 callgsubr
          -40 callsubr
          hintmask 11001000
          -92 callsubr
          hintmask 00110000
          -7 925 -99 callgsubr
          endchar
        </CharString>
        <CharString name="Icaron">
          33 callgsubr
          21 callsubr
          147 142 hintmask 11001000
          -92 callsubr
          hintmask 00110000
          -9 869 -68 callsubr
        </CharString>
        <CharString name="Icircumflex">
          33 callgsubr
          21 callsubr
          147 142 hintmask 11001000
          -92 callsubr
          hintmask 00110000
          -9 61 callgsubr
        </CharString>
        <CharString name="Idblgrave">
          33 callgsubr
          73 54 callgsubr
          -40 callsubr
          hintmask 11001000
          -92 callsubr
          hintmask 00110000
          -37 762 -95 callgsubr
        </CharString>
        <CharString name="Idieresis">
          33 callgsubr
          42 140 hstemhm
          -3 106 callsubr
          hintmask 11001000
          -92 callsubr
          hintmask 00110100
          -266 798 -80 callsubr
        </CharString>
        <CharString name="Idieresisacute">
          33 callgsubr
          42 140 73 -21 171 -20 hstemhm
          -3 106 callsubr
          hintmask 11000010
          -92 callsubr
          hintmask 00111101
          -266 798 rmoveto
          -100 callgsubr
          303 hmoveto
          -100 callgsubr
          -66 221 -105 callsubr
        </CharString>
        <CharString name="Idotaccent">
          33 callgsubr
          53 156 hstemhm
          140 156 -149 142 hintmask 11001000
          -92 callsubr
          hintmask 00110000
          -107 817 rmoveto
          -8 callsubr
        </CharString>
        <CharString name="Idotbelow">
          436 37 callsubr
          592 47 hstemhm
          140 156 -149 142 hintmask 01101000
          -92 callsubr
          hintmask 10010000
          -107 -122 rmoveto
          -8 callsubr
        </CharString>
        <CharString name="Igrave">
          33 callgsubr
          128 callsubr
          hintmask 11001000
          -92 callsubr
          hintmask 00110000
          -107 780 -80 callgsubr
        </CharString>
        <CharString name="Ihookabove">
          33 callgsubr
          74 -21 193 -20 -40 callsubr
          hintmask 11001000
          -92 callsubr
          hintmask 00111000
          -73 869 -107 callsubr
        </CharString>
        <CharString name="Imacron">
          33 callgsubr
          62 117 callsubr
          hintmask 11010000
          -92 callsubr
          hintmask 00100000
          23 748 -38 callgsubr
        </CharString>
        <CharString name="Imacron.alt">
          33 callgsubr
          62 117 callsubr
          hintmask 11010000
          -92 callsubr
          hintmask 00100000
          -73 748 29 callgsubr
        </CharString>
        <CharString name="Iogonek">
          120 callgsubr
          hstem
          147 142 vstem
          403 hmoveto
          47 -114 592 114 47 vlineto
          -3 -41 -98 0 -46 hhcurveto
          -46 -98 0 3 -41 hvcurveto
          -47 114 -592 -114 -47 vlineto
          3 41 98 0 46 hhcurveto
          21 hlineto
          -34 -23 -28 -46 -34 -63 callgsubr
          -33 -24 37 40 15 hvcurveto
          8 22 15 19 21 13 rrcurveto
          endchar
        </CharString>
        <CharString name="Iogonekacute">
          120 callgsubr
          128 callsubr
          hintmask 11100100
          403 hmoveto
          47 -114 592 114 47 vlineto
          -3 -41 -98 0 -46 hhcurveto
          -46 -98 0 3 -41 hvcurveto
          -47 114 -592 -114 -47 vlineto
          3 41 98 0 46 hhcurveto
          21 hlineto
          -34 -23 -28 -46 -34 -63 callgsubr
          -33 -24 37 40 15 hvcurveto
          8 22 15 19 21 13 rrcurveto
          hintmask 00011000
          51 834 -105 callsubr
        </CharString>
        <CharString name="Iota">
          436 0 56 callgsubr
          -92 callsubr
          endchar
        </CharString>
        <CharString name="Itilde">
          436 64 callsubr
          cntrmask 11100000
          -92 callsubr
          hintmask 11110000
          7 811 -107 callgsubr
        </CharString>
        <CharString name="J">
          64 callgsubr
          106 callgsubr
          hintmask 11010100
          -21 callsubr
          hintmask 00101000
          41 callgsubr
          hintmask 10111100
          2 callsubr
          endchar
        </CharString>
        <CharString name="J_uni030C.cap">
          594.44444 -11 36 17 149 -77 36 295 -21 145 117 -47 47 106 callgsubr
          hintmask 11000101
          -21 callsubr
          hintmask 00100010
          41 callgsubr
          hintmask 10100111
          2 callsubr
          251 -47 130 callgsubr
          hintmask 00011000
          -30 20 -29 39 24 15 13 2 2 vhcurveto
          -6 -82 -49 -39 -16 -14 rrcurveto
          -4 -4 -2 -2 -4 vvcurveto
          -8 8 -7 6 11 79 64 104 vhcurveto
          endchar
        </CharString>
        <CharString name="Jacute">
          64 callgsubr
          73 -21 171 -20 106 callgsubr
          hintmask 11010001
          -21 callsubr
          hintmask 00100010
          41 callgsubr
          hintmask 10110011
          2 callsubr
          hintmask 00001101
          58 198 -105 callsubr
        </CharString>
        <CharString name="Jcircumflex">
          64 callgsubr
          63 -21 165 -20 106 callgsubr
          hintmask 11010001
          -21 callsubr
          hintmask 00100010
          41 callgsubr
          hintmask 10110011
          2 callsubr
          hintmask 00001100
          78 113 -60 callsubr
        </CharString>
        <CharString name="K">
          901 0 56 callgsubr
          -84 callsubr
          endchar
        </CharString>
        <CharString name="Kappa">
          901 0 56 callgsubr
          -84 callsubr
          endchar
        </CharString>
        <CharString name="Kcedilla">
          901 42 callgsubr
          hstem
          147 142 vstem
          -84 callsubr
          -338 -127 -98 callsubr
        </CharString>
        <CharString name="Kcommaaccent">
          901 42 callgsubr
          hstemhm
          147 142 hintmask 00111000
          -84 callsubr
          hintmask 11000000
          -338 -127 -98 callsubr
        </CharString>
        <CharString name="L">
          692 0 47 592 80 callsubr
          307 47 vstem
          -69 callsubr
          endchar
        </CharString>
        <CharString name="L_uni0303">
          692 64 callsubr
          307 47 cntrmask 11100000
          -69 callsubr
          hintmask 11100000
          -198 811 -107 callgsubr
        </CharString>
        <CharString name="Lacute">
          692 0 47 592 47 128 callsubr
          307 47 hintmask 11001100
          -69 callsubr
          hintmask 00110000
          -234 837 -105 callsubr
        </CharString>
        <CharString name="Lambda">
          806 0 47 651 -20 hstem
          40 725 vstem
          765 hmoveto
          47 -86 vlineto
          -239 626 rlineto
          17 -6 -4 8 -27 hhcurveto
          -28 -3 -8 -17 -7 hvcurveto
          -231 -603 -7 -16 -1 -1 -31 -4 rlinecurve
          -2 -18 -21 0 -16 hhcurveto
          -47 vlineto
          1 32 37 2 39 hhcurveto
          38 55 0 -3 37 hvcurveto
          47 vlineto
          0 -90 0 13 vvcurveto
          4 12 163 427 172 -452 rlineto
          -96 -47 hlineto
          3 41 92 0 45 hhcurveto
          39 82 0 -3 35 hvcurveto
          endchar
        </CharString>
        <CharString name="Lcaron">
          692 0 47 398 -21 145 117 -47 67 callgsubr
          307 47 hintmask 10011100
          -69 callsubr
          3 592 rmoveto
          16 callsubr
        </CharString>
        <CharString name="Lcedilla">
          692 42 callgsubr
          hstem
          147 142 307 47 vstem
          -69 callsubr
          -203 -127 -98 callsubr
        </CharString>
        <CharString name="Lcommaaccent">
          692 42 callgsubr
          hstemhm
          147 142 307 47 hintmask 00111100
          -69 callsubr
          hintmask 11000000
          -203 -127 -98 callsubr
        </CharString>
        <CharString name="Ldot">
          692 0 47 303 156 133 67 callgsubr
          197 156 -46 47 hintmask 11110100
          -69 callsubr
          30 428 122 callgsubr
          vhcurveto
          hintmask 01001000
          -43 -35 -35 -43 -43 35 -35 43 43 35 35 43 hvcurveto
          endchar
        </CharString>
        <CharString name="Ldotbelow">
          692 37 callsubr
          592 67 callgsubr
          -21 156 172 47 hintmask 01110100
          643 274 rmoveto
          -47 hlineto
          -69 -8 -17 -158 -179 hhcurveto
          -103 592 hlineto
          hintmask 00101000
          135 47 hlineto
          -3 -44 -109 0 -49 hhcurveto
          -44 -101 0 3 -38 hvcurveto
          -47 vlineto
          hintmask 01110100
          108 -20 callsubr
          573 hlineto
          hintmask 10001000
          -188 -122 rmoveto
          -8 callsubr
        </CharString>
        <CharString name="Ldotbelowmacron">
          692 37 callsubr
          592 47 62 117 callsubr
          -21 156 172 47 hintmask 01101010
          643 274 rmoveto
          -47 hlineto
          -69 -8 -17 -158 -179 hhcurveto
          -103 592 hlineto
          hintmask 00100100
          135 47 hlineto
          -3 -44 -109 0 -49 hhcurveto
          -44 -101 0 3 -38 hvcurveto
          -47 vlineto
          hintmask 11101010
          108 -20 callsubr
          573 hlineto
          -188 -122 61 callsubr
          hintmask 00010000
          15 870 -38 callgsubr
        </CharString>
        <CharString name="Lslash">
          692 0 47 592 47 hstem
          157 142 vstem
          653 274 rmoveto
          -47 hlineto
          -69 -8 -17 -158 -179 hhcurveto
          -103 333 hlineto
          198 145 -30 39 -168 -123 rlineto
          198 135 47 vlineto
          -3 -44 -109 0 -49 hhcurveto
          -44 -101 -48 callsubr
          -304 vlineto
          -95 -71 29 -38 66 48 rlineto
          -227 -108 -47 573 vlineto
          endchar
        </CharString>
        <CharString name="M">
          -49 callgsubr
        </CharString>
        <CharString name="Mdotbelow">
          1092 37 callsubr
          -44 47 589 47 hstemhm
          148 53 30 53 184 156 194 125 hintmask 01011001
          1051 93 callsubr
          -221 vlineto
          -22 -11 0 -25 -11 hvcurveto
          -240 -529 -240 529 rlineto
          25 -11 -11 0 -22 hhcurveto
          -222 -47 108 -563 hlineto
          hintmask 00100000
          -22 -1 -1 -28 -3 vhcurveto
          hintmask 01000000
          -4 callgsubr
          hintmask 00100000
          25 callgsubr
          hintmask 01000100
          -5 callsubr
          hintmask 00101100
          -18 -17 1 2 -18 hvcurveto
          -29 3 -1 1 22 vvcurveto
          550 1 vlineto
          272 -601 rlineto
          hintmask 01010001
          -20 9 12 -5 11 hhcurveto
          20 8 15 9 4 hvcurveto
          279 615 rlineto
          1 18 callsubr
          hintmask 00100000
          3 36 93 0 41 hhcurveto
          hintmask 01000000
          41 94 0 -3 36 hvcurveto
          hintmask 10000010
          -427 -122 rmoveto
          -8 callsubr
        </CharString>
        <CharString name="Mu">
          -49 callgsubr
        </CharString>
        <CharString name="N">
          -52 callgsubr
        </CharString>
        <CharString name="Nacute">
          70 callgsubr
          73 -21 171 -53 callgsubr
          -229 198 -105 callsubr
        </CharString>
        <CharString name="Ncaron">
          70 callgsubr
          63 -21 165 -53 callgsubr
          -209 230 -68 callsubr
        </CharString>
        <CharString name="Ncedilla">
          -55 callsubr
          hintmask 1100010000000000
          -27 callgsubr
          -321 -766 -98 callsubr
        </CharString>
        <CharString name="Ncommaaccent">
          -55 callsubr
          hintmask 0000010000000000
          -27 callgsubr
          hintmask 1100000000000000
          -321 -766 -98 callsubr
        </CharString>
        <CharString name="Ndotaccent">
          70 callgsubr
          42 156 hstemhm
          147 53 30 53 89 156 88 53 30 53 hintmask 0001000000000000
          860 -39 callsubr
          hintmask 0010000000000000
          -28 callsubr
          hintmask 0001000010000000
          -56 callgsubr
          hintmask 0010000011000000
          -43 callsubr
          hintmask 0101010000000000
          -43 callgsubr
          hintmask 1000000000000000
          -4 callgsubr
          hintmask 0100000000000000
          25 callgsubr
          hintmask 1000001000000000
          -5 callsubr
          hintmask 0100011000000000
          -42 callgsubr
          hintmask 1010000001000000
          -44 callsubr
          hintmask 0001000000000000
          -27 callgsubr
          hintmask 0000100100000000
          -307 167 rmoveto
          -8 callsubr
        </CharString>
        <CharString name="Ndotbelow">
          900 -200 156 44 53 callgsubr
          89 156 88 53 30 53 hintmask 0000100000000000
          860 -39 callsubr
          hintmask 0001000000000000
          -28 callsubr
          hintmask 0000100010000000
          -56 callgsubr
          hintmask 0001000011000000
          -43 callsubr
          hintmask 0010110000000000
          -43 callgsubr
          hintmask 0100000000000000
          -4 callgsubr
          hintmask 0010000000000000
          25 callgsubr
          hintmask 0100001000000000
          -5 callsubr
          hintmask 0010011000000000
          -42 callgsubr
          hintmask 0101000001000000
          -44 callsubr
          hintmask 0000100000000000
          -27 callgsubr
          hintmask 1000000100000000
          -307 -761 rmoveto
          -8 callsubr
        </CharString>
        <CharString name="Ntilde">
          900 55 callgsubr
          53 30 53 333 53 30 53 cntrmask 11100000
          860 -39 callsubr
          -28 callsubr
          -56 callgsubr
          -43 callsubr
          -43 callgsubr
          -4 callgsubr
          25 callgsubr
          -5 callsubr
          -42 callgsubr
          -44 callsubr
          -27 callgsubr
          hintmask 11100100
          -193 172 -107 callgsubr
        </CharString>
        <CharString name="Nu">
          -52 callgsubr
        </CharString>
        <CharString name="O">
          4 callsubr
          132 callgsubr
          429 153 vstem
          -106 callsubr
          endchar
        </CharString>
        <CharString name="OE">
          -55 callgsubr
        </CharString>
        <CharString name="OE.dup">
          -55 callgsubr
        </CharString>
        <CharString name="Oacute">
          66 callsubr
          171 -96 callsubr
          -59 483 -105 callsubr
        </CharString>
        <CharString name="Obreve">
          4 callsubr
          41 62 125 -96 callsubr
          -37 571 -99 callgsubr
          endchar
        </CharString>
        <CharString name="Ocaron">
          4 callsubr
          52 -21 165 -75 callsubr
          515 -68 callsubr
        </CharString>
        <CharString name="Ocircumflex">
          4 callsubr
          52 -21 165 -75 callsubr
          398 -60 callsubr
        </CharString>
        <CharString name="Ocircumflexacute">
          4 callsubr
          52 -21 371 -75 callsubr
          398 -93 callsubr
          -43 299 -105 callsubr
        </CharString>
        <CharString name="Ocircumflexdotbelow">
          864 19 callsubr
          33 42 626 40 52 -21 165 -20 112 callsubr
          hintmask 01111101
          -106 callsubr
          -39 398 -93 callsubr
          hintmask 10000010
          -81 -850 rmoveto
          -8 callsubr
        </CharString>
        <CharString name="Ocircumflexgrave">
          4 callsubr
          52 -21 165 -75 callsubr
          398 -79 callgsubr
        </CharString>
        <CharString name="Ocircumflexhookabove">
          4 callsubr
          52 -21 373 -75 callsubr
          398 -93 callsubr
          64 310 -107 callsubr
        </CharString>
        <CharString name="Ocircumflextilde">
          864 948 97 callgsubr
          64 153 429 153 cntrmask 11100000
          -106 callsubr
          hintmask 11100000
          -39 398 -93 callsubr
          32 303 -107 callgsubr
        </CharString>
        <CharString name="Odblgrave">
          66 callsubr
          195 -96 callsubr
          -67 408 -95 callgsubr
        </CharString>
        <CharString name="Odieresis">
          4 callsubr
          31 140 hstemhm
          64 153 -7 30 callgsubr
          -7 153 hintmask 11010010
          -106 callsubr
          hintmask 00101100
          -296 444 -80 callsubr
        </CharString>
        <CharString name="Odotbelow">
          864 19 callsubr
          33 42 626 40 112 callsubr
          hintmask 01110100
          -106 callsubr
          hintmask 10001000
          -136 -476 rmoveto
          -8 callsubr
        </CharString>
        <CharString name="Ograve">
          66 callsubr
          171 -96 callsubr
          -137 426 -80 callgsubr
        </CharString>
        <CharString name="Ohookabove">
          4 callsubr
          63 -21 193 -96 callsubr
          -103 515 -107 callsubr
        </CharString>
        <CharString name="Ohorn">
          4 callsubr
          122 -20 24 callsubr
          hintmask 11111000
          -83 callsubr
          hintmask 11010100
          -72 callsubr
          endchar
        </CharString>
        <CharString name="Ohornacute">
          66 callsubr
          81 -20 110 -20 24 callsubr
          hintmask 11110110
          -83 callsubr
          hintmask 11000101
          -72 callsubr
          hintmask 00101000
          -90 480 -105 callsubr
        </CharString>
        <CharString name="Ohorndotbelow">
          864 19 callsubr
          33 42 626 40 122 -20 hstemhm
          64 152 138 156 114 133 -112 153 hintmask 01111010
          -83 callsubr
          hintmask 01101001
          -72 callsubr
          hintmask 10000100
          -135 -479 rmoveto
          -8 callsubr
        </CharString>
        <CharString name="Ohorngrave">
          66 callsubr
          81 -20 110 -20 24 callsubr
          hintmask 11110110
          -83 callsubr
          hintmask 11000101
          -72 callsubr
          hintmask 00101000
          -136 423 -80 callgsubr
        </CharString>
        <CharString name="Ohornhookabove">
          4 callsubr
          63 -21 80 -20 133 -20 24 callsubr
          hintmask 11010110
          -83 callsubr
          hintmask 11000101
          -72 callsubr
          hintmask 00101000
          -102 512 -107 callsubr
        </CharString>
        <CharString name="Ohorntilde">
          864 728 74 -57 74 -57 74 24 callsubr
          cntrmask 11100000
          hintmask 11111000
          -83 callsubr
          hintmask 11110100
          -72 callsubr
          hintmask 11100000
          -22 454 -107 callgsubr
        </CharString>
        <CharString name="Ohungarumlaut">
          66 callsubr
          195 -96 callsubr
          -204 519 -82 callgsubr
        </CharString>
        <CharString name="Omacron">
          4 callsubr
          51 52 hstemhm
          64 153 429 153 hintmask 11011000
          -106 callsubr
          hintmask 00100000
          -7 394 -38 callgsubr
        </CharString>
        <CharString name="Omega">
          -49 callsubr
        </CharString>
        <CharString name="Omicron">
          4 callsubr
          132 callgsubr
          429 153 vstem
          -106 callsubr
          endchar
        </CharString>
        <CharString name="Oogonek">
          128 callgsubr
          132 callgsubr
          429 153 vstem
          -41 callsubr
          endchar
        </CharString>
        <CharString name="Oogonekacute">
          128 callgsubr
          62 -21 171 -20 hstemhm
          64 153 429 153 hintmask 11100110
          -41 callsubr
          hintmask 00011000
          -59 483 -105 callsubr
        </CharString>
        <CharString name="Orogate">
          864 64 153 197 36 196 153 vstem
          799 339 rmoveto
          210 -137 140 -212 8 vhcurveto
          184 -36 -184 vlineto
          -218 -8 -132 -146 -204 vvcurveto
          -202 133 -141 217 -7 vhcurveto
          -183 36 183 vlineto
          219 8 130 143 199 vvcurveto
          -153 15 rmoveto
          -70 -4 -89 -42 -69 vhcurveto
          -73 -45 -70 -22 -54 hhcurveto
          -59 -73 28 76 -41 hvcurveto
          -33 62 -8 71 86 vvcurveto
          64 3 85 44 68 vhcurveto
          61 41 67 25 59 hhcurveto
          64 69 -28 -66 40 hvcurveto
          38 -64 4 -77 -68 vvcurveto
          endchar
        </CharString>
        <CharString name="Oslash">
          71 callgsubr
          hstem
          64 142 481 142 vstem
          -70 callgsubr
          endchar
        </CharString>
        <CharString name="Oslash.dup">
          71 callgsubr
          hstem
          64 142 481 142 vstem
          -70 callgsubr
          endchar
        </CharString>
        <CharString name="Oslashacute">
          71 callgsubr
          33 -21 171 -20 hstemhm
          64 142 481 142 hintmask 11110011
          -70 callgsubr
          hintmask 00001100
          -84 497 -105 callsubr
        </CharString>
        <CharString name="Otilde">
          864 58 callgsubr
          64 153 429 153 cntrmask 11100000
          -106 callsubr
          hintmask 11100000
          -23 457 -107 callgsubr
        </CharString>
        <CharString name="P">
          -15 callsubr
        </CharString>
        <CharString name="Phi">
          831 0 47 106 36 307 36 -35 36 106 47 hstemhm
          64 147 133 131 144 147 hintmask 11011111
          766 343 rmoveto
          49 -34 122 -257 20 vhcurveto
          105 135 47 vlineto
          -3 -44 -107 0 -49 hhcurveto
          -49 -108 0 3 -44 hvcurveto
          -47 135 -106 vlineto
          -156 -10 -124 -73 -107 vvcurveto
          -107 124 -73 156 -10 vhcurveto
          62 callgsubr
          105 vlineto
          259 20 32 124 47 vvcurveto
          -422 -153 rmoveto
          -125 18 -8 78 57 vvcurveto
          hintmask 01100010
          58 8 77 125 18 vhcurveto
          275 -153 rmoveto
          -73 -17 -66 -127 -15 vhcurveto
          hintmask 00010011
          308 vlineto
          127 -15 17 -66 -73 vvcurveto
          endchar
        </CharString>
        <CharString name="Pi">
          900 0 47 586 85 callsubr
          586 108 47 -821 -47 108 -586 -59 callgsubr
          586 321 -586 -71 callgsubr
          endchar
        </CharString>
        <CharString name="Psi">
          894 0 47 103 45 311 41 92 47 hstemhm
          126 131 119 131 129 131 -125 125 hintmask 00110110
          829 529 rmoveto
          18 -17 0 -15 vhcurveto
          -72 hlineto
          -34 -54 -4 -138 -1 hvcurveto
          -1 -121 -43 -67 -85 -23 rrcurveto
          445 vlineto
          hintmask 11111101
          135 47 hlineto
          -3 -44 -107 0 -49 hhcurveto
          -49 -108 0 3 -44 hvcurveto
          -47 135 -444 vlineto
          -115 34 -4 124 63 vvcurveto
          89 -1 -28 42 -60 hhcurveto
          -72 hlineto
          -15 -17 0 -18 -15 12 -2 11 -1 hvcurveto
          38 -7 1 -76 -5 vvcurveto
          -35 1 -89 59 -64 vhcurveto
          50 -54 69 -21 71 -7 rrcurveto
          62 callgsubr
          106 vlineto
          93 8 59 31 35 32 rrcurveto
          69 65 4 95 13 vvcurveto
          45 1 62 41 7 vhcurveto
          7 1 13 2 15 vvcurveto
          endchar
        </CharString>
        <CharString name="Q">
          864 -194 153 30 40 0 40 50 36 502 40 hstemhm
          64 147 123 36 186 36 60 147 -30 36 hintmask 1000000101000000
          805 -8 rmoveto
          8 0 18 -18 -15 -2 -13 -7 -1 vhcurveto
          -38 -6 -62 -1 -17 hhcurveto
          -23 -30 0 59 -39 hvcurveto
          hintmask 1100110010000000
          164 64 43 148 109 vvcurveto
          216 -145 142 -222 -229 -139 -148 -210 -204 136 -146 232 22 33 1 8 40 vhcurveto
          -113 28 20 -79 93 hhcurveto
          hintmask 0011111101000000
          102 35 118 68 hvcurveto
          -153 348 rmoveto
          -56 0 -149 -96 -66 vhcurveto
          33 -22 -36 53 -67 hhcurveto
          -51 -46 -34 -48 -6 1 -11 2 -5 hvcurveto
          -123 59 -3 152 78 vvcurveto
          40 0 95 37 71 vhcurveto
          96 52 86 15 45 hhcurveto
          54 78 -20 -85 48 hvcurveto
          hintmask 0011001010000000
          38 -67 3 -86 -59 vvcurveto
          -138 -295 rmoveto
          -11 -25 -30 -5 -27 hhcurveto
          -55 -7 32 12 27 29 19 33 28 34 -11 -63 20 hvcurveto
          endchar
        </CharString>
        <CharString name="R">
          -94 callsubr
          endchar
        </CharString>
        <CharString name="Racute">
          -94 callsubr
          hintmask 11100000
          23 337 -105 callsubr
        </CharString>
        <CharString name="Rcaron">
          -94 callsubr
          hintmask 11100000
          43 369 -68 callsubr
        </CharString>
        <CharString name="Rcedilla">
          -94 callsubr
          -69 -627 -98 callsubr
        </CharString>
        <CharString name="Rcommaaccent">
          -94 callsubr
          hintmask 11100000
          -69 -627 -98 callsubr
        </CharString>
        <CharString name="Rdblgrave">
          -94 callsubr
          hintmask 11100000
          -17 262 -95 callgsubr
        </CharString>
        <CharString name="Rdotaccent">
          -51 callgsubr
          hintmask 11110011
          108 18 callsubr
          3 36 98 0 42 hhcurveto
          42 98 11 callsubr
          -108 278 117 vlineto
          14 44 0 -34 31 hvcurveto
          32 -35 0 -19 -73 vvcurveto
          -66 0 -49 70 -34 vhcurveto
          -22 44 62 -4 41 hhcurveto
          107 13 90 16 hvcurveto
          -294 405 rmoveto
          -56 0 -83 -165 vhcurveto
          -116 278 118 hlineto
          161 2 -78 -61 hvcurveto
          hintmask 11100100
          -54 317 rmoveto
          -8 callsubr
        </CharString>
        <CharString name="Rdotbelow">
          -51 callgsubr
          hintmask 11110011
          108 18 callsubr
          3 36 98 0 42 hhcurveto
          42 98 11 callsubr
          -108 278 117 vlineto
          14 44 0 -34 31 hvcurveto
          32 -35 0 -19 -73 vvcurveto
          -66 0 -49 70 -34 vhcurveto
          -22 44 62 -4 41 hhcurveto
          107 13 90 16 hvcurveto
          -294 405 rmoveto
          -56 0 -83 -165 vhcurveto
          -116 278 118 hlineto
          161 2 -78 -61 hvcurveto
          hintmask 11100100
          -54 -622 rmoveto
          -8 callsubr
        </CharString>
        <CharString name="Rdotbelowmacron">
          -51 callgsubr
          hintmask 11110111
          108 18 callsubr
          3 36 98 0 42 hhcurveto
          42 98 11 callsubr
          -108 278 117 vlineto
          14 44 0 -34 31 hvcurveto
          32 -35 0 -19 -73 vvcurveto
          -66 0 -49 70 -34 vhcurveto
          -22 44 62 -4 41 hhcurveto
          107 13 90 16 hvcurveto
          -294 405 rmoveto
          -56 0 -83 -165 vhcurveto
          -116 278 118 hlineto
          161 2 -78 -61 hvcurveto
          -54 -622 -102 callsubr
          hintmask 11100000
          129 870 -38 callgsubr
        </CharString>
        <CharString name="Rho">
          -15 callsubr
        </CharString>
        <CharString name="S">
          639 -11 40 callgsubr
          hstem
          64 97 316 97 vstem
          574 203 rmoveto
          -98 callgsubr
          rlineto
          -49 66 93 -6 41 hhcurveto
          165 62 113 101 hvcurveto
          endchar
        </CharString>
        <CharString name="S_S">
          1278 -11 40 callgsubr
          hstem
          64 97 316 97 129 97 316 97 vstem
          574 203 rmoveto
          -98 callgsubr
          rlineto
          -49 66 93 -6 41 hhcurveto
          165 62 113 101 hvcurveto
          639 hmoveto
          -98 callgsubr
          rlineto
          -49 66 93 -6 41 hhcurveto
          165 62 113 101 hvcurveto
          endchar
        </CharString>
        <CharString name="Sacute">
          639 -11 40 callgsubr
          62 -21 171 -20 hstemhm
          64 97 316 97 hintmask 11100110
          574 203 rmoveto
          -98 callgsubr
          rlineto
          -49 66 93 -6 41 hhcurveto
          165 62 113 101 hvcurveto
          hintmask 00011000
          -99 634 -105 callsubr
        </CharString>
        <CharString name="Scaron">
          639 -11 40 callgsubr
          121 callsubr
          97 316 97 hintmask 11100110
          574 203 rmoveto
          -98 callgsubr
          rlineto
          -49 66 93 -6 41 hhcurveto
          165 62 113 101 hvcurveto
          hintmask 00011100
          -79 666 -68 callsubr
        </CharString>
        <CharString name="Scedilla">
          639 -11 40 callgsubr
          hstem
          64 97 316 97 vstem
          574 203 rmoveto
          -98 callgsubr
          38 -28 46 -14 40 -7 rlinecurve
          -76 vlineto
          35 39 -3 callsubr
          50 -51 33 -55 hvcurveto
          23 vlineto
          150 9 57 107 97 vvcurveto
          endchar
        </CharString>
        <CharString name="Scircumflex">
          639 -11 40 callgsubr
          121 callsubr
          97 316 97 hintmask 11100110
          574 203 rmoveto
          -98 callgsubr
          rlineto
          -49 66 93 -6 41 hhcurveto
          165 62 113 101 hvcurveto
          hintmask 00011000
          -79 549 -60 callsubr
        </CharString>
        <CharString name="Sdotbelow">
          639 19 callsubr
          33 40 callgsubr
          hstemhm
          64 97 81 156 79 97 hintmask 01111010
          574 203 rmoveto
          -98 callgsubr
          rlineto
          -49 66 93 -6 41 hhcurveto
          165 62 113 101 hvcurveto
          hintmask 10000100
          -176 -325 rmoveto
          -8 callsubr
        </CharString>
        <CharString name="Sigma">
          831 0 66 573 47 hstem
          719 47 vstem
          766 260 rmoveto
          -47 hlineto
          -173 -21 -100 -21 -140 hhcurveto
          -269 hlineto
          291 258 rlineto
          6 5 6 5 9 vvcurveto
          6 -4 5 -3 4 vhcurveto
          -228 281 rlineto
          204 hlineto
          148 88 -27 -167 22 hvcurveto
          47 hlineto
          -31 241 rlineto
          -639 hlineto
          -20 -12 0 -24 -10 0 -2 10 -11 hvcurveto
          285 -351 -283 -251 rlineto
          -6 -5 -6 -5 -9 vvcurveto
          -18 17 0 15 vhcurveto
          639 hlineto
          endchar
        </CharString>
        <CharString name="T">
          95 callsubr
          hstem
          36 callsubr
          vstem
          -84 callgsubr
          endchar
        </CharString>
        <CharString name="T_uni0303">
          800 728 74 -57 74 -57 74 86 callsubr
          cntrmask 11100000
          -84 callgsubr
          hintmask 11101000
          -118 377 -107 callgsubr
        </CharString>
        <CharString name="T_uni0308">
          95 callsubr
          53 140 hstemhm
          42 47 90 106 callsubr
          88 47 hintmask 11010101
          -84 callgsubr
          hintmask 00101010
          -391 364 -80 callsubr
        </CharString>
        <CharString name="Tau">
          95 callsubr
          hstem
          36 callsubr
          vstem
          -84 callgsubr
          endchar
        </CharString>
        <CharString name="Tcaron">
          95 callsubr
          74 -21 165 -20 86 callsubr
          hintmask 11001110
          -84 callgsubr
          hintmask 00110000
          -134 435 -68 callsubr
        </CharString>
        <CharString name="Tcedilla">
          800 -200 48 71 48 33 47 581 47 hstemhm
          116 callsubr
          -119 96 -23 128 157 47 hintmask 0011110000000000
          757 434 rmoveto
          -21 241 rlineto
          -673 hlineto
          -21 -241 rlineto
          47 hlineto
          113 9 10 81 144 hhcurveto
          77 -581 -153 -47 hlineto
          hintmask 0100001000000000
          176 3 rlineto
          -84 vlineto
          hintmask 1000000100000000
          -11 callsubr
          hvcurveto
          hintmask 0110001000000000
          50 -51 33 -54 vhcurveto
          36 vlineto
          176 -3 rlineto
          47 vlineto
          hintmask 0011010010000000
          -153 581 76 hlineto
          143 10 -80 -114 10 hvcurveto
          endchar
        </CharString>
        <CharString name="Tdotbelow">
          800 37 callsubr
          581 47 hstemhm
          42 47 233 156 -149 142 239 47 hintmask 01110110
          -84 callgsubr
          hintmask 10001000
          -232 -556 rmoveto
          -8 callsubr
        </CharString>
        <CharString name="Theta">
          894 -11 38 257 121 256 36 hstemhm
          64 142 65 75 callgsubr
          18 47 0 142 hintmask 10110001
          829 340 rmoveto
          202 -138 155 -244 -251 -132 -160 -197 -206 143 -145 239 244 139 149 202 vhcurveto
          -142 hmoveto
          -65 -5 -88 -48 -69 vhcurveto
          -67 -47 -75 -24 -66 hhcurveto
          -56 -89 19 90 -53 hvcurveto
          -37 63 -5 79 62 vvcurveto
          73 8 81 40 65 vhcurveto
          75 48 77 27 67 hhcurveto
          hintmask 01001110
          74 76 -32 -72 44 hvcurveto
          37 -61 10 -75 -81 vvcurveto
          -65 -90 rmoveto
          189 -47 -34 -257 34 -47 -189 47 34 257 -34 vlineto
          endchar
        </CharString>
        <CharString name="Thorn">
          724 0 47 131 47 292 47 75 47 hstem
          147 131 232 147 vstem
          657 371 rmoveto
          105 -81 88 -155 vhcurveto
          -143 75 108 47 hlineto
          -173 -3 -174 3 rlineto
          -47 108 -20 callsubr
          vlineto
          173 3 174 -3 rlineto
          47 -108 131 132 vlineto
          205 42 123 70 hvcurveto
          -147 1 rmoveto
          -147 -114 0 -23 vhcurveto
          -95 292 115 hlineto
          20 41 0 -45 30 hvcurveto
          26 -39 0 -52 -9 vvcurveto
          endchar
        </CharString>
        <CharString name="Tlinebelow">
          800 -148 52 96 47 581 47 86 callsubr
          hintmask 01111100
          -84 callgsubr
          hintmask 10000000
          -102 -582 -38 callgsubr
        </CharString>
        <CharString name="U">
          -19 callsubr
          -12 callsubr
          hintmask 00100000
          845 -39 callsubr
          hintmask 01000000
          -28 callsubr
          hintmask 00101000
          -56 callgsubr
          hintmask 11011100
          -87 callsubr
          hintmask 00110000
          9 callgsubr
          hintmask 01000000
          -3 -38 -98 0 -43 hhcurveto
          hintmask 10110100
          -83 callgsubr
          endchar
        </CharString>
        <CharString name="U_uni032F">
          885 -194 131 callsubr
          17 47 600 47 -44 47 -12 callsubr
          hintmask 00001000
          845 -39 callsubr
          hintmask 00010000
          -28 callsubr
          hintmask 00001010
          -56 callgsubr
          hintmask 00110111
          -87 callsubr
          hintmask 00001100
          9 callgsubr
          hintmask 00010000
          -3 -38 -98 0 -43 hhcurveto
          hintmask 00101101
          -88 callsubr
          hintmask 00010000
          22 1 1 28 3 vhcurveto
          hintmask 00001000
          -27 callgsubr
          hintmask 11000000
          -173 -854 -57 callgsubr
        </CharString>
        <CharString name="Uacute">
          -19 callsubr
          73 -21 171 -97 callsubr
          -195 198 -105 callsubr
        </CharString>
        <CharString name="Ubreve">
          -19 callsubr
          52 62 125 -97 callsubr
          -173 286 -99 callgsubr
          endchar
        </CharString>
        <CharString name="Ucaron">
          -19 callsubr
          63 -21 165 -97 callsubr
          -175 230 -68 callsubr
        </CharString>
        <CharString name="Ucircumflex">
          -19 callsubr
          63 -21 165 -97 callsubr
          -175 113 -60 callsubr
        </CharString>
        <CharString name="Udblgrave">
          -19 callsubr
          73 -21 195 -97 callsubr
          -203 123 -95 callgsubr
        </CharString>
        <CharString name="Udieresis">
          -19 callsubr
          42 140 -40 callsubr
          -41 30 callgsubr
          -90 -8 callgsubr
          hintmask 0010000100000000
          -56 callgsubr
          hintmask 1100100110000000
          -87 callsubr
          hintmask 0010100000000000
          9 callgsubr
          hintmask 0100000000000000
          -3 -38 -98 0 -43 hhcurveto
          hintmask 1010100010000000
          -88 callsubr
          hintmask 0100000000000000
          22 1 1 28 3 vhcurveto
          hintmask 0010000000000000
          -27 callgsubr
          hintmask 0001011000000000
          -432 20 callsubr
        </CharString>
        <CharString name="Udieresisacute">
          -19 callsubr
          42 140 73 -21 171 -81 callsubr
          -66 221 -105 callsubr
        </CharString>
        <CharString name="Udieresiscaron">
          -19 callsubr
          42 140 63 -21 165 -81 callsubr
          -46 253 -68 callsubr
        </CharString>
        <CharString name="Udieresisgrave">
          -19 callsubr
          42 140 73 -21 171 -81 callsubr
          -144 164 -80 callgsubr
        </CharString>
        <CharString name="Udotbelow">
          885 19 callsubr
          33 47 600 47 121 callgsubr
          102 156 54 68 callgsubr
          hintmask 00010010
          -56 callgsubr
          hintmask 01101011
          -87 callsubr
          hintmask 00011000
          9 callgsubr
          hintmask 00100000
          -3 -38 -98 0 -43 hhcurveto
          hintmask 01011001
          -88 callsubr
          hintmask 00100000
          99 callgsubr
          hintmask 10000100
          -273 -761 rmoveto
          -8 callsubr
        </CharString>
        <CharString name="Ugrave">
          -19 callsubr
          73 -21 171 -97 callsubr
          -273 141 -80 callgsubr
        </CharString>
        <CharString name="Uhookabove">
          -19 callsubr
          74 -21 193 -97 callsubr
          -239 230 -107 callsubr
        </CharString>
        <CharString name="Uhorn">
          -91 callgsubr
          endchar
        </CharString>
        <CharString name="Uhornacute">
          -91 callgsubr
          hintmask 11100000
          -283 101 -105 callsubr
        </CharString>
        <CharString name="Uhorndotbelow">
          885 636 47 -44 44 121 callgsubr
          -53 53 76 156 135 53 -26 53 7 133 cntrmask 1110000000000000
          hintmask 1110000110000000
          876 736 rmoveto
          43 108 callsubr
          -33 -33 -34 22 -33 45 vhcurveto
          3 hlineto
          -17 -23 -29 -16 -31 -5 rrcurveto
          44 vlineto
          hintmask 1110001000000000
          -2 -9 -9 -1 -9 hhcurveto
          -134 3 rlineto
          -47 vlineto
          27 27 0 -3 27 hvcurveto
          hintmask 1110100100000000
          12 -2 15 -2 -6 vvcurveto
          -397 vlineto
          -56 -20 -52 -37 -33 vhcurveto
          -36 -41 -57 -16 -65 hhcurveto
          -55 -50 16 35 -31 hvcurveto
          -30 32 -8 46 64 vvcurveto
          410 108 47 vlineto
          -179 -3 -179 3 rlineto
          -47 vlineto
          hintmask 1111000000000000
          108 -410 hlineto
          hintmask 1110100110000000
          -70 33 -65 56 -41 vhcurveto
          -46 62 78 -18 87 hhcurveto
          75 70 20 45 52 hvcurveto
          50 43 26 64 68 vvcurveto
          365 vlineto
          77 11 63 56 75 vvcurveto
          hintmask 1110010000000000
          -355 -858 rmoveto
          -8 callsubr
        </CharString>
        <CharString name="Uhorngrave">
          -91 callgsubr
          hintmask 11100000
          -329 44 -80 callgsubr
        </CharString>
        <CharString name="Uhornhookabove">
          -91 callgsubr
          hintmask 11100000
          -295 133 -107 callsubr
        </CharString>
        <CharString name="Uhorntilde">
          -91 callgsubr
          hintmask 11100000
          -215 75 -107 callgsubr
        </CharString>
        <CharString name="Uhungarumlaut">
          -19 callsubr
          73 -21 195 -97 callsubr
          -340 234 -82 callgsubr
        </CharString>
        <CharString name="Umacron">
          -19 callsubr
          62 52 -12 callsubr
          hintmask 00100000
          845 -39 callsubr
          hintmask 01000000
          -28 callsubr
          hintmask 00100100
          -56 callgsubr
          hintmask 11001110
          -87 callsubr
          hintmask 00101000
          9 callgsubr
          hintmask 01000000
          -3 -38 -98 0 -43 hhcurveto
          hintmask 10101010
          -83 callgsubr
          hintmask 00010000
          -143 109 -38 callgsubr
        </CharString>
        <CharString name="Uogonek">
          885 -206 78 117 47 600 47 -44 47 hstemhm
          147 142 312 68 callgsubr
          hintmask 00010100
          -56 callgsubr
          hintmask 01101110
          -87 callsubr
          hintmask 00011000
          9 callgsubr
          hintmask 00100000
          -3 -38 -98 0 -43 hhcurveto
          hintmask 10011010
          -43 -98 -48 callsubr
          -408 vlineto
          -124 95 -104 181 -13 vhcurveto
          -26 -24 -20 -37 -29 -63 callgsubr
          -33 -23 37 40 14 hvcurveto
          6 16 10 15 13 11 rrcurveto
          158 18 71 107 113 vvcurveto
          381 vlineto
          hintmask 00100000
          99 callgsubr
          endchar
        </CharString>
        <CharString name="Upsilon">
          894 0 47 535 115 hstem
          64 55 257 142 256 55 vstem
          829 554 rmoveto
          64 -57 79 -96 -91 -96 -62 -164 -42 vhcurveto
          -1 hlineto
          146 -37 -86 80 -106 hhcurveto
          -96 -57 -79 -64 -23 13 0 14 15 8 1 19 3 hvcurveto
          22 4 18 9 64 hhcurveto
          31 58 0 -73 43 hvcurveto
          41 -69 0 -80 -15 vvcurveto
          -298 -135 -47 vlineto
          3 44 112 0 50 hhcurveto
          50 112 72 callgsubr
          298 vlineto
          56 14 66 28 45 vhcurveto
          70 45 52 0 33 hhcurveto
          81 2 -17 -17 3 hvcurveto
          -17 3 11 0 12 hhcurveto
          14 13 0 23 hvcurveto
          endchar
        </CharString>
        <CharString name="Uring">
          -19 callsubr
          12 41 86 41 -40 callsubr
          61 54 130 54 13 -8 callgsubr
          hintmask 0010000010000000
          -56 callgsubr
          hintmask 1100010011000000
          -87 callsubr
          hintmask 0010010000000000
          9 callgsubr
          hintmask 0100000000000000
          -3 -38 -98 0 -43 hhcurveto
          hintmask 1010010001000000
          -88 callsubr
          hintmask 0100000000000000
          22 1 1 28 3 vhcurveto
          hintmask 0010000000000000
          -27 callgsubr
          hintmask 0001101100000000
          -286 143 -63 callsubr
        </CharString>
        <CharString name="Utilde">
          885 64 callsubr
          312 53 30 53 cntrmask 11100000
          845 -39 callsubr
          -28 callsubr
          -56 callgsubr
          -87 callsubr
          416 108 47 vlineto
          -3 -38 -98 0 -43 hhcurveto
          -88 callsubr
          22 1 1 28 3 vhcurveto
          -27 callgsubr
          hintmask 11100000
          -159 172 -107 callgsubr
        </CharString>
        <CharString name="V">
          869 13 -21 647 47 hstem
          26 816 vstem
          842 -39 callsubr
          -113 -3 rlineto
          -40 -52 0 3 -39 hvcurveto
          -47 vlineto
          9 79 0 -12 -4 -3 -5 -1 -3 hvcurveto
          -202 -455 -213 479 rlineto
          94 47 hlineto
          -3 -38 -96 0 -43 hhcurveto
          -39 -84 0 3 -35 hvcurveto
          -47 92 vlineto
          276 -621 rlineto
          -18 8 4 -8 28 hhcurveto
          16 13 0 24 11 hvcurveto
          266 601 rlineto
          13 6 4 9 73 hhcurveto
          endchar
        </CharString>
        <CharString name="W">
          108 callgsubr
          647 47 hstem
          24 1140 vstem
          -88 callgsubr
          endchar
        </CharString>
        <CharString name="Wacute">
          108 callgsubr
          647 47 73 -21 171 -20 hstemhm
          24 1140 hintmask 11001000
          -88 callgsubr
          hintmask 00110000
          -414 198 -105 callsubr
        </CharString>
        <CharString name="Wcircumflex">
          108 callgsubr
          647 47 21 callsubr
          24 1140 hintmask 11001000
          -88 callgsubr
          hintmask 00110000
          -394 113 -60 callsubr
        </CharString>
        <CharString name="Wdieresis">
          108 callgsubr
          647 47 42 140 hstemhm
          24 1140 -791 30 callgsubr
          hintmask 11010000
          -88 callgsubr
          hintmask 00101100
          -651 20 callsubr
        </CharString>
        <CharString name="Wgrave">
          108 callgsubr
          647 47 73 -21 171 -20 hstemhm
          24 1140 hintmask 11001000
          -88 callgsubr
          hintmask 00110000
          -492 141 -80 callgsubr
        </CharString>
        <CharString name="X">
          -57 callsubr
        </CharString>
        <CharString name="Xi">
          767 0 112 97 -20 80 -21 47 112 47 -20 64 -21 86 112 hstemhm
          48 47 -41 47 59 47 352 47 59 47 -41 47 hintmask 0000011010010000
          712 477 rmoveto
          -9 198 rlineto
          -640 hlineto
          -9 -198 rlineto
          47 hlineto
          1 18 1 42 11 17 rrcurveto
          9 6 65 0 11 hhcurveto
          374 hlineto
          13 58 0 -7 9 hvcurveto
          13 -10 2 -56 -13 vvcurveto
          53 -268 rmoveto
          hintmask 1111100101101000
          -47 hlineto
          -2 -40 -2 -34 -10 -14 rrcurveto
          -9 -8 -73 0 -5 hhcurveto
          -376 hlineto
          -26 -53 0 12 -8 hvcurveto
          -9 14 -2 36 -2 35 rrcurveto
          -47 hlineto
          9 -209 rlineto
          652 hlineto
          -103 248 rmoveto
          206 -47 -47 -352 47 -47 -206 47 47 352 -47 vlineto
          endchar
        </CharString>
        <CharString name="Y">
          37 callgsubr
          98 callgsubr
          hintmask 00100000
          849 -39 callsubr
          hintmask 01000000
          -114 -3 rlineto
          hintmask 00100000
          -39 -56 0 3 -37 hvcurveto
          -47 vlineto
          23 27 0 -10 26 hvcurveto
          -2 -4 0 -2 -5 -6 -187 -275 rcurveline
          -203 297 rlineto
          85 47 hlineto
          hintmask 01000000
          -3 -41 -97 0 -45 hhcurveto
          hintmask 10110000
          -40 -90 0 3 -35 hvcurveto
          -47 98 vlineto
          249 -365 rlineto
          -227 74 callsubr
          36 98 0 42 hhcurveto
          43 96 0 -3 38 hvcurveto
          47 -109 227 vlineto
          235 345 rlineto
          hintmask 01000000
          9 14 8 0 22 3 rrcurveto
          hintmask 00100000
          2 17 18 1 17 hhcurveto
          endchar
        </CharString>
        <CharString name="Yacute">
          37 callgsubr
          73 -21 171 -20 98 callgsubr
          -86 callsubr
          hintmask 00011000
          -238 198 -105 callsubr
        </CharString>
        <CharString name="Ycircumflex">
          37 callgsubr
          21 callsubr
          366 136 -86 callsubr
          hintmask 00011000
          -218 113 -60 callsubr
        </CharString>
        <CharString name="Ydieresis">
          37 callgsubr
          42 140 hstemhm
          213 140 13 136 14 140 -86 callsubr
          hintmask 00011010
          -475 20 callsubr
        </CharString>
        <CharString name="Ydotbelow">
          869 37 callsubr
          589 47 -44 47 hstemhm
          357 156 -147 136 hintmask 00010000
          849 -39 callsubr
          hintmask 00100000
          -114 -3 rlineto
          hintmask 00010000
          -39 -56 0 3 -37 hvcurveto
          -47 vlineto
          23 27 0 -10 26 hvcurveto
          -2 -4 0 -2 -5 -6 -187 -275 rcurveline
          -203 297 rlineto
          85 47 hlineto
          hintmask 00100000
          -3 -41 -97 0 -45 hhcurveto
          hintmask 01010100
          -40 -90 0 3 -35 hvcurveto
          -47 98 vlineto
          249 -365 rlineto
          -227 74 callsubr
          36 98 0 42 hhcurveto
          43 96 0 -3 38 hvcurveto
          47 -109 227 vlineto
          235 345 rlineto
          hintmask 00100000
          9 14 8 0 22 3 rrcurveto
          hintmask 00010000
          2 17 18 1 17 hhcurveto
          hintmask 10001000
          -315 -761 rmoveto
          -8 callsubr
        </CharString>
        <CharString name="Ygrave">
          37 callgsubr
          73 -21 171 -20 98 callgsubr
          -86 callsubr
          hintmask 00011000
          -316 141 -80 callgsubr
        </CharString>
        <CharString name="Yhookabove">
          37 callgsubr
          74 -21 193 -20 98 callgsubr
          -86 callsubr
          hintmask 00011000
          -282 230 -107 callsubr
        </CharString>
        <CharString name="Ytilde">
          869 58 callgsubr
          366 136 cntrmask 11100000
          849 -39 callsubr
          -114 -3 rlineto
          -39 -56 0 3 -37 hvcurveto
          -47 vlineto
          23 27 0 -10 26 hvcurveto
          -2 -4 0 -2 -5 -6 -187 -275 rcurveline
          -203 297 rlineto
          85 47 hlineto
          -3 -41 -97 0 -45 hhcurveto
          -40 -90 0 3 -35 hvcurveto
          -47 98 vlineto
          249 -365 rlineto
          -227 74 callsubr
          36 98 0 42 hhcurveto
          43 96 0 -3 38 hvcurveto
          47 -109 227 vlineto
          235 345 9 14 8 0 22 3 rlinecurve
          2 17 18 1 17 hhcurveto
          hintmask 11100000
          -202 172 -107 callgsubr
        </CharString>
        <CharString name="Z">
          71 callsubr
          hstem
          80 47 471 47 vstem
          -79 callsubr
          endchar
        </CharString>
        <CharString name="Zacute">
          71 callsubr
          73 -21 171 -20 hstemhm
          80 47 471 47 hintmask 11001100
          -79 callsubr
          hintmask 00110000
          -120 837 -105 callsubr
        </CharString>
        <CharString name="Zcaron">
          71 callsubr
          21 callsubr
          80 47 471 47 hintmask 11001100
          -79 callsubr
          hintmask 00110000
          -100 869 -68 callsubr
        </CharString>
        <CharString name="Zdotaccent">
          71 callsubr
          53 156 hstemhm
          80 47 147 156 168 47 hintmask 11010100
          -79 callsubr
          hintmask 00101000
          -197 817 rmoveto
          -8 callsubr
        </CharString>
        <CharString name="Zdotbelow">
          703 19 callsubr
          44 51 588 47 hstemhm
          80 47 147 156 168 47 hintmask 01110100
          -79 callsubr
          hintmask 10001000
          -197 -122 rmoveto
          -8 callsubr
        </CharString>
        <CharString name="Zeta">
          71 callsubr
          hstem
          80 47 471 47 vstem
          -79 callsubr
          endchar
        </CharString>
        <CharString name="a">
          -50 callgsubr
          -17 callgsubr
          hintmask 01011100
          -103 callgsubr
          hintmask 10101100
          -78 callsubr
          endchar
        </CharString>
        <CharString name="aacute">
          -50 callgsubr
          77 -21 195 -103 callsubr
          74 408 -91 callsubr
        </CharString>
        <CharString name="abreve">
          -50 callgsubr
          60 62 125 -103 callsubr
          105 466 -99 callgsubr
          endchar
        </CharString>
        <CharString name="abreveacute">
          102 callgsubr
          331 -47 callsubr
          -61 134 -105 callsubr
        </CharString>
        <CharString name="abrevedotbelow">
          43 callgsubr
          60 123 callgsubr
          75 callsubr
          58 156 -6 114 hintmask 0010100101000000
          -104 callgsubr
          hintmask 0100000000000000
          -64 callsubr
          hintmask 0010000000000000
          -77 callgsubr
          hintmask 0101011101000000
          -78 callsubr
          105 466 -99 callgsubr
          hintmask 1000000010000000
          -99 -822 rmoveto
          -8 callsubr
        </CharString>
        <CharString name="abrevegrave">
          102 callgsubr
          125 -47 callsubr
          -60 77 rmoveto
          -24 -42 -162 54 -18 6 -23 7 -6 32 rlinecurve
          37 -8 28 35 38 hhcurveto
          17 12 -9 -9 12 hvcurveto
          31 -24 73 -63 30 -24 rrcurveto
          endchar
        </CharString>
        <CharString name="abrevehookabove">
          102 callgsubr
          333 -47 callsubr
          -65 145 -107 callsubr
        </CharString>
        <CharString name="abrevetilde">
          559 756 74 -57 74 -57 74 -17 callgsubr
          cntrmask 11100000
          -104 callgsubr
          -64 callsubr
          -31 0 -46 104 vhcurveto
          48 hlineto
          20 12 0 24 hvcurveto
          -201 115 83 callgsubr
          hintmask 11100000
          105 467 -99 callgsubr
          14 138 -107 callgsubr
        </CharString>
        <CharString name="acaron">
          -50 callgsubr
          71 -21 207 -103 callsubr
          105 454 -61 callsubr
        </CharString>
        <CharString name="acircumflex">
          -50 callgsubr
          71 -21 207 -103 callsubr
          105 291 -68 callgsubr
          endchar
        </CharString>
        <CharString name="acircumflexacute">
          -50 callgsubr
          71 -21 371 -103 callsubr
          103 293 -93 callsubr
          -43 299 -105 callsubr
        </CharString>
        <CharString name="acircumflexdotbelow">
          43 callgsubr
          71 131 callgsubr
          75 callsubr
          58 156 -6 114 hintmask 0010100101000000
          -104 callgsubr
          hintmask 0100000000000000
          -64 callsubr
          hintmask 0010000000000000
          -77 callgsubr
          hintmask 0101011101000000
          -78 callsubr
          105 291 -68 callgsubr
          hintmask 1000000010000000
          -79 -625 rmoveto
          -8 callsubr
        </CharString>
        <CharString name="acircumflexgrave">
          -50 callgsubr
          71 -21 165 -103 callsubr
          103 293 -79 callgsubr
        </CharString>
        <CharString name="acircumflexhookabove">
          -50 callgsubr
          71 -21 373 -103 callsubr
          103 293 -93 callsubr
          64 310 -107 callsubr
        </CharString>
        <CharString name="acircumflextilde">
          559 723 74 -57 74 -57 74 -17 callgsubr
          cntrmask 11100000
          -104 callgsubr
          -64 callsubr
          -31 0 -46 104 vhcurveto
          48 hlineto
          20 12 0 24 hvcurveto
          -201 115 83 callgsubr
          hintmask 11100000
          103 293 -93 callsubr
          32 303 -107 callgsubr
        </CharString>
        <CharString name="acute">
          575 530 33 callsubr
          434 642 -91 callsubr
        </CharString>
        <CharString name="acute.cap">
          575 517 -21 171 -20 hstem
          443 595 -105 callsubr
        </CharString>
        <CharString name="acute.dup">
          575 530 33 callsubr
          434 642 -91 callsubr
        </CharString>
        <CharString name="acute.ts1">
          575 531 33 callsubr
          457 642 rmoveto
          32 -29 31 -32 -32 -18 -31 -21 -18 vhcurveto
          -90 -106 29 -37 43 19 43 26 41 22 rlinecurve
          27 14 36 13 38 vvcurveto
          endchar
        </CharString>
        <CharString name="adblgrave">
          -50 callgsubr
          77 -21 195 -103 callsubr
          75 299 -95 callgsubr
        </CharString>
        <CharString name="adieresis">
          -50 callgsubr
          84 140 75 callsubr
          -63 25 callsubr
          -126 114 hintmask 0101010010000000
          -104 callgsubr
          hintmask 1000000000000000
          -64 callsubr
          hintmask 0100000000000000
          -77 callgsubr
          hintmask 1010010010000000
          -78 callsubr
          hintmask 0000101100000000
          -131 373 -73 callgsubr
        </CharString>
        <CharString name="adotbelow">
          43 callgsubr
          75 callsubr
          58 156 -6 114 hintmask 00101101
          -104 callgsubr
          hintmask 01000000
          -64 callsubr
          hintmask 00100000
          -77 callgsubr
          hintmask 01010101
          -78 callsubr
          hintmask 10000010
          6 -356 rmoveto
          -8 callsubr
        </CharString>
        <CharString name="ae">
          -67 callsubr
        </CharString>
        <CharString name="ae.dup">
          -67 callsubr
        </CharString>
        <CharString name="aeacute">
          831 -6 36 188 33 110 36 -31 33 18 36 77 54 callgsubr
          hstemhm
          37 117 -20 114 -95 95 110 114 -95 95 231 95 hintmask 0110100000011000
          798 117 rmoveto
          18 -19 0 -5 -17 -2 -5 -14 -6 vhcurveto
          -59 -23 -57 -23 -48 hhcurveto
          -143 -4 134 50 -2 hvcurveto
          294 hlineto
          24 8 1 27 34 -6 67 -44 50 hvcurveto
          26 -23 -46 30 -80 hhcurveto
          -56 -54 -13 -36 -49 hvcurveto
          hintmask 0001100000000000
          -5 -5 -3 0 0 vvcurveto
          0 -2 1 -4 3 vhcurveto
          35 -45 -51 15 -78 hhcurveto
          hintmask 0010100010100000
          -59 -121 -4 -88 -44 35 -19 27 31 32 21 42 30 -19 17 -3 2 hvcurveto
          6 29 32 1 12 hhcurveto
          76 34 -44 -74 hvcurveto
          -51 vlineto
          hintmask 0000000001000000
          -110 -6 -30 -2 -65 -20 rrcurveto
          hintmask 1101100100011000
          -68 -21 -48 -41 -55 vvcurveto
          -89 107 -20 84 29 114 1 64 55 vhcurveto
          -45 50 69 -20 68 hhcurveto
          140 45 103 20 122 callsubr
          -231 hlineto
          2 76 19 28 8 11 rrcurveto
          49 33 53 2 11 hhcurveto
          97 5 -112 -54 3 hvcurveto
          -326 -127 rmoveto
          -50 -62 -44 -73 -54 -34 35 38 vhcurveto
          hintmask 0000000000100000
          73 97 36 107 2 vhcurveto
          1 -27 6 -25 9 -24 rrcurveto
          hintmask 0000000000010000
          3 -8 0 -1 -5 vvcurveto
          hintmask 0000011000000000
          185 518 -91 callsubr
        </CharString>
        <CharString name="agrave">
          -50 callgsubr
          77 -21 195 -104 callsubr
          hintmask 00001101
          312 vmoveto
          -70 callsubr
        </CharString>
        <CharString name="ahookabove">
          -50 callgsubr
          78 -21 193 -103 callsubr
          39 406 -107 callsubr
        </CharString>
        <CharString name="amacron">
          -50 callgsubr
          128 52 -17 callgsubr
          hintmask 01010110
          -103 callgsubr
          hintmask 10100110
          -78 callsubr
          hintmask 00001000
          135 347 -38 callgsubr
        </CharString>
        <CharString name="ampersand">
          894 -11 47 102 36 205 36 -18 47 225 36 hstemhm
          48 128 -4 104 29 47 63 47 192 128 0 47 hintmask 0001000000000000
          836 397 rmoveto
          47 vlineto
          -2 -32 -40 -1 -27 hhcurveto
          -11 -84 1 2 -27 hvcurveto
          -47 vlineto
          22 27 0 -10 24 hvcurveto
          -56 -88 -60 -86 -75 -72 rrcurveto
          hintmask 0010101110000000
          -63 66 -75 88 -39 84 14 12 45 42 28 31 rrcurveto
          26 30 29 41 39 vvcurveto
          53 -32 78 -78 -83 -97 -62 -115 -59 13 -64 30 -69 vhcurveto
          -74 -63 -21 -18 -34 -29 -7 -8 rlinecurve
          hintmask 1100010000100000
          -21 -25 -10 -27 -28 vvcurveto
          -93 98 -56 110 71 67 23 40 61 vhcurveto
          -16 28 80 -47 103 hhcurveto
          82 78 45 84 3 hvcurveto
          -47 hlineto
          -75 -4 -88 -7 -19 hhcurveto
          -47 -49 30 44 -46 hvcurveto
          hintmask 0001000001000000
          46 47 33 34 46 67 82 119 rcurveline
          20 14 33 0 53 hhcurveto
          -421 177 rmoveto
          hintmask 1010101110000000
          -45 -43 -54 -67 -60 vhcurveto
          -12 29 -17 59 62 vvcurveto
          83 52 21 25 49 13 -65 -30 vhcurveto
          -494 vmoveto
          -44 -68 -72 0 -7 hhcurveto
          hintmask 0100010010000000
          -83 -9 109 29 47 14 52 41 29 hvcurveto
          35 -66 59 -88 90 -68 rrcurveto
          endchar
        </CharString>
        <CharString name="anglearc">
          894 -111 -21 766 -20 hstem
          630 60 vstem
          829 30 rmoveto
          13 -9 12 -12 4 vhcurveto
          -137 43 rlineto
          13 48 6 50 51 vvcurveto
          51 -6 50 -13 48 vhcurveto
          137 43 rlineto
          12 4 9 12 13 vvcurveto
          20 -20 15 -19 -6 vhcurveto
          -137 -43 -22 59 -31 56 -40 50 rlinecurve
          7 -5 -9 4 -9 hhcurveto
          -17 -13 -13 -17 -7 2 -7 4 -5 hvcurveto
          36 -44 27 -49 20 -52 -511 -160 rcurveline
          -12 -4 -9 -12 -13 vvcurveto
          -13 9 -12 12 -4 vhcurveto
          511 -160 -20 -52 -27 -49 -36 -44 rlinecurve
          -4 -5 -2 -7 -7 vvcurveto
          -17 13 -13 17 9 9 4 7 5 vhcurveto
          40 50 31 56 22 59 137 -43 rcurveline
          19 -6 20 15 20 vvcurveto
          -199 221 rmoveto
          -45 -6 -44 -10 -42 vhcurveto
          -420 131 420 131 rlineto
          10 -42 6 -44 -45 vvcurveto
          endchar
        </CharString>
        <CharString name="angleleft">
          447 -229 -21 1000 -20 21 -20 hstemhm
          hintmask 00100000
          382 -221 rmoveto
          11 -6 11 -4 11 vhcurveto
          -151 363 -7 17 -7 18 -8 17 rlinecurve
          -2 7 -6 9 8 vvcurveto
          3 2 4 1 4 vhcurveto
          8 19 164 395 rlineto
          6 14 10 17 14 vvcurveto
          16 -14 14 -16 vhcurveto
          hintmask 11000000
          -6 -1 -21 -3 -6 -26 -8 -17 rlinecurve
          -58 -140 -90 -219 -9 -21 -9 -20 -8 -21 rlinecurve
          -4 -10 -7 -11 -12 vvcurveto
          -10 6 -11 4 -9 vhcurveto
          22 -53 153 -369 8 -19 6 -28 25 -1 rlinecurve
          17 15 12 17 hvcurveto
          endchar
        </CharString>
        <CharString name="angleright">
          447 -229 -21 1001 -20 hstem
          320 251 rmoveto
          10 -6 11 -4 9 vhcurveto
          -23 56 -81 195 -71 172 -8 18 -6 26 -23 3 rlinecurve
          -3 -3 0 -1 -3 hvcurveto
          -15 -2 -10 -13 -15 vvcurveto
          -2 vlineto
          1 -6 2 -6 3 -6 67 -163 rcurveline
          84 -201 24 -58 7 -17 rlineto
          1 -3 2 -4 -4 vvcurveto
          -3 -2 -4 -1 -4 vhcurveto
          -8 -19 -60 -137 -52 -142 -61 -137 rlinecurve
          -3 -8 -4 -7 -8 vvcurveto
          -16 13 -15 17 vhcurveto
          2 hlineto
          24 1 6 25 7 18 60 144 rcurveline
          38 93 42 93 36 94 rrcurveto
          4 10 7 11 12 vvcurveto
          endchar
        </CharString>
        <CharString name="aogonek">
          104 callgsubr
          -17 callgsubr
          hintmask 10111100
          -15 callgsubr
          hintmask 11001100
          8 callgsubr
          endchar
        </CharString>
        <CharString name="aogonekacute">
          104 callgsubr
          77 -21 195 -9 callsubr
          hintmask 10110011
          -15 callgsubr
          hintmask 11000011
          8 callgsubr
          hintmask 00001100
          74 408 -91 callsubr
        </CharString>
        <CharString name="aring">
          -50 callgsubr
          68 41 86 41 75 callsubr
          17 54 130 54 -47 114 hintmask 0101001001000000
          -104 callgsubr
          hintmask 1000000000000000
          -64 callsubr
          hintmask 0100000000000000
          -77 callgsubr
          hintmask 1010001001000000
          -78 callsubr
          hintmask 0000110110000000
          -7 371 -63 callsubr
        </CharString>
        <CharString name="aringacute">
          -50 callgsubr
          68 41 86 41 206 -20 75 callsubr
          17 54 130 54 -47 114 hintmask 0101000100100000
          -104 callgsubr
          hintmask 1000000000000000
          -64 callsubr
          hintmask 0100000000000000
          -77 callgsubr
          hintmask 1010000100100000
          -78 callsubr
          hintmask 0000111011000000
          -7 371 -82 callsubr
          -3 219 -105 callsubr
        </CharString>
        <CharString name="asciicircum">
          556 583 -21 123 59 hstem
          -5 566 vstem
          561 584 rmoveto
          -283 160 -283 -160 11 -22 271 123 272 -123 rlineto
          endchar
        </CharString>
        <CharString name="asciitilde">
          556 193 43 -25 43 -8 43 -25 43 hstemhm
          hintmask 10010000
          555 290 40 callsubr
          hintmask 01000000
          23 callsubr
          hintmask 00100000
          20 10 20 11 17 14 rrcurveto
          endchar
        </CharString>
        <CharString name="asciitilde.low">
          556 0 43 -25 43 -8 43 -25 43 hstemhm
          0 555 hintmask 10010000
          555 97 40 callsubr
          hintmask 01001000
          23 callsubr
          hintmask 00101000
          20 10 20 11 17 14 rrcurveto
          endchar
        </CharString>
        <CharString name="asterisk">
          575 327 -21 444 -20 hstem
          242 89 vstem
          500 440 rmoveto
          29 -21 7 -9 3 vhcurveto
          -141 49 141 49 rlineto
          9 3 21 7 29 vvcurveto
          29 -24 19 -20 -6 -9 -2 -9 -12 vhcurveto
          -123 -93 22 128 rlineto
          3 16 0 2 5 vvcurveto
          29 -27 10 -17 -17 -27 -11 -28 -5 0 -2 3 -16 vhcurveto
          22 -128 -123 93 rlineto
          9 -12 -9 2 -6 hhcurveto
          -20 -24 -19 -29 -29 21 -7 9 -3 hvcurveto
          141 -49 -141 -49 rlineto
          -9 -3 -21 -7 -29 vvcurveto
          -29 24 -19 20 6 9 2 9 12 vhcurveto
          123 93 -22 -128 rlineto
          -3 -16 0 -2 -5 vvcurveto
          -29 27 -10 17 17 27 11 28 5 -7 43 -4 25 vhcurveto
          -13 77 122 -92 rlineto
          -10 13 9 -1 5 hhcurveto
          20 24 19 29 hvcurveto
          endchar
        </CharString>
        <CharString name="asterisk.math">
          575 50 -21 444 -20 hstem
          134 40 93 40 93 40 cntrmask 00111000
          500 163 rmoveto
          30 -24 7 -36 12 vhcurveto
          -37 13 -37 11 -36 15 44 18 46 15 46 15 rrcurveto
          22 7 12 13 20 vvcurveto
          24 -19 24 -25 -21 -19 -21 -12 -16 vhcurveto
          -93 -70 3 37 9 38 6 36 rlinecurve
          2 11 4 14 12 vvcurveto
          27 -21 14 -23 -23 -21 -14 -26 -13 4 -15 2 -11 vhcurveto
          6 -36 9 -38 3 -36 -119 90 rcurveline
          7 -9 -8 6 -13 hhcurveto
          -25 -19 -25 -24 -32 35 -8 25 -8 hvcurveto
          37 -13 37 -11 36 -15 -44 -18 -46 -15 -46 -15 rrcurveto
          -19 -6 -15 -12 -21 vvcurveto
          -24 19 -25 25 21 19 21 12 16 vhcurveto
          93 70 -3 -36 -9 -38 -6 -36 rlinecurve
          -2 -11 -4 -15 -13 vvcurveto
          -26 21 -14 23 23 21 14 27 12 -4 14 -2 11 vhcurveto
          -6 36 -9 38 -3 37 119 -90 rcurveline
          -7 9 8 -6 13 hhcurveto
          25 19 24 24 hvcurveto
          endchar
        </CharString>
        <CharString name="at">
          894 -6 36 98 36 366 36 98 36 hstemhm
          64 47 106 114 0 114 3 114 0 114 106 47 hintmask 1111101011000000
          829 79 rmoveto
          14 -13 0 -15 vhcurveto
          -24 hlineto
          -16 -2 0 -7 -16 hvcurveto
          -36 -94 -99 -20 -100 hhcurveto
          -231 -108 147 170 186 125 131 210 183 153 -103 -221 -90 -13 -86 -60 -33 0 45 14 hvcurveto
          230 vlineto
          27 -1 2 -29 vhcurveto
          -39 hlineto
          47 -29 -56 37 -77 hhcurveto
          hintmask 0000010000000000
          -136 -92 -87 -132 hvcurveto
          hintmask 1111101101000000
          -131 91 -88 137 46 45 13 32 38 vhcurveto
          -41 31 68 -4 26 hhcurveto
          121 9 157 60 213 -148 142 -234 -246 -137 -154 -199 -184 120 -169 267 196 155 63 12 24 hvcurveto
          0 3 5 5 vvcurveto
          -267 143 rmoveto
          -44 -31 -49 -14 -34 hhcurveto
          -60 -57 55 128 129 57 54 60 35 48 -15 -43 31 hvcurveto
          endchar
        </CharString>
        <CharString name="atilde">
          559 553 74 -57 74 -57 74 -17 callgsubr
          cntrmask 11100000
          -104 callgsubr
          -64 callsubr
          -31 0 -46 104 vhcurveto
          48 hlineto
          20 12 0 24 hvcurveto
          -201 115 83 callgsubr
          hintmask 11100000
          119 402 -107 callgsubr
        </CharString>
        <CharString name="b">
          639 -6 36 384 36 189 55 hstemhm
          106 114 0 128 124 128 hintmask 01110000
          82 callsubr
          293 110 callsubr
          -600 47 vlineto
          16 19 17 18 16 19 rrcurveto
          hintmask 11001100
          10 callsubr
        </CharString>
        <CharString name="backslash">
          575 750 -20 hstem
          510 -219 rmoveto
          6 -1 1 -5 13 vhcurveto
          -377 919 rlineto
          17 -7 -5 13 -21 hhcurveto
          -14 -16 -11 -20 -6 1 -1 5 -13 hvcurveto
          377 -919 rlineto
          -15 6 6 -15 21 hhcurveto
          14 16 11 20 hvcurveto
          endchar
        </CharString>
        <CharString name="baht">
          818 0 47 292 36 264 47 hstemhm
          147 131 99 48 0 48 106 142 hintmask 00100110
          753 186 rmoveto
          96 -86 67 -119 9 vhcurveto
          108 19 65 60 77 vvcurveto
          92 -87 80 -161 vhcurveto
          -48 48 hlineto
          13 -11 11 -13 vhcurveto
          hintmask 11111010
          -13 -11 -11 -13 hvcurveto
          -48 -338 -47 108 -20 callsubr
          338 -48 vlineto
          -13 11 -11 13 13 11 11 13 vhcurveto
          48 78 vlineto
          166 84 88 98 hvcurveto
          -174 328 rmoveto
          -77 -48 -62 -97 vhcurveto
          -9 264 35 hlineto
          101 18 -79 -46 hvcurveto
          -202 -139 rmoveto
          -99 264 99 hlineto
          229 -452 rmoveto
          -12 0 -128 -144 vhcurveto
          -37 292 47 hlineto
          20 47 0 -43 34 hvcurveto
          33 -42 0 -56 -11 vvcurveto
          -229 -140 rmoveto
          -99 292 99 hlineto
          endchar
        </CharString>
        <CharString name="bar">
          319 750 -20 hstem
          129 61 vstem
          190 -206 rmoveto
          17 callsubr
          endchar
        </CharString>
        <CharString name="bigcircle">
          56 callsubr
          566 60 vstem
          -72 callgsubr
          endchar
        </CharString>
        <CharString name="blanksymbol">
          639 -6 36 384 36 189 36 -36 55 hstemhm
          106 114 -6 114 -108 128 124 128 hintmask 01100100
          82 callsubr
          146 vlineto
          105 86 83 callsubr
          -75 -61 rlineto
          hintmask 00010100
          85 vlineto
          -177 -8 rlineto
          -47 vlineto
          hintmask 00001000
          62 7 0 -39 hvcurveto
          -79 vlineto
          -60 -50 rlineto
          -6 -4 -3 -7 -7 vvcurveto
          -13 11 -11 13 6 5 2 3 4 vhcurveto
          30 25 rlineto
          -459 47 vlineto
          16 19 17 18 16 19 rrcurveto
          hintmask 11000011
          10 callsubr
        </CharString>
        <CharString name="braceleft">
          68 callsubr
          -232 rmoveto
          13 -5 4 -12 1 vhcurveto
          -84 5 -37 35 -12 36 rrcurveto
          -3 10 0 8 17 vvcurveto
          237 vlineto
          -1 42 -32 51 -86 23 rrcurveto
          119 32 0 69 45 vvcurveto
          210 vlineto
          22 0 29 39 29 vhcurveto
          11 7 29 18 52 3 rrcurveto
          14 1 8 0 17 vvcurveto
          18 -9 0 -22 -142 -90 -50 -77 -1 vhcurveto
          -206 vlineto
          -62 0 -21 -33 -29 vhcurveto
          -23 -21 -35 -14 -41 -2 rrcurveto
          -14 -1 -8 0 -17 vvcurveto
          -13 5 -4 12 -1 vhcurveto
          90 -5 36 -45 9 -36 rrcurveto
          2 -8 0 -2 -37 vvcurveto
          -210 vlineto
          -128 166 -11 67 22 9 0 18 vhcurveto
          endchar
        </CharString>
        <CharString name="braceright">
          68 callsubr
          250 rmoveto
          13 -5 4 -12 1 vhcurveto
          -64 3 -52 26 -17 55 rrcurveto
          -3 8 0 2 39 vvcurveto
          210 vlineto
          123 -152 16 -82 -21 -10 0 -18 -13 5 -4 12 -1 vhcurveto
          81 -4 41 -33 12 -39 rrcurveto
          3 -10 0 -8 -17 vvcurveto
          -237 vlineto
          1 -42 31 -50 87 -24 rrcurveto
          -119 -32 0 -68 -46 vvcurveto
          -210 vlineto
          -23 0 -26 -37 -29 vhcurveto
          -10 -7 -31 -20 -54 -3 rrcurveto
          -14 -1 -8 0 -17 vvcurveto
          -18 10 0 21 150 83 54 73 1 vhcurveto
          206 vlineto
          65 0 17 34 31 vhcurveto
          11 11 33 22 53 3 rrcurveto
          14 1 8 0 17 vvcurveto
          endchar
        </CharString>
        <CharString name="bracketleft">
          319 -250 61 878 61 hstem
          128 61 vstem
          293 -250 rmoveto
          61 -104 878 104 61 -165 -1000 vlineto
          endchar
        </CharString>
        <CharString name="bracketright">
          319 -250 61 878 61 hstem
          129 61 vstem
          190 -250 rmoveto
          1000 -165 -61 104 -878 -104 -61 vlineto
          endchar
        </CharString>
        <CharString name="breve">
          575 513 123 callgsubr
          hstem
          465 700 -99 callgsubr
          endchar
        </CharString>
        <CharString name="breve.cap">
          575 496 123 callgsubr
          hstem
          465 683 -99 callgsubr
          endchar
        </CharString>
        <CharString name="breve.ts1">
          703 508 123 callgsubr
          hstem
          110 36 410 36 vstem
          592 695 rmoveto
          -36 hlineto
          -97 -123 -28 -80 -81 -126 26 99 vhcurveto
          -36 hlineto
          -123 131 -64 112 109 130 63 124 vhcurveto
          endchar
        </CharString>
        <CharString name="brokenbar">
          319 750 -20 hstem
          129 61 vstem
          190 341 rmoveto
          365 vlineto
          14 0 30 -30 -31 0 -29 -15 vhcurveto
          -365 vlineto
          -14 15 -10 16 15 15 10 14 vhcurveto
          -547 vmoveto
          365 vlineto
          14 -15 10 -15 -16 -15 -10 -14 vhcurveto
          -365 26 callsubr
          endchar
        </CharString>
        <CharString name="bullet">
          894 77 304 hstem
          295 304 57 callsubr
          endchar
        </CharString>
        <CharString name="c">
          48 callsubr
          35 callsubr
          hintmask 11101000
          -6 callsubr
          -63 -26 -48 -19 -51 hhcurveto
          -139 0 147 46 56 0 130 129 35 17 -3 -3 13 hvcurveto
          hintmask 01010100
          -14 callsubr
          hintmask 10100000
          -179 -74 -115 -116 -133 94 -95 154 162 30 116 7 hvcurveto
          endchar
        </CharString>
        <CharString name="cacute">
          48 callsubr
          77 -21 195 -58 callsubr
          -50 525 -91 callsubr
        </CharString>
        <CharString name="caron">
          575 73 callsubr
          465 688 -61 callsubr
        </CharString>
        <CharString name="caron.cap">
          107 callsubr
          165 -20 hstem
          463 627 -68 callsubr
        </CharString>
        <CharString name="caron.ts1">
          703 572 -21 165 -20 hstem
          568 673 rmoveto
          -20 43 -197 -83 -149 63 -48 20 -20 -43 217 -122 rlineto
          endchar
        </CharString>
        <CharString name="ccaron">
          48 callsubr
          71 -21 207 -58 callsubr
          -19 571 -61 callsubr
        </CharString>
        <CharString name="ccedilla">
          48 callsubr
          27 callsubr
          -123 128 -106 125 -114 125 hintmask 00000010
          478 117 rmoveto
          14 -14 0 -10 vhcurveto
          hintmask 11101000
          -18 -1 -2 -13 -5 hvcurveto
          -63 -26 -48 -19 -51 hhcurveto
          -139 0 147 46 56 0 130 129 35 17 -3 -3 13 hvcurveto
          hintmask 01010001
          -14 callsubr
          hintmask 00100100
          -179 -74 -115 -116 -117 73 -88 122 -19 hvcurveto
          -79 vlineto
          35 39 -5 -30 -36 -87 0 -68 hvcurveto
          -24 -48 48 hlineto
          117 142 0 84 hvcurveto
          hintmask 00000010
          50 -51 33 -55 vhcurveto
          30 vlineto
          124 18 25 96 6 vvcurveto
          endchar
        </CharString>
        <CharString name="ccircumflex">
          48 callsubr
          71 -21 207 -58 callsubr
          -19 408 -68 callgsubr
          endchar
        </CharString>
        <CharString name="cdotaccent">
          48 callsubr
          76 156 hstemhm
          38 128 0 125 -88 156 -54 125 -90 125 hintmask 11010010
          -6 callsubr
          -63 -26 -48 -19 -51 hhcurveto
          -139 0 147 46 56 0 130 129 35 17 -3 -3 13 hvcurveto
          hintmask 01001001
          -14 callsubr
          hintmask 10010000
          -179 -74 -115 -116 -133 94 -95 154 162 30 116 7 hvcurveto
          hintmask 00100100
          -119 490 rmoveto
          -8 callsubr
        </CharString>
        <CharString name="cedilla">
          7 callsubr
        </CharString>
        <CharString name="cedilla.dup">
          7 callsubr
        </CharString>
        <CharString name="cent">
          48 callsubr
          -1 40 hstemhm
          257 48 0 125 0 48 cntrmask 00011100
          hintmask 11011100
          -6 callsubr
          -63 -26 -48 -19 -51 hhcurveto
          379 vlineto
          28 -1 15 -2 12 -3 rrcurveto
          -18 -16 -2 -21 -9 vvcurveto
          -44 35 -19 27 31 32 21 42 79 -99 12 -61 1 vhcurveto
          hintmask 00111100
          39 vlineto
          14 -11 10 -13 -13 -11 -10 -14 vhcurveto
          -40 vlineto
          -154 -14 -65 -108 -108 vvcurveto
          -124 82 -92 137 -11 vhcurveto
          -43 vlineto
          -13 11 -11 13 13 11 11 13 vhcurveto
          43 vlineto
          145 8 28 107 7 vvcurveto
          -221 -76 rmoveto
          -91 30 0 116 40 vvcurveto
          50 0 108 91 24 vhcurveto
          endchar
        </CharString>
        <CharString name="cent.oldstyle">
          511 -43 40 -3 40 0 40 339 40 35 callsubr
          -35 48 hintmask 0000000010000000
          -6 callsubr
          hintmask 0100001000000000
          -63 -26 -48 -19 -51 hhcurveto
          -22 -18 4 6 -16 hvcurveto
          82 368 13 -2 9 -1 7 -2 rlinecurve
          hintmask 0001010100000000
          -18 -16 -2 -21 -9 vvcurveto
          -44 35 -19 27 31 32 21 42 65 -67 20 -58 5 vhcurveto
          8 36 rlineto
          15 3 -11 14 -15 hhcurveto
          -12 -9 -8 -10 -3 hvcurveto
          -10 -45 rlineto
          hintmask 1000100000000000
          -179 -74 -115 -116 -103 57 -81 97 -30 hvcurveto
          -11 -51 rlineto
          -15 -3 11 -14 15 hhcurveto
          12 9 8 11 3 hvcurveto
          11 50 rlineto
          hintmask 0100000010000000
          -2 15 16 -1 16 hhcurveto
          162 30 116 7 hvcurveto
          -196 296 rmoveto
          hintmask 0011100000000000
          -75 -339 rlineto
          -41 47 0 75 31 vvcurveto
          54 0 123 116 9 vhcurveto
          endchar
        </CharString>
        <CharString name="centigrade">
          1086 -10 47 394 62 -47 47 133 62 -52 62 -47 47 -47 48 hstemhm
          319 153 502 47 hintmask 1010010110000000
          1021 225 rmoveto
          6 vlineto
          13 -6 5 -13 vhcurveto
          -9 hlineto
          -12 -7 -4 -14 hvcurveto
          -7 vlineto
          -119 -11 -111 -68 -111 hhcurveto
          -84 -96 32 77 -47 hvcurveto
          -36 57 -6 76 65 vvcurveto
          64 6 66 30 57 vhcurveto
          84 45 99 36 91 hhcurveto
          117 88 -92 -113 19 hvcurveto
          -13 3 4 -6 15 hhcurveto
          10 hlineto
          10 10 2 12 2 hvcurveto
          236 vlineto
          hintmask 0000001000000000
          10 -3 12 -13 -9 -9 -6 -6 -6 vhcurveto
          -45 -41 rlineto
          -4 -5 -6 -9 -7 hhcurveto
          hintmask 0000100000000000
          -3 -3 2 1 -2 hvcurveto
          -12 9 rlineto
          hintmask 0000001000000000
          35 -52 -61 19 -64 hhcurveto
          hintmask 1000100110000000
          -8 -7 0 -1 -8 hvcurveto
          -118 -14 -109 -23 -82 -102 rrcurveto
          -47 -59 -23 -80 -75 vvcurveto
          -87 30 -87 59 -64 vhcurveto
          -84 79 121 -33 112 hhcurveto
          135 157 75 160 9 hvcurveto
          -765 336 rmoveto
          hintmask 0101000000000000
          75 -58 52 -70 vhcurveto
          -5 -5 -1 -4 hhcurveto
          -75 -10 -39 -52 -66 vvcurveto
          -77 56 -51 71 78 51 59 71 vhcurveto
          -62 -1 rmoveto
          -40 -25 -27 -42 -38 -23 22 36 -5 vhcurveto
          8 vlineto
          38 23 29 43 38 24 -22 -36 5 vhcurveto
          endchar
        </CharString>
        <CharString name="circumflex">
          575 73 callsubr
          465 525 -68 callgsubr
          endchar
        </CharString>
        <CharString name="circumflex.cap">
          107 callsubr
          165 -20 hstem
          463 510 -60 callsubr
        </CharString>
        <CharString name="circumflex.dup">
          575 73 callsubr
          465 525 -68 callgsubr
          endchar
        </CharString>
        <CharString name="colon">
          319 0 156 132 156 hstem
          81 156 vstem
          237 366 -102 callsubr
          -288 vmoveto
          -8 callsubr
        </CharString>
        <CharString name="colonmonetary">
          48 callgsubr
          132 callgsubr
          216 48 236 49 vstem
          766 227 rmoveto
          20 -7 1 -17 -13 -9 0 -17 -1 vhcurveto
          -134 -7 -121 -61 -101 hhcurveto
          -9 614 6 hlineto
          108 95 -76 -127 22 hvcurveto
          -19 3 1 -2 23 hhcurveto
          26 1 2 26 hvcurveto
          215 vlineto
          19 0 9 -18 -9 -2 -2 -7 -8 vhcurveto
          -66 -59 -57 46 -62 19 -63 3 rlinecurve
          37 vlineto
          13 -11 11 -13 -13 -11 -11 -13 vhcurveto
          -38 vlineto
          -230 -13 -139 -144 -196 vvcurveto
          -196 139 -144 230 -13 vhcurveto
          -38 vlineto
          -13 11 -11 13 13 11 11 13 vhcurveto
          37 vlineto
          178 7 107 119 112 vvcurveto
          -333 -187 rmoveto
          -60 10 -58 25 -39 46 rrcurveto
          -47 57 -12 75 90 vvcurveto
          56 3 108 63 66 vhcurveto
          46 46 56 20 48 7 rrcurveto
          endchar
        </CharString>
        <CharString name="comma">
          319 -173 117 callgsubr
          81 169 vstem
          250 31 rmoveto
          68 -34 57 -58 -46 -31 -35 -43 -40 27 -38 51 32 20 17 3 3 vhcurveto
          -8 -109 -65 -53 -21 -18 rrcurveto
          -6 -5 -3 -3 -6 vvcurveto
          -10 11 -10 8 15 105 86 139 vhcurveto
          endchar
        </CharString>
        <CharString name="copyleft">
          56 callsubr
          566 60 vstem
          -72 callgsubr
          -109 hmoveto
          90 -67 66 -109 -30 -30 -8 -22 -27 vhcurveto
          -29 26 rlineto
          3 -4 0 1 -4 hhcurveto
          -8 0 -4 -9 hvcurveto
          -94 vlineto
          -12 0 0 12 10 0 0 9 1 vhcurveto
          56 10 42 33 47 hhcurveto
          23 39 -5 -29 28 hvcurveto
          28 -29 1 -47 -25 vvcurveto
          -40 -5 -33 -21 -25 vhcurveto
          -26 -23 -37 -11 -34 hhcurveto
          -44 -54 27 59 -3 hvcurveto
          7 -4 0 -6 -7 -3 0 -9 -51 49 -54 83 109 67 66 90 vhcurveto
          endchar
        </CharString>
        <CharString name="copyright">
          56 callsubr
          566 60 vstem
          -72 callgsubr
          -149 -51 rmoveto
          9 -3 0 -7 -6 -4 0 -7 vhcurveto
          -59 -3 -54 -27 -44 hhcurveto
          -34 -37 11 26 -23 hvcurveto
          -21 25 -5 33 40 vvcurveto
          25 1 47 28 29 vhcurveto
          29 29 38 5 23 hhcurveto
          47 42 -33 -56 10 hvcurveto
          -9 1 0 0 11 hhcurveto
          11 0 0 12 hvcurveto
          94 vlineto
          9 0 4 -7 -4 -1 -1 -3 -4 vhcurveto
          -29 -26 rlineto
          22 -27 -30 8 -30 hhcurveto
          -109 -67 -66 -90 -90 67 -66 109 83 49 54 51 hvcurveto
          endchar
        </CharString>
        <CharString name="copyright.alt">
          796 -176 60 676 60 hstem
          0 60 676 60 vstem
          796 222 rmoveto
          244 -154 154 -244 -244 -154 -154 -244 -244 154 -154 244 244 154 154 244 vhcurveto
          -60 hmoveto
          -207 -131 -131 -207 -207 -131 131 207 208 131 130 207 207 131 -130 -208 vhcurveto
          -127 -75 rmoveto
          13 -4 1 -11 -9 -5 0 -11 -1 vhcurveto
          -87 -5 -78 -40 -65 hhcurveto
          -51 -54 16 39 -34 hvcurveto
          -30 37 -8 49 58 vvcurveto
          36 2 70 40 43 vhcurveto
          43 43 56 7 34 hhcurveto
          70 61 -49 -82 14 hvcurveto
          -13 2 1 -1 15 hhcurveto
          17 0 1 17 hvcurveto
          139 vlineto
          13 0 5 -11 -6 -1 -1 -4 -6 vhcurveto
          -42 -39 rlineto
          33 -41 -43 11 -44 hhcurveto
          -161 -99 -96 -133 -133 99 -96 161 121 73 80 74 hvcurveto
          endchar
        </CharString>
        <CharString name="currency">
          894 11 60 358 60 hstem
          208 60 358 60 vstem
          717 -20 rmoveto
          22 22 -21 20 -9 9 -73 73 rcurveline
          31 40 19 51 55 vvcurveto
          55 -19 51 -31 41 vhcurveto
          72 72 9 9 22 21 -22 22 rlinecurve
          -22 22 -20 -21 -10 -10 -72 -72 rcurveline
          31 -41 -50 18 -55 hhcurveto
          -55 -50 -19 -31 -41 hvcurveto
          -74 74 -8 8 -21 22 -22 -22 rlinecurve
          -22 -22 21 -20 9 -9 74 -74 rcurveline
          -31 -40 -19 -51 -55 vvcurveto
          -55 19 -50 31 -40 vhcurveto
          -73 -73 -10 -10 -21 -20 22 -22 rlinecurve
          22 -22 21 22 9 9 73 72 rcurveline
          -31 40 51 -19 55 hhcurveto
          55 51 19 31 40 hvcurveto
          73 -73 8 -8 21 -22 22 22 rlinecurve
          -91 270 rmoveto
          -99 -80 -80 -99 -99 -80 80 99 99 80 80 99 99 80 -80 -99 vhcurveto
          endchar
        </CharString>
        <CharString name="cwm">
          0 endchar
        </CharString>
        <CharString name="cwmascender">
          0 endchar
        </CharString>
        <CharString name="cwmcapital">
          0 endchar
        </CharString>
        <CharString name="d">
          639 -6 36 -30 47 367 36 189 47 callsubr
          hintmask 01001010
          35 callgsubr
          hintmask 10110110
          -29 callgsubr
          hintmask 01000000
          109 vmoveto
          hintmask 10100110
          -29 callsubr
          endchar
        </CharString>
        <CharString name="dagger">
          511 388 111 203 -20 hstemhm
          200 111 -32 111 hintmask 10010000
          447 443 rmoveto
          130 callsubr
          -33 -16 -9 -2 -13 -3 3 28 7 23 9 27 rrcurveto
          hintmask 11100000
          11 36 11 37 33 vvcurveto
          49 -37 10 -18 -22 -34 -13 -46 -33 11 -36 10 -32 vhcurveto
          10 -33 7 -23 3 -27 -10 2 -11 3 -19 9 rrcurveto
          12 -24 -29 14 -27 90 callgsubr
          33 16 9 2 13 3 -3 -27 -10 -28 -7 -20 rrcurveto
          -21 -64 0 -15 -43 vvcurveto
          -129 10 -130 16 -128 vhcurveto
          2 -16 4 -28 3 -4 rrcurveto
          -7 3 8 0 9 hhcurveto
          hintmask 00010000
          11 10 0 11 3 hvcurveto
          hintmask 00100000
          2 12 30 208 211 vvcurveto
          46 0 12 -23 70 vhcurveto
          -7 21 -8 25 -3 23 10 -2 11 -3 19 -9 rrcurveto
          hintmask 10010000
          -12 24 29 -14 27 hhcurveto
          41 16 30 25 hvcurveto
          endchar
        </CharString>
        <CharString name="daggerdbl">
          511 -32 111 323 111 -92 110 171 -20 hstemhm
          200 111 hintmask 00100000
          447 476 rmoveto
          28 -19 27 -37 vhcurveto
          hintmask 01011000
          -18 -23 -6 -12 -24 hvcurveto
          -32 -15 -6 -2 -17 -4 3 18 1 8 13 33 rrcurveto
          13 34 10 31 28 vvcurveto
          44 -34 14 -21 -26 -30 -16 -42 -31 14 -36 10 -27 vhcurveto
          12 -33 1 -6 3 -19 -15 4 -6 1 -19 9 rrcurveto
          hintmask 00101000
          12 -24 -28 13 -28 hhcurveto
          -37 -19 -27 -28 -13 6 -42 51 13 16 0 24 49 hvcurveto
          20 10 5 1 16 4 -3 -18 -1 -8 -13 -33 rrcurveto
          -13 -34 -10 -31 -28 vvcurveto
          -44 34 -14 21 26 30 16 42 vhcurveto
          hintmask 01001000
          31 -14 36 -10 27 vhcurveto
          -12 33 -1 6 -3 19 15 -4 6 -1 19 -9 rrcurveto
          hintmask 10101000
          -21 42 17 -4 20 hhcurveto
          51 6 42 13 hvcurveto
          -453 vmoveto
          130 callsubr
          -28 -13 -12 -4 -14 -4 3 20 1 6 16 44 rrcurveto
          14 36 6 25 21 vvcurveto
          44 -34 14 -21 -26 -30 -16 -42 -28 11 -31 11 -30 vhcurveto
          14 -37 1 -7 3 -19 -13 3 -11 4 -15 8 rrcurveto
          12 -26 -28 13 -26 90 callgsubr
          22 10 16 7 16 4 -3 -20 -1 -6 -16 -44 rrcurveto
          -14 -36 -6 -25 -21 vvcurveto
          -44 34 -14 21 26 30 16 42 28 -11 31 -11 30 vhcurveto
          -14 37 -1 7 -3 19 18 -5 15 -7 23 -10 rrcurveto
          -9 18 24 -9 21 hhcurveto
          41 16 30 25 hvcurveto
          endchar
        </CharString>
        <CharString name="dblbracketleft">
          463 -249 61 878 61 hstem
          128 61 82 61 vstem
          437 -249 rmoveto
          61 -105 878 105 61 -309 -1000 vlineto
          143 61 rmoveto
          -82 878 82 hlineto
          endchar
        </CharString>
        <CharString name="dblbracketright">
          463 -249 61 878 61 hstem
          130 61 82 61 vstem
          334 -249 rmoveto
          1000 -308 -61 104 -878 -104 -61 vlineto
          247 61 rmoveto
          -82 878 82 hlineto
          endchar
        </CharString>
        <CharString name="dblgrave.ts1">
          575 539 -21 193 -20 hstem
          242 543 rmoveto
          12 callsubr
          191 hmoveto
          12 callsubr
          endchar
        </CharString>
        <CharString name="dblverticalbar">
          499 750 -20 hstem
          129 61 119 61 vstem
          190 -206 rmoveto
          17 callsubr
          180 hmoveto
          17 callsubr
          endchar
        </CharString>
        <CharString name="dcaron">
          639 -6 36 -30 47 367 36 3 -21 145 117 -55 47 callsubr
          hintmask 0100001010000000
          35 callgsubr
          hintmask 1010010110000000
          -29 callgsubr
          hintmask 0100000000000000
          109 vmoveto
          hintmask 1010001110000000
          -29 callsubr
          284 247 130 callgsubr
          hintmask 0001100000000000
          -30 20 -29 39 24 15 13 2 2 vhcurveto
          -6 -82 -49 -39 -16 -14 rrcurveto
          -4 -4 -2 -2 -4 vvcurveto
          -8 8 -7 6 11 79 64 104 vhcurveto
          endchar
        </CharString>
        <CharString name="dcroat">
          639 -6 36 -30 47 367 36 71 48 70 47 callsubr
          hintmask 01010101
          601 58 callsubr
          435 69 48 -69 125 vlineto
          hintmask 10111011
          -177 -90 callsubr
          -31 -168 -48 168 -116 vlineto
          39 -50 -52 6 -33 hhcurveto
          -146 -105 -88 -141 -132 92 -95 148 61 48 24 25 31 hvcurveto
          -49 vlineto
          hintmask 01000000
          109 vmoveto
          hintmask 10100011
          -29 callsubr
          endchar
        </CharString>
        <CharString name="ddotbelow">
          639 53 callsubr
          36 -30 93 callgsubr
          hstemhm
          38 128 76 156 20 114 hintmask 0010010010000000
          35 callgsubr
          hintmask 0101101010000000
          -29 callgsubr
          hintmask 0010000000000000
          109 vmoveto
          hintmask 0101001010000000
          -29 callsubr
          hintmask 1000000100000000
          -20 -475 rmoveto
          -8 callsubr
        </CharString>
        <CharString name="degree">
          431 367 60 199 60 hstem
          56 60 199 60 vstem
          375 526 rmoveto
          89 -71 71 -88 -89 -71 -71 -89 -88 71 -71 89 88 71 71 88 vhcurveto
          -60 hmoveto
          -55 -44 -44 -55 -55 -45 44 55 55 45 45 55 55 44 -45 -55 vhcurveto
          endchar
        </CharString>
        <CharString name="diameter">
          894 -121 60 624 60 hstem
          75 60 624 60 vstem
          829 603 rmoveto
          17 -13 13 -17 -8 -8 -3 -6 -5 vhcurveto
          -90 -90 rlineto
          56 -65 -84 33 -92 hhcurveto
          -205 -167 -167 -205 -92 33 -84 56 -65 hvcurveto
          -91 -91 rlineto
          -6 -5 -3 -8 -8 vvcurveto
          -17 13 -13 17 8 8 3 6 5 vhcurveto
          91 91 rlineto
          -56 65 84 -33 92 hhcurveto
          205 167 167 205 92 -33 84 -56 65 hvcurveto
          90 90 rlineto
          6 5 3 8 8 vvcurveto
          -70 -352 rmoveto
          -172 -140 -140 -172 -75 -69 27 44 -54 vhcurveto
          439 439 rlineto
          44 -54 27 -69 -75 vvcurveto
          -114 241 rmoveto
          -439 -439 rlineto
          -44 54 -27 69 75 vvcurveto
          172 140 140 172 75 69 -27 -44 54 vhcurveto
          endchar
        </CharString>
        <CharString name="died">
          575 339 70 -69 70 -64 57 hstemhm
          237 97 -84 74 cntrmask 11100000
          hintmask 11101000
          529 367 rmoveto
          9 vlineto
          17 -1 19 -19 -14 -14 -2 -1 -13 vhcurveto
          -3 -48 -48 -3 -48 hhcurveto
          58 8 57 9 57 vhcurveto
          1 5 2 5 5 vvcurveto
          11 -10 7 -10 vhcurveto
          -67 hlineto
          -11 -16 -1 -18 -15 6 -21 3 -17 hvcurveto
          7 -44 4 -45 -44 vvcurveto
          -55 -54 3 4 -54 hvcurveto
          1 -6 -6 1 -6 hhcurveto
          -20 -4 -14 -16 hvcurveto
          -9 vlineto
          -17 1 -19 19 14 14 2 1 13 vhcurveto
          3 48 48 3 48 hhcurveto
          hintmask 11110000
          -90 -6 -91 -7 -90 vhcurveto
          -1 -26 -6 -26 -26 vvcurveto
          -16 9 -5 15 vhcurveto
          63 hlineto
          11 13 2 13 2 hvcurveto
          16 vlineto
          -3 26 -6 75 rlineto
          hintmask 11101000
          -7 79 -3 80 79 vvcurveto
          55 54 -3 -4 54 hvcurveto
          -1 6 6 -1 6 hhcurveto
          20 4 14 16 hvcurveto
          endchar
        </CharString>
        <CharString name="dieresis">
          575 537 140 hstem
          89 25 callsubr
          vstem
          -48 callgsubr
          endchar
        </CharString>
        <CharString name="dieresis.cap">
          575 486 140 hstem
          66 30 callgsubr
          vstem
          -9 callgsubr
          endchar
        </CharString>
        <CharString name="dieresis.dup">
          575 537 140 hstem
          89 25 callsubr
          vstem
          -48 callgsubr
          endchar
        </CharString>
        <CharString name="dieresis.ts1">
          575 551 145 hstem
          103 145 78 145 vstem
          471 623 rmoveto
          38 -30 35 -42 -3 -4 0 -1 -3 vhcurveto
          -37 -4 -26 -32 -35 vvcurveto
          -39 29 -34 44 42 30 35 37 vhcurveto
          -223 hmoveto
          39 -29 34 -44 -3 -3 0 -1 -3 vhcurveto
          -38 -3 -25 -35 -33 vvcurveto
          -38 30 -35 42 40 33 32 40 vhcurveto
          endchar
        </CharString>
        <CharString name="discount">
          575 20 180 -178 -21 552 180 17 -20 21 -20 hstemhm
          112 181 -94 181 -99 181 -169 181 hintmask 0000100000000000
          510 720 rmoveto
          16 -13 15 -17 vhcurveto
          hintmask 0001000010000000
          -6 -1 -18 -3 -8 -20 -8 -14 rlinecurve
          hintmask 0110001000000000
          -60 -108 -292 -522 rlineto
          -10 -17 -14 -20 -14 vvcurveto
          -16 14 -15 17 vhcurveto
          1 hlineto
          22 1 7 22 9 16 68 120 rcurveline
          249 447 39 70 rlineto
          8 13 12 15 15 vvcurveto
          -217 -78 rmoveto
          -49 -41 -40 -47 vhcurveto
          -6 hlineto
          hintmask 1010010000000000
          87 callgsubr
          169 -533 rmoveto
          -49 -41 -40 -47 vhcurveto
          -6 hlineto
          hintmask 1000000100000000
          87 callgsubr
          endchar
        </CharString>
        <CharString name="divide">
          894 -80 156 144 61 145 156 hstem
          369 156 vstem
          829 250 12 callgsubr
          -304 254 -102 callsubr
          -506 vmoveto
          -8 callsubr
        </CharString>
        <CharString name="divorced">
          575 29 75 0 75 0 75 hstemhm
          -229 75 299 57 31 91 -74 91 387 75 cntrmask 11100000
          hintmask 11111011
          202 252 rmoveto
          113 -73 109 -139 vhcurveto
          -6 -5 -1 -6 hhcurveto
          -57 -6 -54 -18 -40 -46 rrcurveto
          -36 -41 -15 -55 -54 vvcurveto
          -54 15 -59 37 -42 vhcurveto
          -47 43 63 -22 62 hhcurveto
          110 101 76 147 hvcurveto
          601 hmoveto
          120 -80 102 -139 vhcurveto
          -6 -6 -1 -6 hhcurveto
          -55 -6 -53 -20 -36 -44 rrcurveto
          -35 -43 -14 -55 -54 vvcurveto
          -107 60 -115 153 114 103 77 146 vhcurveto
          -459 -342 rmoveto
          9 -2 9 -1 7 vhcurveto
          hintmask 11100100
          -10 127 -7 126 127 vvcurveto
          43 vlineto
          2 69 4 68 10 68 3 24 rcurveline
          3 1 2 3 vvcurveto
          19 -16 1 -11 vhcurveto
          -61 hlineto
          -4 -4 0 -1 -4 hvcurveto
          -11 -3 -3 -8 -9 vvcurveto
          -9 3 -10 1 -7 vhcurveto
          hintmask 11100010
          10 -83 6 -84 -84 -35 -2 -36 -35 vvcurveto
          -32 vlineto
          hintmask 11111101
          -15 -241 -2 -23 rlineto
          -3 -1 -2 -3 vvcurveto
          -19 16 -1 11 vhcurveto
          60 hlineto
          21 6 8 15 hvcurveto
          384 339 rmoveto
          -77 -31 -68 -119 -65 -64 27 76 -16 vhcurveto
          -3 13 0 14 -2 13 rrcurveto
          41 10 44 31 30 vhcurveto
          27 29 40 9 40 hhcurveto
          82 68 -34 -115 hvcurveto
          -583 -3 rmoveto
          -3 -39 -6 -36 -28 -28 rrcurveto
          -29 -29 -42 -10 -41 hhcurveto
          -42 -43 7 30 -30 hvcurveto
          -27 28 -8 42 39 vvcurveto
          82 36 66 114 85 64 -48 -96 vhcurveto
          endchar
        </CharString>
        <CharString name="dlinebelow">
          639 -148 52 90 36 -30 47 367 36 189 47 callsubr
          hintmask 00100101
          35 callgsubr
          hintmask 01011011
          -29 callgsubr
          hintmask 00100000
          109 vmoveto
          hintmask 01010011
          -29 callsubr
          hintmask 10000000
          109 -501 -38 callgsubr
        </CharString>
        <CharString name="dollar">
          575 -35 -21 50 48 85 125 204 125 71 45 53 -20 hstem
          64 125 75 47 74 125 vstem
          510 210 rmoveto
          70 -32 52 -34 34 vhcurveto
          -47 46 -55 10 -31 6 rrcurveto
          224 vlineto
          23 -2 82 -7 32 -62 rrcurveto
          -49 -2 -14 -36 -24 vvcurveto
          -45 36 -18 26 18 45 10 56 81 -52 87 -147 9 vhcurveto
          51 -47 -51 vlineto
          -148 -11 -52 -103 -87 vvcurveto
          -54 21 -47 38 -38 vhcurveto
          48 -47 52 -10 41 -9 rrcurveto
          -251 vlineto
          -110 10 -25 61 -6 14 rrcurveto
          53 13 38 24 47 -39 16 -23 -8 -55 -3 -64 -78 46 -101 154 -11 hvcurveto
          -51 47 51 vlineto
          148 14 51 108 93 vvcurveto
          -246 229 rmoveto
          -91 15 -29 53 39 vvcurveto
          53 41 47 79 6 vhcurveto
          166 -490 rmoveto
          -61 -41 -51 -78 -8 vhcurveto
          241 vlineto
          72 -12 47 -51 -58 vvcurveto
          endchar
        </CharString>
        <CharString name="dollar.oldstyle">
          702 652 48 -47 47 -47 48 hstem
          304 47 0 47 0 47 cntrmask 11111100
          638 214 rmoveto
          3 vlineto
          82 -58 71 -135 42 vhcurveto
          236 vlineto
          51 -7 54 -17 25 -42 rrcurveto
          -35 -27 -27 -35 -32 19 -24 36 -7 hvcurveto
          5 hlineto
          46 19 33 35 111 -86 45 -107 14 hvcurveto
          56 -47 -51 vlineto
          1 -15 -16 0 -15 hhcurveto
          -16 -16 -1 -1 -16 hvcurveto
          52 -47 -59 vlineto
          -110 -22 -83 -62 -109 vvcurveto
          -94 53 -54 140 -40 vhcurveto
          -261 vlineto
          -56 12 -56 23 -20 43 rrcurveto
          40 24 30 33 33 -27 29 -35 -44 -19 -35 -32 -119 93 -49 100 -16 hvcurveto
          -57 47 51 vlineto
          -1 15 14 0 14 hhcurveto
          18 17 1 2 16 hvcurveto
          -53 47 59 vlineto
          138 30 55 92 88 vvcurveto
          -240 211 rmoveto
          -11 3 -12 3 -12 2 -59 10 rcurveline
          209 vlineto
          1 18 16 1 13 hhcurveto
          12 16 0 -1 19 hvcurveto
          -141 -199 rmoveto
          -59 15 -54 26 52 vvcurveto
          58 56 27 57 13 vhcurveto
          301 -483 rmoveto
          -58 -49 -33 -64 -17 vhcurveto
          212 vlineto
          86 -26 27 -30 -48 vvcurveto
          -160 -117 rmoveto
          -2 -19 -20 -1 -20 hhcurveto
          -11 -12 0 1 -12 hvcurveto
          256 vlineto
          43 -9 19 -4 16 -4 16 -3 rlinecurve
          endchar
        </CharString>
        <CharString name="dong">
          639 -48 48 hstem
          571 35 rmoveto
          44 vlineto
          -59 -7 0 37 hvcurveto
          414 66 45 -66 119 vlineto
          -168 -8 rlineto
          -44 vlineto
          59 7 0 -37 hvcurveto
          -30 -160 -45 160 -111 vlineto
          38 -48 -49 5 -31 hhcurveto
          -139 -100 -83 -134 -126 87 -90 141 58 46 23 24 29 hvcurveto
          -47 vlineto
          174 -53 rmoveto
          13 -11 11 -13 vhcurveto
          -487 39 callsubr
          487 hlineto
          13 11 11 13 hvcurveto
          -174 157 rmoveto
          -18 -12 -39 -52 -72 hhcurveto
          -116 0 115 67 45 0 52 24 37 hvcurveto
          40 28 45 9 29 hhcurveto
          54 38 -30 -28 21 hvcurveto
          endchar
        </CharString>
        <CharString name="dotaccent">
          319 529 65 callsubr
          607 rmoveto
          -8 callsubr
        </CharString>
        <CharString name="dotaccent.alt">
          319 487 65 callsubr
          565 rmoveto
          -8 callsubr
        </CharString>
        <CharString name="dotaccent.cap">
          319 486 65 callsubr
          564 rmoveto
          -8 callsubr
        </CharString>
        <CharString name="dotlessi">
          319 -21 callgsubr
          hstemhm
          116 108 hintmask 10110000
          -13 callsubr
          hintmask 11010000
          -66 callgsubr
          endchar
        </CharString>
        <CharString name="dotlessj">
          27 callgsubr
          hstemhm
          -56 125 90 108 hintmask 10111000
          -65 callgsubr
          hintmask 01010000
          -38 -25 -27 -36 hvcurveto
          hintmask 10001000
          -57 60 -34 82 86 95 52 106 vhcurveto
          endchar
        </CharString>
        <CharString name="e">
          -28 callgsubr
          hstem
          32 128 24 95 120 95 vstem
          -105 callgsubr
          endchar
        </CharString>
        <CharString name="eacute">
          -28 callgsubr
          77 -21 195 -95 callsubr
          11 391 -91 callsubr
        </CharString>
        <CharString name="ebreve">
          -28 callgsubr
          60 62 125 -95 callsubr
          42 449 -99 callgsubr
          endchar
        </CharString>
        <CharString name="ecaron">
          -28 callgsubr
          71 -21 207 -95 callsubr
          42 437 -61 callsubr
        </CharString>
        <CharString name="ecircumflex">
          -28 callgsubr
          71 -21 207 -95 callsubr
          42 274 -68 callgsubr
          endchar
        </CharString>
        <CharString name="ecircumflexacute">
          -28 callgsubr
          71 -21 371 -95 callsubr
          40 276 -93 callsubr
          -43 299 -105 callsubr
        </CharString>
        <CharString name="ecircumflexdotbelow">
          527 53 callsubr
          4 callgsubr
          71 131 callgsubr
          69 callsubr
          hintmask 0111111101000000
          -105 callgsubr
          42 274 -68 callgsubr
          hintmask 1000000010000000
          -79 -625 rmoveto
          -8 callsubr
        </CharString>
        <CharString name="ecircumflexgrave">
          -28 callgsubr
          71 -21 165 -95 callsubr
          40 276 -79 callgsubr
        </CharString>
        <CharString name="ecircumflexhookabove">
          -28 callgsubr
          71 -21 373 -95 callsubr
          40 276 -93 callsubr
          64 310 -107 callsubr
        </CharString>
        <CharString name="ecircumflextilde">
          527 723 97 callgsubr
          32 128 24 95 120 95 cntrmask 11100000
          -105 callgsubr
          hintmask 11100000
          40 276 -93 callsubr
          32 303 -107 callgsubr
        </CharString>
        <CharString name="edblgrave">
          -28 callgsubr
          77 -21 195 -95 callsubr
          12 282 -95 callgsubr
        </CharString>
        <CharString name="edieresis">
          -28 callgsubr
          84 140 hstemhm
          32 128 -95 140 -21 95 43 140 -63 95 hintmask 1100100100000000
          -89 callsubr
          hintmask 1110101010000000
          22 10 0 27 31 -6 73 -50 50 hvcurveto
          36 -37 -53 18 -69 hhcurveto
          -160 -87 -103 -125 -134 100 -97 161 158 43 106 17 122 callsubr
          -239 hlineto
          2 39 1 42 21 33 rrcurveto
          40 26 40 12 29 hhcurveto
          117 2 -131 -35 1 hvcurveto
          hintmask 0001010100000000
          -194 356 -73 callgsubr
        </CharString>
        <CharString name="edotaccent">
          -28 callgsubr
          76 156 69 callsubr
          hintmask 11101101
          -105 callgsubr
          hintmask 00010010
          -57 356 rmoveto
          -8 callsubr
        </CharString>
        <CharString name="edotbelow">
          527 53 callsubr
          4 callgsubr
          69 callsubr
          hintmask 01111101
          -105 callgsubr
          hintmask 10000010
          -57 -373 rmoveto
          -8 callsubr
        </CharString>
        <CharString name="egrave">
          -28 callgsubr
          77 -21 195 -95 callsubr
          -63 295 rmoveto
          -70 callsubr
        </CharString>
        <CharString name="ehookabove">
          -28 callgsubr
          78 -21 193 -95 callsubr
          -24 389 -107 callsubr
        </CharString>
        <CharString name="eight">
          575 78 callgsubr
          hstem
          48 86 65 86 155 86 vstem
          526 -26 callgsubr
        </CharString>
        <CharString name="eight.oldstyle">
          648 78 callgsubr
          hstemhm
          85 109 callsubr
          563 -32 callsubr
        </CharString>
        <CharString name="eight.prop">
          648 78 callgsubr
          hstem
          85 86 65 86 155 86 vstem
          563 -26 callgsubr
        </CharString>
        <CharString name="eight.taboldstyle">
          575 78 callgsubr
          hstemhm
          48 109 callsubr
          526 -32 callsubr
        </CharString>
        <CharString name="ellipsis">
          838 0 156 hstem
          82 156 103 156 103 156 cntrmask 01110000
          238 78 -102 callsubr
          259 hmoveto
          -102 callgsubr
          259 hmoveto
          -8 callsubr
        </CharString>
        <CharString name="emacron">
          -28 callgsubr
          128 52 hstemhm
          32 128 24 95 120 95 hintmask 11101110
          -105 callgsubr
          hintmask 00010000
          72 330 -38 callgsubr
        </CharString>
        <CharString name="emdash">
          1150 256 36 hstem
          0 1149 vstem
          1149 256 rmoveto
          36 -1149 -36 vlineto
          endchar
        </CharString>
        <CharString name="emdash.alt">
          767 257 36 hstem
          765 257 rmoveto
          36 -765 -36 vlineto
          endchar
        </CharString>
        <CharString name="endash">
          575 256 36 hstem
          0 574 vstem
          574 256 rmoveto
          36 -574 -36 vlineto
          endchar
        </CharString>
        <CharString name="eng">
          592 -205 114 91 47 259 36 53 47 -28 36 -33 callgsubr
          hintmask 00101010
          546 47 rmoveto
          259 vlineto
          105 -54 39 -100 -96 -53 -57 -51 -26 vhcurveto
          108 vlineto
          hintmask 01010100
          -172 -90 callsubr
          -309 -6 callgsubr
          hintmask 11001010
          109 86 49 63 34 21 -21 -76 vhcurveto
          -270 vlineto
          -66 0 -72 -27 -39 vhcurveto
          22 -7 -22 17 -25 hhcurveto
          -31 -26 -26 -31 -32 26 -25 31 120 75 122 130 hvcurveto
          endchar
        </CharString>
        <CharString name="eogonek">
          527 -206 78 -12 40 94 4 callgsubr
          126 callsubr
          hintmask 0111110110000000
          -16 callgsubr
          hintmask 1001010110000000
          51 callsubr
          hintmask 0001101010000000
          2 39 1 42 21 33 rrcurveto
          40 26 40 12 29 hhcurveto
          117 2 -131 -35 1 hvcurveto
          endchar
        </CharString>
        <CharString name="eogonekacute">
          527 -206 78 -12 40 94 4 callgsubr
          77 54 callgsubr
          126 callsubr
          hintmask 0111100101100000
          -16 callgsubr
          hintmask 1001000101100000
          51 callsubr
          hintmask 0001100010100000
          2 39 1 42 21 33 rrcurveto
          40 26 40 12 29 hhcurveto
          117 2 -131 -35 1 hvcurveto
          hintmask 0000011000000000
          11 391 -91 callsubr
        </CharString>
        <CharString name="equal">
          894 108 61 163 61 hstem
          64 765 vstem
          829 362 12 callgsubr
          -223 vmoveto
          30 -29 0 -12 vhcurveto
          -683 127 callsubr
          673 hlineto
          15 31 0 31 hvcurveto
          endchar
        </CharString>
        <CharString name="ereversed">
          -28 callgsubr
          hstem
          32 95 120 95 24 128 vstem
          494 225 rmoveto
          125 -87 103 -160 -69 -53 -18 -36 -37 vhcurveto
          -50 -50 -6 -73 -31 vvcurveto
          -27 10 0 22 vhcurveto
          302 hlineto
          -51 -1 -133 -141 -65 -57 32 48 -21 vhcurveto
          16 -6 -2 5 -17 hhcurveto
          -5 -19 0 -18 -17 43 -106 158 161 100 97 134 hvcurveto
          -128 26 rmoveto
          -239 hlineto
          35 1 2 131 117 hhcurveto
          29 40 -12 -40 26 hvcurveto
          21 -33 1 -42 2 -39 rrcurveto
          endchar
        </CharString>
        <CharString name="estimated">
          795 -5 41 0 41 0 41 hstem
          32 153 437 140 cntrmask 11100000
          762 118 rmoveto
          12 -12 7 -12 -20 -3 -16 -11 -10 vhcurveto
          -61 -49 -95 -13 -70 hhcurveto
          -43 hlineto
          -83 -82 25 74 -51 hvcurveto
          -40 60 -7 75 70 vvcurveto
          552 hlineto
          21 4 10 16 93 -27 102 -75 62 hvcurveto
          56 -68 -91 17 -87 hhcurveto
          -178 -204 -95 -255 -101 40 -104 85 -64 hvcurveto
          -63 82 102 -19 102 hhcurveto
          108 135 3 102 68 hvcurveto
          4 5 4 6 7 vvcurveto
          -136 255 rmoveto
          -441 hlineto
          1 69 9 75 41 57 rrcurveto
          57 41 68 29 68 hhcurveto
          49 49 -15 -33 37 hvcurveto
          44 -44 27 -65 3 -63 3 -55 rcurveline
          -4 0 -4 1 -4 vhcurveto
          endchar
        </CharString>
        <CharString name="eth">
          0 callsubr
          hstem
          32 128 254 128 vstem
          542 259 rmoveto
          63 0 74 -48 84 vhcurveto
          -34 58 -47 49 -55 36 80 36 rcurveline
          -19 43 -113 -50 -65 31 -73 16 -75 -3 rlinecurve
          -3 -38 47 -6 45 -15 39 -23 rlinecurve
          -78 -35 19 -43 106 47 56 -43 43 -59 24 -68 rlinecurve
          26 -28 -39 14 -41 hhcurveto
          -148 -103 -95 -139 -128 93 -97 162 96 62 34 34 35 hvcurveto
          62 62 0 67 68 vvcurveto
          -128 -44 rmoveto
          -50 0 -131 -127 -28 -48 9 47 -28 vhcurveto
          -23 39 0 52 48 vvcurveto
          50 0 50 25 37 vhcurveto
          43 29 46 8 26 hhcurveto
          40 38 -20 -44 24 hvcurveto
          26 -49 0 -60 -29 vvcurveto
          endchar
        </CharString>
        <CharString name="etilde">
          527 107 callgsubr
          32 128 24 95 120 95 cntrmask 11100000
          -105 callgsubr
          hintmask 11100000
          56 385 -107 callgsubr
        </CharString>
        <CharString name="eturned">
          -27 callsubr
        </CharString>
        <CharString name="exclam">
          350 0 156 hstem
          96 158 vstem
          254 634 rmoveto
          39 -36 32 -43 -43 -36 -32 -39 -6 0 -2 2 -10 vhcurveto
          52 -364 rlineto
          -24 3 1 -2 21 hhcurveto
          19 3 2 20 3 hvcurveto
          52 373 rlineto
          1 -543 rmoveto
          -8 callsubr
        </CharString>
        <CharString name="exclamdown">
          350 -184 -21 479 -20 90 156 hstem
          96 156 -155 156 -155 156 cntrmask 00011100
          253 422 -102 callsubr
          1 -556 rmoveto
          6 0 2 -2 10 vhcurveto
          -52 368 rlineto
          19 -3 -3 3 -19 hhcurveto
          -21 -1 -3 -22 -3 hvcurveto
          -52 -370 -2 -13 rlineto
          -39 36 -32 43 43 36 32 39 vhcurveto
          endchar
        </CharString>
        <CharString name="f">
          -26 callsubr
          350 115 47 -121 101 vlineto
          110 76 9 25 5 5 0 -2 7 vhcurveto
          -15 -11 -8 41 callsubr
          endchar
        </CharString>
        <CharString name="f_f">
          671 67 callsubr
          220 36 hstem
          37 123 -54 108 -54 123 cntrmask 00011100
          746 613 rmoveto
          43 -37 44 -78 -35 -58 -5 -30 -47 vhcurveto
          35 -42 -56 0 -22 hhcurveto
          -122 -143 -38 -118 hvcurveto
          -13 callgsubr
          210 39 callgsubr
          350 117 47 -123 101 vlineto
          115 84 4 18 8 4 -1 -1 6 vhcurveto
          -15 -11 -8 41 callsubr
          -317 41 rmoveto
          -3 -2 -27 -15 -37 vvcurveto
          -17 7 -21 18 -12 vhcurveto
          -106 -216 98 vlineto
          84 66 38 91 31 22 -6 -4 11 vhcurveto
          endchar
        </CharString>
        <CharString name="f_f_i">
          958 67 callsubr
          74 128 18 36 hstemhm
          106 108 157 108 -54 108 -39 108 141 108 hintmask 1111110110000000
          920 17 callgsubr
          -67 -73 -10 -34 -59 vhcurveto
          44 -45 -57 0 -21 hhcurveto
          -115 -150 -35 -121 hvcurveto
          -13 callgsubr
          vlineto
          hintmask 1100001000000000
          211 -350 -69 -47 hlineto
          hintmask 1000010100000000
          123 3 123 -3 rlineto
          47 vlineto
          hintmask 1111001010000000
          -69 350 180 hlineto
          101 callsubr
          -360 643 rmoveto
          -37 -13 -8 -31 -19 vvcurveto
          -11 3 -29 30 -17 vhcurveto
          -82 -217 98 vlineto
          90 77 32 80 21 24 -3 -15 27 vhcurveto
          endchar
        </CharString>
        <CharString name="f_f_l">
          958 67 callsubr
          169 47 -5 36 -27 36 hstemhm
          106 108 211 108 210 108 hintmask 10010001
          920 76 callsubr
          hintmask 11101111
          9 -32 -26 0 -19 hhcurveto
          -53 -77 -6 -34 -62 hvcurveto
          40 -45 -63 0 -20 hhcurveto
          -120 -146 -37 -119 hvcurveto
          -13 callgsubr
          211 -350 -69 -47 vlineto
          123 3 123 -3 rlineto
          47 -69 350 210 -350 120 callsubr
          -367 651 rmoveto
          -5 -3 -25 -17 -34 vvcurveto
          -14 6 -23 19 -13 vhcurveto
          -106 -217 98 vlineto
          115 120 7 38 31 22 -6 -4 11 vhcurveto
          313 -210 91 callgsubr
          22 27 -5 0 vhcurveto
          hintmask 00010000
          0 0 -2 -2 -2 vhcurveto
          hintmask 01100001
          63 callgsubr
          5 -4 0 -2 -16 vvcurveto
          endchar
        </CharString>
        <CharString name="f_i">
          639 67 callsubr
          74 127 19 36 hstem
          106 108 210 108 vstem
          601 17 callgsubr
          -124 -144 -39 -117 vhcurveto
          -13 callgsubr
          180 vlineto
          101 callsubr
          endchar
        </CharString>
</ttFont>
